<?xml version="1.0" encoding="UTF-8"?>
<svg width="28px" height="28px" viewBox="0 0 28 28" version="1.1" xmlns="http://www.w3.org/2000/svg" xmlns:xlink="http://www.w3.org/1999/xlink">
    <title>47deg-header-doc</title>
    <g id="Page-1" stroke="none" stroke-width="1" fill="none" fill-rule="evenodd">
        <path d="M14,28 C6.2680135,28 0,21.7319865 0,14 C0,6.2680135 6.2680135,0 14,0 C21.7319865,0 28,6.2680135 28,14 C28,21.7319865 21.7319865,28 14,28 Z M12.1920661,9.12228202 L6.37724171,17.1770025 L11.4469747,17.1770025 L11.4469747,18.9452752 L12.1987621,18.9452752 L12.1987621,17.1770026 L13.4825955,17.1770026 L13.4825955,16.4816725 L12.1920661,16.4816725 L12.1920661,9.12228202 Z M14.6077552,9.49581829 L14.6103922,10.1700129 L20.2257783,10.1700129 L14.2003986,18.7251547 L14.7650244,19.1300405 L21.5534458,9.49581829 L14.6077552,9.49581829 Z M11.4484332,11.272552 L11.438073,16.4837239 L7.70049612,16.4837239 L11.4484332,11.272552 Z" id="Shape" fill="#263237" fill-rule="nonzero"></path>
    </g>
</svg>