<svg width="61" height="22" viewBox="0 0 61 22" fill="none" xmlns="http://www.w3.org/2000/svg">
<path fill-rule="evenodd" clip-rule="evenodd" d="M23.4379 9.30675H29.0825C28.6966 7.91875 27.6882 7.15488 26.1664 7.15488C24.9406 7.15488 23.7842 8.00991 23.4379 9.30675ZM31.6927 11.2776H23.4089C23.5272 12.7561 24.6247 13.701 26.3151 13.6404C27.3631 13.6404 28.2823 13.1979 28.7765 12.3429H31.3761C30.5065 14.6359 28.6873 15.9334 26.3937 15.9334C24.8514 15.9334 23.5761 15.4004 22.5089 14.3145C21.5401 13.2785 20.9666 11.8406 20.9666 10.4526C20.9666 8.9847 21.4608 7.6872 22.4197 6.65119C23.4677 5.53466 24.8316 4.91119 26.2457 4.91119C28.0054 4.91119 29.6362 5.81612 30.7338 7.29462C31.3761 8.24013 31.6927 9.35599 31.6927 10.744V11.277V11.2776Z" fill="#263237"/>
<path fill-rule="evenodd" clip-rule="evenodd" d="M38.3846 7.38642C36.7042 7.38642 35.4288 8.73383 35.4288 10.5337C35.4288 12.3336 36.7636 13.5905 38.2557 13.5805C40.1139 13.5805 41.3892 12.2231 41.3892 10.4831C41.3892 8.74315 40.065 7.38575 38.3839 7.38575L38.3846 7.38642ZM35.3396 1.83508V6.04899C36.2687 5.28446 37.287 4.98304 38.5425 5.01298C39.9064 5.01298 41.152 5.45546 42.1108 6.40098C43.2672 7.43699 43.8805 8.96539 43.8805 10.4938C43.8805 12.1533 43.1886 13.7116 41.943 14.7982C41.0139 15.562 39.8767 16.0052 38.5524 16.0052C37.3366 16.0052 36.2984 15.6532 35.3396 14.8893V15.7444H32.9673V1.83508H35.3396V1.83508Z" fill="#263237"/>
<path fill-rule="evenodd" clip-rule="evenodd" d="M47.8254 5.25452H45.5318V15.743H47.8254V5.25452ZM47.8254 1.83508H45.5318V4.16794H47.8254V1.83508Z" fill="#263237"/>
<path fill-rule="evenodd" clip-rule="evenodd" d="M54.8041 7.34588C53.1732 7.34588 51.8483 8.64339 51.8483 10.3528C51.8483 12.2032 53.2129 13.5001 54.8438 13.5001C56.3464 13.5001 57.7103 12.1121 57.7103 10.4932C57.7103 8.69263 56.3068 7.34522 54.8041 7.34522V7.34588ZM60.2709 15.7431H57.9673V14.4456C57.3938 15.5315 56.3457 15.974 54.7545 15.974C51.7195 15.974 49.4265 13.6105 49.4265 10.4632C49.4265 8.98473 49.9208 7.63732 50.8796 6.60131C51.9276 5.48546 53.1633 4.98242 54.7056 4.98242C56.2479 4.98242 57.2762 5.47547 57.9779 6.51082V5.2539H60.2716V15.7431H60.2709Z" fill="#263237"/>
<path d="M26.2959 0H19.9575L13.1354 6.93402L6.31791 0H0L9.94966 10.1552L0.0885472 20.2298H6.34764L13.1182 13.373L19.8696 20.2298H26.2067L16.2953 10.1485L26.2959 0Z" fill="#263237"/>
<path d="M28.9578 21.9393V18.5419H31.3467V19.1636H29.6767V19.9022H31.3117V20.5239H29.6767V21.9399H28.9578V21.9393Z" fill="#263237"/>
<path d="M31.8484 18.5422H32.5771V20.5594C32.5771 21.0329 32.8352 21.3591 33.3613 21.3591C33.8874 21.3591 34.1356 21.0329 34.1356 20.5594V18.5422H34.8644V20.5793C34.8644 21.4248 34.3838 22 33.3613 22C32.3388 22 31.8477 21.4195 31.8477 20.5839V18.5415L31.8484 18.5422Z" fill="#263237"/>
<path d="M37.8618 21.9395L36.2525 19.658V21.9395H35.5336V18.5421H36.2729L37.8367 20.742V18.5421H38.5556V21.9395H37.8618V21.9395Z" fill="#263237"/>
<path d="M39.0619 20.2431C39.0619 19.199 39.8467 18.4863 40.8336 18.4863C41.6026 18.4863 42.033 18.8935 42.2713 19.3166L41.6534 19.6221C41.5115 19.3471 41.2079 19.1279 40.8336 19.1279C40.2461 19.1279 39.8012 19.6015 39.8012 20.2431C39.8012 20.8848 40.2468 21.3583 40.8336 21.3583C41.2079 21.3583 41.5115 21.1445 41.6534 20.8642L42.2713 21.1651C42.0284 21.5875 41.6033 22 40.8336 22C39.8467 22 39.0619 21.2873 39.0619 20.2431V20.2431Z" fill="#263237"/>
<path d="M43.4813 21.9395V19.1791H42.4944V18.5428H45.187V19.1791H44.2048V21.9395H43.4813V21.9395Z" fill="#263237"/>
<path d="M45.6484 21.9395V18.5421H46.3672V21.9395H45.6484Z" fill="#263237"/>
<path d="M48.6347 18.4863C49.6572 18.4863 50.4011 19.2196 50.4011 20.2431C50.4011 21.2667 49.6572 22 48.6347 22C47.6122 22 46.8729 21.2667 46.8729 20.2431C46.8729 19.2196 47.6168 18.4863 48.6347 18.4863ZM48.6347 19.1279C48.0122 19.1279 47.6122 19.6068 47.6122 20.2431C47.6122 20.8795 48.0122 21.3583 48.6347 21.3583C49.2571 21.3583 49.6618 20.8741 49.6618 20.2431C49.6618 19.6122 49.2571 19.1279 48.6347 19.1279Z" fill="#263237"/>
<path d="M53.2362 21.9395L51.6269 19.658V21.9395H50.908V18.5421H51.6473L53.2111 20.742V18.5421H53.93V21.9395H53.2368H53.2362Z" fill="#263237"/>
<path d="M56.9268 21.9395L55.9954 19.2654L55.0594 21.9395H54.2396L55.5452 18.5421H56.4463L57.7473 21.9395H56.9275H56.9268Z" fill="#263237"/>
<path d="M58.0609 21.9395V18.5421H58.7797V21.3025H60.2068V21.9389H58.0609V21.9395Z" fill="#263237"/>
</svg>
