<?xml version="1.0" encoding="UTF-8"?>
<svg width="48px" height="48px" viewBox="0 0 48 48" version="1.1" xmlns="http://www.w3.org/2000/svg" xmlns:xlink="http://www.w3.org/1999/xlink">
    <title>47deg-footer-brand-white</title>
    <g id="Page-1" stroke="none" stroke-width="1" fill="none" fill-rule="evenodd">
        <g id="47deg-logo-copy" fill="#FFFFFF" fill-rule="nonzero">
            <path d="M24,48 C10.745166,48 0,37.254834 0,24 C0,10.745166 10.745166,0 24,0 C37.254834,0 48,10.745166 48,24 C48,37.254834 37.254834,48 24,48 Z M20.9006848,15.6381977 L10.9324144,29.44629 L19.6233851,29.44629 L19.6233851,32.4776147 L20.9121636,32.4776147 L20.9121636,29.4462902 L23.1130209,29.4462902 L23.1130209,28.2542957 L20.9006848,28.2542957 L20.9006848,15.6381977 Z M25.0418661,16.2785456 L25.0463867,17.4343078 L34.6727629,17.4343079 L24.3435405,32.1002651 L25.3114704,32.7943551 L36.9487642,16.2785456 L25.0418661,16.2785456 Z M19.6258854,19.3243749 L19.6081251,28.2578124 L13.2008505,28.2578124 L19.6258854,19.3243749 Z" id="Shape"></path>
        </g>
    </g>
</svg>