<?xml version="1.0" encoding="UTF-8"?>
<svg width="120px" height="120px" viewBox="0 0 120 120" version="1.1" xmlns="http://www.w3.org/2000/svg" xmlns:xlink="http://www.w3.org/1999/xlink">
    <title>logos/arrow-meta/white copy</title>
    <g id="logos/arrow-meta/white-copy" stroke="none" stroke-width="1" fill="none" fill-rule="evenodd">
        <g id="Group" transform="translate(12.000000, 0.000000)" stroke-width="2">
            <polyline id="lines" stroke="#F5F7F8" transform="translate(48.000000, 48.000000) scale(-1, 1) translate(-48.000000, -48.000000) " points="67.0055399 81.8898621 96 96 48 0 0 96 29.0176392 81.8898621"></polyline>
            <path d="M66.9823608,60 L66.9823608,60 L66.9823608,60 L66.9823608,77.4672751 C66.9823608,84.0600014 63.7333733,90.2292351 58.2971063,93.9589862 L48,101.023695 L48,101.023695 L37.6903151,93.9569229 C32.2510595,90.2285859 28.9992202,84.0586599 28.9979155,77.4642687 L28.9944601,60 L28.9944601,60 C41.5246664,57.4101129 54.4521546,57.4101129 66.9823608,60 Z" id="path-copy" stroke="#FFFFFF"></path>
            <path d="M62.3554917,64.518457 L62.3554917,64.518457 L62.3554917,64.518457 L62.3554917,75.1649805 C62.3554917,81.7577068 59.1065042,87.9269405 53.6702372,91.6566916 L47.9971768,95.5489035 L47.9971768,95.5489035 L42.3158347,91.6546283 C36.8765791,87.9262913 33.6247398,81.7563653 33.6234351,75.1619741 L33.6213292,64.518457 L33.6213292,64.518457 C43.099215,62.5594586 52.877606,62.5594586 62.3554917,64.518457 Z" id="path-copy-2" stroke="#FFFFFF"></path>
            <polygon id="Path" stroke="#FFFFFF" fill-rule="nonzero" points="55.3539485 70.0472644 59.0247212 73.4421765 46.5852827 86.8924074 38.5384023 78.6867971 42.1082957 75.1859599 46.479 79.642"></polygon>
        </g>
    </g>
</svg>