<?xml version="1.0" encoding="UTF-8"?>
<svg width="120px" height="120px" viewBox="0 0 120 120" version="1.1" xmlns="http://www.w3.org/2000/svg" xmlns:xlink="http://www.w3.org/1999/xlink">
    <title>logos/arrow-analysis/color copy</title>
    <defs>
        <linearGradient x1="50%" y1="4.44118049%" x2="50%" y2="100%" id="linearGradient-1">
            <stop stop-color="#D9D9D9" offset="0%"></stop>
            <stop stop-color="#FFFFFF" stop-opacity="0.0899530157" offset="100%"></stop>
        </linearGradient>
    </defs>
    <g id="logos/arrow-analysis/color-copy" stroke="none" stroke-width="1" fill="none" fill-rule="evenodd">
        <g id="Group" transform="translate(11.000000, 0.000000)">
            <polyline id="Path" stroke="#263238" stroke-width="2" points="67.9823608 81.5218933 97 96 49 0 1 96 30.2580566 81.3709717"></polyline>
            <polygon id="shadow" fill="#263238" opacity="0.1" points="68 81.3299713 98 97 63.3554917 90.4427567"></polygon>
            <polygon id="shadow" fill="#263238" opacity="0.1" transform="translate(17.310665, 89.164986) scale(-1, 1) translate(-17.310665, -89.164986) " points="4.6268691 81.3299713 34.6213292 97 0 90.330719"></polygon>
            <polygon id="Path" fill="#263238" opacity="0.1" transform="translate(73.000000, 48.000000) scale(-1, 1) translate(-73.000000, -48.000000) " points="97 0 49 96 78.0176392 81.5218933 78 60 97 57.7311935"></polygon>
            <path d="M67.9823608,60 L67.9823608,60 L67.9823608,60 L67.9823608,77.4672751 C67.9823608,84.0600014 64.7333733,90.2292351 59.2971063,93.9589862 L49,101.023695 L49,101.023695 L38.6903151,93.9569229 C33.2510595,90.2285859 29.9992202,84.0586599 29.9979155,77.4642687 L29.9944601,60 L29.9944601,60 C42.5246664,57.4101129 55.4521546,57.4101129 67.9823608,60 Z" id="Mask" stroke="#263238" stroke-width="2" fill-opacity="0.7" fill="url(#linearGradient-1)"></path>
            <polygon id="Rectangle" fill="#263138" opacity="0.0977652414" points="49 63 63.3554917 64.518457 63.3554917 85.697853 49 95.5489035 48.9884105 85.697853 60.0247212 73.4421765 56.3539485 70.0472644 49 78.4698359"></polygon>
            <path d="M63.3554917,64.518457 L63.3554917,64.518457 L63.3554917,64.518457 L63.3554917,75.1649805 C63.3554917,81.7577068 60.1065042,87.9269405 54.6702372,91.6566916 L48.9971768,95.5489035 L48.9971768,95.5489035 L43.3158347,91.6546283 C37.8765791,87.9262913 34.6247398,81.7563653 34.6234351,75.1619741 L34.6213292,64.518457 L34.6213292,64.518457 C44.099215,62.5594586 53.877606,62.5594586 63.3554917,64.518457 Z" id="path-copy-2" stroke="#263238" stroke-width="2"></path>
            <polygon id="Path" stroke="#263238" stroke-width="2" fill-rule="nonzero" points="56.3539485 70.0472644 60.0247212 73.4421765 47.5852827 86.8924074 39.5384023 78.6867971 43.1082957 75.1859599 47.479 79.642"></polygon>
        </g>
    </g>
</svg>