<?xml version="1.0" encoding="UTF-8"?>
<svg width="102px" height="110px" viewBox="0 0 102 110" version="1.1" xmlns="http://www.w3.org/2000/svg" xmlns:xlink="http://www.w3.org/1999/xlink">
    <!-- Generator: sketchtool 55.2 (78181) - https://sketchapp.com -->
    <title>8644C3B3-70A0-400D-9114-6FA311E6E11D</title>
    <desc>Created with sketchtool.</desc>
    <g id="Arrow-Website" stroke="none" stroke-width="1" fill="none" fill-rule="evenodd">
        <g id="Arrow-Incubator-Hover" transform="translate(-272.000000, -790.000000)" stroke="#F5F7F8" stroke-width="2">
            <g id="Group-10">
                <g id="features" transform="translate(160.000000, 792.000000)">
                    <g id="feature/core/unactive" transform="translate(0.000000, 1.000000)">
                        <g id="core">
                            <g id="logos/arrow-core/black" transform="translate(103.000000, 0.000000)">
                                <polyline id="lines6" transform="translate(60.000000, 48.000000) scale(-1, 1) translate(-60.000000, -48.000000) " points="83.0613281 83.5306641 108 96 60 0 60 0 12 96 36.9422852 83.5288574"></polyline>
                                <polygon id="lines5" points="59.9965612 49 83 63 82.9931224 91 59.9965612 105 37 91 37 63"></polygon>
                                <polygon id="lines4" points="59.9985049 65 70 71 69.9970097 83 59.9985049 89 50 83 50 71"></polygon>
                                <polygon id="lines3" points="59.9985049 65 70 71 69.9970097 83 59.9985049 89 50 83 50 71"></polygon>
                                <polyline id="lines2" points="37 63 60 77 83 63"></polyline>
                                <path d="M60,104.924316 L60,76.5" id="lines1"></path>
                            </g>
                        </g>
                    </g>
                </g>
            </g>
        </g>
    </g>
</svg>
