<svg width="97" height="36" viewBox="0 0 97 36" fill="none" xmlns="http://www.w3.org/2000/svg">
<path fill-rule="evenodd" clip-rule="evenodd" d="M37.3714 15.7608H46.3716C45.7563 13.5476 44.1484 12.3296 41.7219 12.3296C39.7674 12.3296 37.9236 13.693 37.3714 15.7608ZM50.5335 18.9033H37.3251C37.5137 21.2608 39.2638 22.7673 41.959 22.6708C43.6301 22.6708 45.0957 21.9652 45.8838 20.6019H50.0288C48.6422 24.258 45.7415 26.3268 42.0844 26.3268C39.6252 26.3268 37.5917 25.477 35.89 23.7455C34.3454 22.0936 33.4308 19.8009 33.4308 17.5877C33.4308 15.2473 34.219 13.1784 35.7478 11.5265C37.4189 9.74623 39.5936 8.75211 41.8484 8.75211C44.6542 8.75211 47.2546 10.195 49.0047 12.5524C50.0288 14.0601 50.5335 15.8393 50.5335 18.0524V18.9023V18.9033Z" fill="white"/>
<path fill-rule="evenodd" clip-rule="evenodd" d="M61.2036 12.6989C58.5242 12.6989 56.4907 14.8473 56.4907 17.7172C56.4907 20.5871 58.6191 22.5912 60.9982 22.5753C63.961 22.5753 65.9945 20.4109 65.9945 17.6365C65.9945 14.8621 63.883 12.6978 61.2026 12.6978L61.2036 12.6989ZM56.3485 3.84733V10.5663C57.8299 9.34731 59.4535 8.8667 61.4555 8.91444C63.6302 8.91444 65.6163 9.61998 67.1451 11.1276C68.989 12.7795 69.9667 15.2165 69.9667 17.6535C69.9667 20.2995 68.8636 22.7843 66.8775 24.5168C65.3961 25.7348 63.5827 26.4414 61.4713 26.4414C59.5326 26.4414 57.8773 25.8802 56.3485 24.6622V26.0255H52.5659V3.84733H56.3485V3.84733Z" fill="white"/>
<path fill-rule="evenodd" clip-rule="evenodd" d="M76.257 9.29957H72.5999V26.0234H76.257V9.29957ZM76.257 3.84733H72.5999V7.56703H76.257V3.84733Z" fill="white"/>
<path fill-rule="evenodd" clip-rule="evenodd" d="M87.3844 12.6342C84.7841 12.6342 82.6715 14.703 82.6715 17.4286C82.6715 20.3791 84.8473 22.4469 87.4477 22.4469C89.8436 22.4469 92.0183 20.2338 92.0183 17.6525C92.0183 14.7815 89.7804 12.6331 87.3844 12.6331V12.6342ZM96.1012 26.0234H92.4282V23.9545C91.5136 25.686 89.8426 26.3916 87.3054 26.3916C82.4661 26.3916 78.8099 22.623 78.8099 17.6047C78.8099 15.2473 79.5981 13.0989 81.1269 11.447C82.7979 9.66774 84.7683 8.86566 87.2274 8.86566C89.6866 8.86566 91.3261 9.65183 92.4451 11.3027V9.29853H96.1022V26.0234H96.1012Z" fill="white"/>
<path d="M41.9284 0.921265H31.8219L20.9442 11.9775L10.0738 0.921265H0L15.8646 17.1135L0.141187 33.1774H10.1212L20.9168 22.2443L31.6818 33.1774H41.7862L25.9827 17.1029L41.9284 0.921265Z" fill="white"/>
<path d="M46.1729 35.9036V30.4865H49.9819V31.4778H47.319V32.6554H49.9261V33.6467H47.319V35.9047H46.1729V35.9036Z" fill="white"/>
<path d="M50.7818 30.4865H51.9438V33.7029C51.9438 34.458 52.3553 34.978 53.1942 34.978C54.033 34.978 54.4288 34.458 54.4288 33.7029V30.4865H55.5908V33.7346C55.5908 35.0828 54.8245 36 53.1942 36C51.5638 36 50.7808 35.0744 50.7808 33.7421V30.4854L50.7818 30.4865Z" fill="white"/>
<path d="M60.3702 35.9036L57.8042 32.2657V35.9036H56.658V30.4865H57.8368L60.3302 33.9941V30.4865H61.4764V35.9036H60.3702V35.9036Z" fill="white"/>
<path d="M62.2837 33.1988C62.2837 31.5339 63.5351 30.3975 65.1086 30.3975C66.3348 30.3975 67.0211 31.0467 67.401 31.7214L66.4159 32.2085C66.1896 31.7701 65.7054 31.4206 65.1086 31.4206C64.1719 31.4206 63.4625 32.1757 63.4625 33.1988C63.4625 34.2218 64.173 34.9769 65.1086 34.9769C65.7054 34.9769 66.1896 34.6359 66.4159 34.189L67.401 34.6687C67.0137 35.3423 66.3359 36 65.1086 36C63.5351 36 62.2837 34.8636 62.2837 33.1988V33.1988Z" fill="white"/>
<path d="M69.3303 35.9036V31.5021H67.7568V30.4875H72.05V31.5021H70.4838V35.9036H69.3303V35.9036Z" fill="white"/>
<path d="M72.7857 35.9036V30.4865H73.9319V35.9036H72.7857Z" fill="white"/>
<path d="M77.5473 30.3975C79.1777 30.3975 80.3639 31.5667 80.3639 33.1988C80.3639 34.8308 79.1777 36 77.5473 36C75.917 36 74.7382 34.8308 74.7382 33.1988C74.7382 31.5667 75.9243 30.3975 77.5473 30.3975ZM77.5473 31.4206C76.5548 31.4206 75.917 32.1842 75.917 33.1988C75.917 34.2134 76.5548 34.9769 77.5473 34.9769C78.5398 34.9769 79.185 34.2049 79.185 33.1988C79.185 32.1927 78.5398 31.4206 77.5473 31.4206Z" fill="white"/>
<path d="M84.8844 35.9036L82.3183 32.2657V35.9036H81.1721V30.4865H82.3509L84.8444 33.9941V30.4865H85.9905V35.9036H84.8854H84.8844Z" fill="white"/>
<path d="M90.769 35.9036L89.2839 31.6398L87.7915 35.9036H86.4843L88.5661 30.4865H90.0028L92.0773 35.9036H90.7701H90.769Z" fill="white"/>
<path d="M92.5773 35.9036V30.4865H93.7235V34.888H95.999V35.9025H92.5773V35.9036Z" fill="white"/>
</svg>
