<?xml version="1.0" encoding="UTF-8"?>
<svg width="1360px" height="733px" viewBox="0 0 1360 733" version="1.1" xmlns="http://www.w3.org/2000/svg" xmlns:xlink="http://www.w3.org/1999/xlink">
    <!-- Generator: sketchtool 55.2 (78181) - https://sketchapp.com -->
    <title>248DC79D-1D3E-41F4-901F-93A9605C32BA</title>
    <desc>Created with sketchtool.</desc>
    <g id="Arrow-Website" stroke="none" stroke-width="1" fill="none" fill-rule="evenodd" opacity="0.2" stroke-linecap="round" stroke-linejoin="round">
        <g id="Arrow-Core-Hover" transform="translate(0.000000, -40.000000)" stroke="#F5F7F8">
            <g id="background">
                <g id="lines-header-bg" transform="translate(-455.000000, 40.000000)">
                    <g id="Group-249">
                        <path d="M970.6591,589.7244 L970.6591,678.3303" id="Stroke-1" stroke-dasharray="70,40,40,10,5,10"></path>
                        <path d="M1400.3164,518.4811 L1400.3164,700.7511" id="Stroke-3" stroke-dasharray="70,40,40,10,5,10"></path>
                        <path d="M1400.3164,152.8298 L1400.3164,213.8888" id="Stroke-5" stroke-dasharray="70,40,40,10,5,10"></path>
                        <path d="M929.0536,289.3288 L1164.9056,408.1198" id="Stroke-7" stroke-dasharray="100,20,40,10,5,10"></path>
                        <path d="M850.5829,555.8532 L1036.4639,652.4972" id="Stroke-9" stroke-dasharray="70,40,40,10,5,10"></path>
                        <path d="M1577.418,346.3298 L1400.908,437.3368" id="Stroke-11" stroke-dasharray="100,20,40,10,5,10"></path>
                        <path d="M1758.21,198.8845 L1641.889,259.3035" id="Stroke-13" stroke-dasharray="100,20,40,10,5,10"></path>
                        <path d="M614.704,0.5017 L603.935,6.0907" id="Stroke-15" stroke-dasharray="100,20,40,10,5,10"></path>
                        <path d="M340.0087,213.8884 L543.0937,323.0524" id="Stroke-17" stroke-dasharray="100,20,40,10,5,10"></path>
                        <path d="M1203.9443,410.8298 L824.7543,615.2198" id="Stroke-19" stroke-dasharray="70,40,40,10,5,10"></path>
                        <path d="M1096.3496,313.4021 L1018.6166,354.4041" id="Stroke-21" stroke-dasharray="100,20,40,10,5,10"></path>
                        <path d="M850.5829,555.8532 L1036.4639,652.4972" id="Stroke-23" stroke-dasharray="70,40,40,10,5,10"></path>
                        <path d="M791.1308,331.6169 L1076.0638,479.7599" id="Stroke-25" stroke-dasharray="100,20,40,10,5,10"></path>
                        <path d="M1148.5869,524.6598 L905.3119,652.4968" id="Stroke-27" stroke-dasharray="70,40,40,10,5,10"></path>
                        <path d="M1194.0869,576.4538 L1313.8479,638.9278" id="Stroke-29" stroke-dasharray="70,40,40,10,5,10"></path>
                        <path d="M1655.6357,552.0339 L1510.5087,627.4149" id="Stroke-31" stroke-dasharray="70,40,40,10,5,10"></path>
                        <path d="M1282.5,580.0944 L1466.75,676.0365" id="Stroke-33" stroke-dasharray="70,40,40,10,5,10"></path>
                        <path d="M1740.3389,699.572 L1886.0069,775.308" id="Stroke-35" stroke-dasharray="70,40,40,10,5,10"></path>
                        <path d="M1625.0371,631.2741 L1655.6361,647.1831" id="Stroke-39" stroke-dasharray="70,40,40,10,5,10"></path>
                        <path d="M1446.8799,617.5602 L1335.5979,676.0372" id="Stroke-41" stroke-dasharray="70,40,40,10,5,10"></path>
                        <path d="M708.3066,0.5017 L777.7906,36.6277" id="Stroke-47" stroke-dasharray="100,20,40,10,5,10"></path>
                        <path d="M806.3056,1.322 L849.5826,23.924" id="Stroke-49" stroke-dasharray="100,20,40,10,5,10"></path>
                        <path d="M806.3056,1.322 L738.7056,37.734" id="Stroke-51" stroke-dasharray="100,20,40,10,5,10"></path>
                        <path d="M439.3818,66.3122 L718.0348,211.1902" id="Stroke-53" stroke-dasharray="100,20,40,10,5,10"></path>
                        <path d="M709.6308,192.8435 L558.7708,272.1175" id="Stroke-57" stroke-dasharray="100,20,40,10,5,10"></path>
                        <path d="M781.5439,152.823 L724.5049,183.299" id="Stroke-59" stroke-dasharray="100,20,40,10,5,10"></path>
                        <path d="M589.7343,13.1911 L497.2823,62.5871" id="Stroke-61" stroke-dasharray="100,20,40,10,5,10"></path>
                        <path d="M487.3701,67.6589 L283.8521,174.6029" id="Stroke-63" stroke-dasharray="100,20,40,10,5,10"></path>
                        <path d="M850.5829,555.8532 L345.5669,289.3292" id="Stroke-67" stroke-dasharray="70,40,40,10,5,10"></path>
                        <path d="M563.041,74.8933 L419.571,0.5013" id="Stroke-69" stroke-dasharray="100,20,40,10,5,10"></path>
                        <path d="M1110.0186,267.3767 L866.0916,144.5537" id="Stroke-71" stroke-dasharray="100,20,40,10,5,10"></path>
                        <path d="M1638.9688,0.5017 L1877.4508,124.4937" id="Stroke-73" stroke-dasharray="100,20,40,10,5,10"></path>
                        <path d="M2057.4326,0.5007 L1792.2546,139.8467" id="Stroke-75" stroke-dasharray="100,20,40,10,5,10"></path>
                        <path d="M1750.9609,212.7634 L1750.9609,0.5014" id="Stroke-79" stroke-dasharray="100,20,40,10,5,10"></path>
                        <path d="M696.2451,216.1316 L696.2451,155.7716" id="Stroke-83" stroke-dasharray="100,20,40,10,5,10"></path>
                        <path d="M806.3056,99.3122 L806.3056,1.3222" id="Stroke-85" stroke-dasharray="100,20,40,10,5,10"></path>
                        <path d="M524.8095,692.8845 L563.0405,712.7625" id="Stroke-89" stroke-dasharray="70,40,40,10,5,10"></path>
                        <path d="M447.7724,443.2634 L539.1904,490.7924" id="Stroke-91" stroke-dasharray="100,20,40,10,5,10"></path>
                        <path d="M520.0302,472.1579 L489.2932,488.3089" id="Stroke-97" stroke-dasharray="70,40,40,10,5,10"></path>
                        <path d="M863.2372,289.3288 L558.7702,449.3208" id="Stroke-99" stroke-dasharray="70,40,40,10,5,10"></path>
                        <path d="M462.8359,141.5134 L599.3109,212.4694" id="Stroke-101" stroke-dasharray="100,20,40,10,5,10"></path>
                        <path d="M492.0263,295.6023 L408.5893,339.4473" id="Stroke-103" stroke-dasharray="100,20,40,10,5,10"></path>
                        <path d="M603.9355,187.2761 L517.9115,232.4801" id="Stroke-105" stroke-dasharray="100,20,40,10,5,10"></path>
                        <path d="M875.7353,410.8298 L491.9323,612.5118" id="Stroke-109" stroke-dasharray="70,40,40,10,5,10"></path>
                        <path d="M673.9462,634.9626 L206.9832,392.8336" id="Stroke-113" stroke-dasharray="70,40,40,10,5,10"></path>
                        <path d="M857.9804,669.2751 L711.6094,593.3791" id="Stroke-115" stroke-dasharray="70,40,40,10,5,10"></path>
                        <path d="M1183.4365,171.5749 L1341.8785,253.9519" id="Stroke-121" stroke-dasharray="100,20,40,10,5,10"></path>
                        <path d="M1556.2881,129.3689 L1640.3371,173.0679" id="Stroke-123" stroke-dasharray="100,20,40,10,5,10"></path>
                        <path d="M1614.8301,139.4421 L1464.3261,218.5301" id="Stroke-125" stroke-dasharray="100,20,40,10,5,10"></path>
                        <path d="M1750.9609,0.5017 L1665.0869,45.6337" id="Stroke-127" stroke-dasharray="100,20,40,10,5,10"></path>
                        <path d="M1313.8477,61.7214 L1176.1617,133.9034" id="Stroke-131" stroke-dasharray="100,20,40,10,5,10"></path>
                        <path d="M1667.3936,118.2614 L1797.5596,185.9384" id="Stroke-133" stroke-dasharray="100,20,40,10,5,10"></path>
                        <path d="M1440.8984,0.5017 L1569.7634,67.5017" id="Stroke-135" stroke-dasharray="100,20,40,10,5,10"></path>
                        <path d="M1532.0361,0.5017 L1722.0851,99.3127" id="Stroke-137" stroke-dasharray="100,20,40,10,5,10"></path>
                        <path d="M1586.3486,289.3288 L1474.2526,348.2328" id="Stroke-139" stroke-dasharray="100,20,40,10,5,10"></path>
                        <path d="M1440.4678,129.9909 L1401.4638,150.8299" id="Stroke-141" stroke-dasharray="100,20,40,10,5,10"></path>
                        <path d="M1391.8057,155.7712 L1129.7027,293.5012" id="Stroke-143" stroke-dasharray="100,20,40,10,5,10"></path>
                        <path d="M1662.5078,570.4763 L1143.9988,306.2703" id="Stroke-145" stroke-dasharray="70,40,40,10,5,10"></path>
                        <path d="M1795.4443,484.9265 L1733.1553,453.1865" id="Stroke-147" stroke-dasharray="100,20,40,10,5,10"></path>
                        <path d="M1816.8906,368.8864 L1107.7196,0.5004" id="Stroke-149" stroke-dasharray="100,20,40,10,5,10"></path>
                        <path d="M1183.4365,263.8913 L1183.4365,118.2613" id="Stroke-153" stroke-dasharray="100,20,40,10,5,10"></path>
                        <path d="M1594.8926,211.1902 L1594.8926,138.7512" id="Stroke-155" stroke-dasharray="100,20,40,10,5,10"></path>
                        <path d="M1429.2793,62.5866 L1429.2793,0.5016" id="Stroke-157" stroke-dasharray="100,20,40,10,5,10"></path>
                        <path d="M1474.2529,49.9069 L1474.2529,0.5019" id="Stroke-159" stroke-dasharray="100,20,40,10,5,10"></path>
                        <path d="M941.2187,141.0036 L729.6907,247.8916" id="Stroke-161" stroke-dasharray="100,20,40,10,5,10"></path>
                        <path d="M1248.0215,0.5017 L1029.9755,110.7077" id="Stroke-163" stroke-dasharray="100,20,40,10,5,10"></path>
                        <path d="M1313.8477,107.5749 L1093.1327,218.5299" id="Stroke-165" stroke-dasharray="100,20,40,10,5,10"></path>
                        <path d="M1104.8994,190.7986 C1104.8994,218.9196 1085.0334,230.2466 1060.5274,216.0976 C1036.0204,201.9486 1016.1544,167.6826 1016.1544,139.5616 C1016.1544,111.4416 1036.0204,100.1136 1060.5274,114.2636 C1085.0334,128.4116 1104.8994,162.6786 1104.8994,190.7986 Z" id="Stroke-167" stroke-dasharray="100,20,40,10,5,10"></path>
                        <path d="M1380.0811,32.7507 C1372.0071,37.3957 1360.8321,36.7027 1348.4851,29.5737 C1337.40349,23.1757278 1327.26604,12.6837393 1319.46759,0.502801802" id="Stroke-169" stroke-dasharray="100,20,40,10,5,10"></path>
                        <path d="M1392.9725,0.712713184 C1393.0363,1.869231 1393.0687,3.01746717 1393.0687,4.1557 C1393.0687,9.4387 1392.3697,14.1307 1391.0757,18.1757" id="Stroke-171" stroke-dasharray="100,20,40,10,5,10"></path>
                        <path d="M1642.7949,346.3298 L1888.1869,473.9138" id="Stroke-181" stroke-dasharray="100,20,40,10,5,10"></path>
                        <path d="M1873.0898,200.2028 L1607.5878,339.7188" id="Stroke-187" stroke-dasharray="100,20,40,10,5,10"></path>
                        <path d="M1588.7783,456.7087 L1866.4983,601.1017" id="Stroke-197" stroke-dasharray="70,40,40,10,5,10"></path>
                        <path d="M1916.8818,421.113 L1719.8908,524.628" id="Stroke-203" stroke-dasharray="100,20,40,10,5,10"></path>
                        <path d="M1750.9609,617.5602 L1687.4189,584.6422" id="Stroke-205" stroke-dasharray="70,40,40,10,5,10"></path>
                        <path d="M1955.9033,374.1286 L1748.2313,266.4466" id="Stroke-209" stroke-dasharray="100,20,40,10,5,10"></path>
                        <path d="M1208.4023,490.8015 L1188.2303,501.4025" id="Stroke-221" stroke-dasharray="70,40,40,10,5,10"></path>
                        <path d="M1683.8936,393.8425 L1683.8936,299.7585" id="Stroke-225" stroke-dasharray="100,20,40,10,5,10"></path>
                        <path d="M1717.9697,239.9694 C1717.9697,251.6484 1709.7187,256.3514 1699.5407,250.4754 C1689.3647,244.6004 1681.1137,230.3684 1681.1137,218.6914 C1681.1137,207.0124 1689.3647,202.3084 1699.5407,208.1844 C1709.7187,214.0604 1717.9697,228.2904 1717.9697,239.9694 Z" id="Stroke-235" stroke-dasharray="100,20,40,10,5,10"></path>
                        <path d="M1814.1846,92.653 C1814.1846,104.332 1805.9346,109.036 1795.7566,103.16 C1785.5806,97.284 1777.3296,83.053 1777.3296,71.375 C1777.3296,59.696 1785.5806,54.992 1795.7566,60.868 C1805.9346,66.744 1814.1846,80.974 1814.1846,92.653 Z" id="Stroke-237" stroke-dasharray="100,20,40,10,5,10"></path>
                        <path d="M866.454,32.5954 L935.891,68.6974" id="Stroke-243" stroke-dasharray="100,20,40,10,5,10"></path>
                        <path d="M1045.8428,0.5017 L1183.4368,72.0397" id="Stroke-245" stroke-dasharray="100,20,40,10,5,10"></path>
                    </g>
                </g>
            </g>
        </g>
    </g>
</svg>
