<?xml version="1.0" encoding="UTF-8"?>
<svg width="396px" height="396px" viewBox="0 0 396 396" version="1.1" xmlns="http://www.w3.org/2000/svg" xmlns:xlink="http://www.w3.org/1999/xlink">
    <!-- Generator: Sketch 56.3 (81716) - https://sketch.com -->
    <title>image</title>
    <desc>Created with Sketch.</desc>
    <g id="Arrow-Website" stroke="none" stroke-width="1" fill="none" fill-rule="evenodd">
        <g id="Arrow-Incubator-Hover" transform="translate(-746.000000, -254.000000)">
            <g id="Group-10">
                <g id="image" transform="translate(747.000000, 255.000000)">
                    <rect id="path" stroke="#FFFFFF" stroke-width="2" x="58" y="58" width="278" height="278"></rect>
                    <rect id="path" stroke="#FFFFFF" stroke-width="2" transform="translate(197.000000, 197.000000) rotate(-315.000000) translate(-197.000000, -197.000000) " x="58" y="58" width="278" height="278"></rect>
                    <circle id="path" stroke="#FFFFFF" stroke-width="2" cx="197" cy="197" r="168"></circle>
                    <g id="path-+-path-Mask" transform="translate(101.000000, 101.000000)" stroke="#FFFFFF" stroke-width="2">
                        <path d="M38.8709242,150.564538 L96,122 L153.129076,150.564538 C138.744443,165.620948 118.467519,175 96,175 C73.5324809,175 53.2555568,165.620948 38.8709226,150.56454 Z M22.4958665,125.008267 C18.9488247,116.027756 17,106.241464 17,96 C17,59.6033093 41.6134499,28.9553978 75.1033846,19.7932308 L22.4958665,125.008267 Z M116.896615,19.7932308 C150.38655,28.9553978 175,59.6033093 175,96 C175,106.241464 173.051175,116.027756 169.504134,125.008267 L116.896615,19.7932308 Z" id="Combined-Shape"></path>
                        <path d="M23.0907709,158.454615 L96,122 L168.909229,158.454615 C151.302522,178.989414 125.170654,192 96,192 C66.8293464,192 40.6974781,178.989414 23.09077,158.454616 Z M12.9273325,144.145335 C4.70707671,129.992218 0,113.545808 0,96 C0,46.8142414 36.9899122,6.26793968 84.6691686,0.661662846 L12.9273325,144.145335 Z M107.330831,0.661662846 C155.010088,6.26793968 192,46.8142414 192,96 C192,113.545808 187.292923,129.992218 179.072668,144.145335 L107.330831,0.661662846 Z" id="Combined-Shape"></path>
                    </g>
                    <path d="M101.416324,205.999996 C105.953523,254.799131 147.015616,293 197,293 C246.984384,293 288.046477,254.799131 292.583676,205.999996 C292.859166,208.962987 293,211.965047 293,215 C293,268.019336 250.019336,311 197,311 C143.980664,311 101,268.019336 101,215 C101,211.965047 101.140834,208.962987 101.416324,206 Z" id="Combined-Shape" fill="#263238" opacity="0.099549"></path>
                    <path d="M119.22444,202.5 C119.075714,200.51961 119,198.518704 119,196.5 C119,153.145647 153.92179,118 197,118 C240.07821,118 275,153.145647 275,196.5 C275,198.518704 274.924286,200.51961 274.77556,202.5 C271.730199,161.948883 238.072366,130 197,130 C155.927634,130 122.269801,161.948883 119.22444,202.500003 Z" id="Combined-Shape-Copy" fill="#263238" opacity="0.099549"></path>
                    <polyline id="path" stroke="#FFFFFF" stroke-width="2" points="226.327375 237.408836 197 255 168.33229 237.799374"></polyline>
                    <path d="M197,79 L293,271 L197,223 L101,271 L197,79 Z" id="path" stroke="#FFFFFF" stroke-width="2"></path>
                    <polygon id="Path-18" fill-opacity="0.1" fill="#263238" points="155.637695 244.394531 101 271 168.33229 252.092773 197.5 269.268555 225.501884 252.778312 293 271 239.738281 244.394531 225.194824 237.408836 197.687988 255 168.33229 237.408836"></polygon>
                </g>
            </g>
        </g>
    </g>
</svg>