<?xml version="1.0" encoding="UTF-8"?>
<svg width="102px" height="102px" viewBox="0 0 102 102" version="1.1" xmlns="http://www.w3.org/2000/svg" xmlns:xlink="http://www.w3.org/1999/xlink">
    <!-- Generator: sketchtool 55.2 (78181) - https://sketchapp.com -->
    <title>56C12F71-383E-4195-B296-01D7ACA4A9D5</title>
    <desc>Created with sketchtool.</desc>
    <g id="Arrow-Website" stroke="none" stroke-width="1" fill="none" fill-rule="evenodd">
        <g id="Arrow-Incubator-Hover" transform="translate(-986.000000, -791.000000)" stroke="#F5F7F8" stroke-width="2">
            <g id="Group-10">
                <g id="features" transform="translate(160.000000, 792.000000)">
                    <g id="feature/optics/unactive" transform="translate(714.000000, 2.000000)">
                        <g id="optics">
                            <g id="logos/arrow-optics/white" transform="translate(103.000000, 0.000000)">
                                <polyline id="lines" transform="translate(60.000000, 48.160001) scale(-1, 1) translate(-60.000000, -48.160001) " points="79.5509766 82.0480743 108 96.3200012 60 0 60 0 12 96.3200012 40.1658203 82.1901479"></polyline>
                                <ellipse id="lines" cx="60" cy="68.2266675" rx="24" ry="24.0800003"></ellipse>
                                <path d="M75.0811897,75.250001 C76.1750066,73.0316373 76.7890625,70.5374326 76.7890625,67.9007754 C76.7890625,58.6606237 69.2475451,51.1700006 59.9446119,51.1700006 C58.5188936,51.1700006 57.1345456,51.345933 55.8123735,51.6771326 M43.1189844,65.3677451 C42.9027505,66.4912249 42.7890625,67.6557226 42.7890625,68.8491141 C42.7890625,73.7604917 44.7146156,78.1824921 47.7890625,81.270001 M53.7890625,84.3468015 C55.6860227,84.9519452 57.7441839,85.2833344 59.8947433,85.2833344 L59.8947433,85.2833344 C64.5126205,85.2833344 68.7044628,83.7553452 71.7890625,81.270001" id="lines"></path>
                                <path d="M51,68.2266675 C51,73.2137989 55.0294373,77.2566676 60,77.2566676 L60,77.2566676 C64.9705627,77.2566676 69,73.2137989 69,68.2266675 C69,63.2395362 64.9705627,59.1966674 60,59.1966674 C59.7398467,59.1966674 59.4822715,59.2077422 59.2277172,59.2294476" id="lines"></path>
                                <ellipse id="lines" cx="48.7890625" cy="58.1933341" rx="4" ry="4.01333338"></ellipse>
                            </g>
                        </g>
                    </g>
                </g>
            </g>
        </g>
    </g>
</svg>
