<?xml version="1.0" encoding="UTF-8"?>
<svg width="635px" height="221px" viewBox="0 0 635 221" version="1.1" xmlns="http://www.w3.org/2000/svg" xmlns:xlink="http://www.w3.org/1999/xlink">
    <!-- Generator: sketchtool 55.2 (78181) - https://sketchapp.com -->
    <title>3D4E6B25-93F9-4441-8F96-782EAF8A77D1</title>
    <desc>Created with sketchtool.</desc>
    <g id="Arrow-Website" stroke="none" stroke-width="1" fill="none" fill-rule="evenodd">
        <g id="Arrow-Home" transform="translate(-525.000000, -1226.000000)">
            <g id="incober" transform="translate(249.000000, 1227.000000)">
                <g id="ilustration/home" transform="translate(270.000000, 0.000000)">
                    <g id="ilustration" transform="translate(6.000000, 0.000000)">
                        <g transform="translate(42.389930, 66.888889)" stroke="#263238" stroke-width="2">
                            <polygon id="Stroke-1" points="90.4392 108.140668 90.4392 55.853742 45.2196 29.7107296 3.55271368e-13 55.853742 3.55271368e-13 108.140668 45.2196 134.28368"></polygon>
                            <path d="M17.76996,117.611111 L1.56996,150.95679" id="Stroke-2"></path>
                            <path d="M72.66996,117.611111 L88.86996,150.95679" id="Stroke-3"></path>
                            <polygon id="Stroke-4" points="79.50123 101.817065 79.50123 83.8149049 10.93833 83.8149049 10.93833 101.817065 45.22023 121.637016"></polygon>
                            <polyline id="Stroke-5" points="33.51996 56.7777778 33.51996 2.13162821e-14 56.91996 2.13162821e-14 56.91996 56.7777778"></polyline>
                            <path d="M45.11007,73.907363 L45.11007,98.2343877" id="Stroke-6"></path>
                            <path d="M45.11007,19.8271605 L45.11007,67.5925926" id="Stroke-7"></path>
                        </g>
                        <path d="M550.1,114.842281 L549.249842,13.3571462 C549.222248,10.0631647 546.544149,7.40740741 543.250052,7.40740741 L94.3445,7.40740741 C90.5645,7.40740741 87.5,10.4761111 87.5,14.2612963 L87.5,77.7037037" id="Stroke-8" stroke="#263238" stroke-width="2"></path>
                        <path d="M70.4,66.8888889 L104.6,66.8888889" id="Stroke-10" stroke="#263238" stroke-width="2"></path>
                        <polygon id="Stroke-28" stroke="#263238" stroke-width="2" points="99.2 34.4444444 95.6 30.8395062 99.2 27.2345679 102.8 30.8395062"></polygon>
                        <polygon id="Stroke-34" stroke="#263238" stroke-width="2" points="72.2 53.3703704 66.8 47.962963 72.2 42.5555556 77.6 47.962963"></polygon>
                        <polygon id="Path-14" fill="#263238" opacity="0.08" points="87.60989 102.360781 87.60989 200.846187 132.82913 175.029557 132.82913 128.011338"></polygon>
                        <path d="M285.049927,114.842281 L285.049927,17.4074074 C285.049927,11.8845599 280.572774,7.40740741 275.049927,7.40740741 L265.124512,7.40740741" id="Stroke-58" stroke="#263238" stroke-width="2"></path>
                        <path d="M217,218.854 L217,156.854 C217,149.122014 223.268014,142.854 231,142.854 L250.932617,142.854 M319.508789,142.854 C347.596029,142.854 368.661458,142.854 382.705078,142.854 M451.580078,142.854 C470.794044,142.854 492.214943,142.854 515.842773,142.854 M584.228516,142.854 C588.199386,142.854 594.456548,142.854 603,142.854 C610.731986,142.854 617,149.122014 617,156.854 L617,218.854" id="Shape" stroke="#263238" stroke-width="2"></path>
                        <g id="core-copy-19" transform="translate(237.000000, 74.854000)">
                            <polyline id="Path" stroke="#263238" stroke-width="2" transform="translate(48.000000, 48.000000) scale(-1, 1) translate(-48.000000, -48.000000) " points="67.7128906 81.8564453 96 96 48 0 48 0 0 96 28.2056641 81.897168"></polyline>
                            <polygon id="Path-Copy-2" fill-opacity="0.1" fill="#000000" transform="translate(69.004272, 48.000000) scale(-1, 1) translate(-69.004272, -48.000000) " points="89.9586182 94 89.9837265 48 96 48 96 43.9882812 89.9860771 43.9882812 90.0085449 0 42.0085449 96 70.214209 81.897168"></polygon>
                            <polygon id="Path-Copy" fill-opacity="0.1" fill="#000000" transform="translate(72.000000, 48.000000) scale(-1, 1) translate(-72.000000, -48.000000) " points="75.9940186 58 90.0008823 49.5983944 90.0008823 43.9882812 87 43.9882812 87 39.9882812 95.9500732 39.9882812 96 0 48 96 76.2056641 81.897168"></polygon>
                            <polyline id="Shape" stroke="#263238" stroke-width="2" points="53.9991177 43.9882812 53.9991177 49.5983944 68.0059814 58 68 82 48 94 28 82 28 58 42.0272073 49.5836756 42.0272073 43.9882812"></polyline>
                            <path d="M62,78.8699449 L62,68.1278792 C57.4157918,71.6463666 52.7499975,71.6463666 48.0026169,68.1278792 C43.2552363,64.6093918 38.5876973,64.6093918 34,68.1278792 L34,78.8699449 L48,87.4890137 L62,78.8699449 Z" id="Path-9" stroke="#263238" stroke-width="2"></path>
                            <rect id="Rectangle" stroke="#263238" stroke-width="2" x="39" y="39.9882812" width="18" height="4"></rect>
                            <path d="M48.0499268,87.4890137 L48.0499268,68.5 C52.1658936,71.6551107 56.815918,71.6551107 62,68.5 C62,71.8995768 62,75.3562251 62,78.8699449 L48.0499268,87.4890137 Z" id="Path-5" fill-opacity="0.1" fill="#000000"></path>
                            <polygon id="Path-2" fill="#000000" opacity="0.0955403646" points="68.0059814 81.7753906 68.0059814 58 83.6108398 89.7919922"></polygon>
                            <polygon id="Path-2-Copy-2" fill="#000000" opacity="0.0955403646" transform="translate(19.802429, 73.895996) scale(-1, 1) translate(-19.802429, -73.895996) " points="11.8024292 81.7753906 11.8024292 58 27.8024292 89.7919922"></polygon>
                        </g>
                        <g id="core-copy-21" transform="translate(370.000000, 74.854000)">
                            <polyline id="Path" stroke="#263238" stroke-width="2" transform="translate(48.000000, 48.000000) scale(-1, 1) translate(-48.000000, -48.000000) " points="67.7128906 81.8564453 96 96 48 0 48 0 0 96 28.2056641 81.897168"></polyline>
                            <polygon id="Path-Copy-2" fill-opacity="0.1" fill="#000000" transform="translate(69.201843, 48.000000) scale(-1, 1) translate(-69.201843, -48.000000) " points="90.156189 94 90.1812973 48 96.1975708 48 96.1975708 43.9882812 90.1836479 43.9882812 90.2061157 0 42.2061157 96 70.4117798 81.897168"></polygon>
                            <polygon id="Path-Copy" fill-opacity="0.1" fill="#000000" transform="translate(72.197571, 48.000000) scale(-1, 1) translate(-72.197571, -48.000000) " points="76.1915894 58 90.1984531 49.5983944 90.1984531 43.9882812 87.1975708 43.9882812 87.1975708 39.9882812 96.147644 39.9882812 96.1975708 0 48.1975708 96 76.4032349 81.897168"></polygon>
                            <polygon id="Path-2" fill="#000000" opacity="0.0955403646" points="68 81.7753906 68 58 83.6048584 89.7919922"></polygon>
                            <path d="M48.2474976,87.4890137 L48.2474976,68.5 C52.3634644,71.6551107 57.0134888,71.6551107 62.1975708,68.5 C62.1975708,71.8995768 62.1975708,75.3562251 62.1975708,78.8699449 L48.2474976,87.4890137 Z" id="Path-5" fill-opacity="0.1" fill="#000000"></path>
                            <polygon id="Path-2-Copy-2" fill="#000000" opacity="0.0955403646" transform="translate(20.000000, 73.895996) scale(-1, 1) translate(-20.000000, -73.895996) " points="12 81.7753906 12 58 28 89.7919922"></polygon>
                            <polyline id="Shape" stroke="#263238" stroke-width="2" points="53.9991177 43.9882812 53.9991177 49.5983944 68.0059814 58 68 82 48 94 28 82 28 58 42.0272073 49.5836756 42.0272073 43.9882812"></polyline>
                            <path d="M62,78.8699449 L62,68.1278792 C57.4157918,71.6463666 52.7499975,71.6463666 48.0026169,68.1278792 C43.2552363,64.6093918 38.5876973,64.6093918 34,68.1278792 L34,78.8699449 L48,87.4890137 L62,78.8699449 Z" id="Path-9" stroke="#263238" stroke-width="2"></path>
                            <rect id="Rectangle" stroke="#263238" stroke-width="2" x="39" y="39.9882812" width="18" height="4"></rect>
                        </g>
                        <polygon id="Path-Copy-2" fill-opacity="0.1" fill="#000000" transform="translate(571.201843, 122.854000) scale(-1, 1) translate(-571.201843, -122.854000) " points="592.156189 168.854 592.181297 122.854 598.197571 122.854 598.197571 118.842281 592.183648 118.842281 592.206116 74.854 544.206116 170.854 572.41178 156.751168"></polygon>
                        <polygon id="Path-Copy" fill-opacity="0.1" fill="#000000" transform="translate(574.197571, 122.854000) scale(-1, 1) translate(-574.197571, -122.854000) " points="578.191589 132.854 592.198453 124.452394 592.198453 118.842281 589.197571 118.842281 589.197571 114.842281 598.147644 114.842281 598.197571 74.854 550.197571 170.854 578.403235 156.751168"></polygon>
                        <polygon id="Path-2" fill="#000000" opacity="0.0955403646" points="570 156.629391 570 132.854 585.604858 164.645992"></polygon>
                        <path d="M550.247498,162.343014 L550.247498,143.354 C554.363464,146.509111 559.013489,146.509111 564.197571,143.354 C564.197571,146.753577 564.197571,150.210225 564.197571,153.723945 L550.247498,162.343014 Z" id="Path-5" fill-opacity="0.1" fill="#000000"></path>
                        <polygon id="Path-2-Copy-2" fill="#000000" opacity="0.0955403646" transform="translate(522.000000, 148.749996) scale(-1, 1) translate(-522.000000, -148.749996) " points="514 156.629391 514 132.854 530 164.645992"></polygon>
                        <polyline id="Path" stroke="#263238" stroke-width="2" transform="translate(550.000000, 122.854000) scale(-1, 1) translate(-550.000000, -122.854000) " points="569.712891 156.710445 598 170.854 550 74.854 550 74.854 502 170.854 530.205664 156.751168"></polyline>
                        <g id="core-copy-22" transform="translate(530.000000, 113.854000)" stroke="#263238" stroke-width="2">
                            <polyline id="Shape" points="25.9991177 4.98828125 25.9991177 10.5983944 40.0059814 19 40 43 20 55 -2.44426701e-12 43 -3.0127012e-12 19 14.0272073 10.5836756 14.0272073 4.98828125"></polyline>
                            <path d="M34,39.8699449 L34,29.1278792 C29.4157918,32.6463666 24.7499975,32.6463666 20.0026169,29.1278792 C15.2552363,25.6093918 10.5876973,25.6093918 6,29.1278792 L6,39.8699449 L20,48.4890137 L34,39.8699449 Z" id="Path-9"></path>
                            <rect id="Rectangle" x="11" y="0.98828125" width="18" height="4"></rect>
                        </g>
                        <path d="M417.925415,114.842281 L417.925415,17.4074074 C417.925415,11.8845599 413.448263,7.40740741 407.925415,7.40740741 L398,7.40740741" id="Stroke-58-Copy" stroke="#263238" stroke-width="2"></path>
                        <path d="M74,25.4320988 L74,27.2345679" id="Stroke-98" stroke="#263238" stroke-width="2"></path>
                        <path d="M98.3,49.7654321 L98.3,51.5679012" id="Stroke-100" stroke="#263238" stroke-width="2"></path>
                        <path d="M173,218.296296 L0.2,218.296296" id="Stroke-158" stroke="#263238" stroke-width="2"></path>
                        <path d="M634.130859,218.516109 L203,218.516109" id="Stroke-158-Copy" stroke="#263238" stroke-width="2"></path>
                        <g id="Group-6" transform="translate(167.000000, 0.854000)">
                            <circle id="Oval" stroke="#263238" stroke-width="2" fill="#F5F7F8" cx="6.5" cy="6.5" r="6.5"></circle>
                            <path d="M6.5,13 C10.0898509,13 13,10.0898509 13,6.5 C7.92626953,6.5 4.12280273,6.55340741 0,6.5 C0,10.0898509 2.91014913,13 6.5,13 Z" id="Oval-Copy-3" fill="#263238" opacity="0.1"></path>
                        </g>
                        <g id="Group" transform="translate(376.000000, 0.854000)">
                            <circle id="Oval-Copy" stroke="#263238" stroke-width="2" fill="#F5F7F8" cx="6.5" cy="6.5" r="6.5"></circle>
                            <path d="M7.27929688,13.7822266 C10.8691477,13.7822266 13.7792969,10.8720774 13.7792969,7.28222656 C8.70556641,7.28222656 4.90209961,7.33563397 0.779296875,7.28222656 C0.779296875,10.8720774 3.689446,13.7822266 7.27929688,13.7822266 Z" id="Oval-Copy-3" fill="#263238" opacity="0.1"></path>
                        </g>
                        <g id="Group-4" transform="translate(509.000000, 0.854000)">
                            <circle id="Oval-Copy-2" stroke="#263238" stroke-width="2" fill="#F5F7F8" cx="6.5" cy="6.5" r="6.5"></circle>
                            <path d="M6.5,13.5 C10.0898509,13.5 13,10.5898509 13,7 C7.92626953,7 4.12280273,7.05340741 0,7 C0,10.5898509 2.91014913,13.5 6.5,13.5 Z" id="Oval-Copy-3" fill="#263238" opacity="0.1"></path>
                        </g>
                        <polygon id="Path-15" fill="#263238" opacity="0.2" points="87.88993 188.525905 53.32826 168.705954 53.32826 150.703794 121.89116 150.703794 121.89116 168.705954"></polygon>
                        <rect id="Rectangle" fill="#263238" opacity="0.08" x="76" y="66.854" width="23" height="6"></rect>
                    </g>
                </g>
            </g>
        </g>
    </g>
</svg>