<?xml version="1.0" encoding="UTF-8"?>
<svg width="54px" height="60px" viewBox="0 0 54 60" version="1.1" xmlns="http://www.w3.org/2000/svg" xmlns:xlink="http://www.w3.org/1999/xlink">
    <title>android-logo</title>
    <g id="Page-1" stroke="none" stroke-width="1" fill="none" fill-rule="evenodd">
        <g id="android-logo">
            <path d="M34.977617,36.4754291 C32.924117,36.4754291 31.259417,38.1349568 31.259417,40.1820131 L31.259417,56.0823487 C31.259417,58.129405 32.924117,59.7887334 34.977617,59.7887334 C37.030817,59.7887334 38.695417,58.129405 38.695417,56.0823487 L38.695417,40.1820131 C38.695417,38.1352557 37.030817,36.4757281 34.977617,36.4757281 L34.977617,36.4754291 Z" id="Path" fill="#A4C639" fill-rule="nonzero"></path>
            <path d="M43.465717,17.3582765 C43.478017,17.4987793 43.488717,17.6408765 43.488717,17.7845681 L43.488717,41.8750223 C43.488717,44.4658544 41.431617,46.552969 38.877917,46.552969 L14.303317,46.552969 C11.749417,46.552969 9.692317,44.4655555 9.692317,41.8750223 L9.692317,17.7845681 C9.692317,17.6408765 9.697517,17.4982811 9.709517,17.3582765 L43.465717,17.3582765 Z" id="Path" fill="#A4C639" fill-rule="nonzero"></path>
            <path d="M18.203217,36.4749309 C16.149817,36.4749309 14.485117,38.1344585 14.485117,40.1815149 L14.485117,56.0818504 C14.485117,58.1289068 16.149817,59.7881355 18.203217,59.7881355 C20.256417,59.7881355 21.921117,58.1289068 21.921117,56.0818504 L21.921117,40.1815149 C21.921117,38.1346578 20.256417,36.4749309 18.203217,36.4749309 L18.203217,36.4749309 Z M49.462717,19.5022898 C47.409517,19.5022898 45.744817,21.1617178 45.744817,23.2088738 L45.744817,39.1092093 C45.744817,41.1562657 47.409517,42.8157933 49.462717,42.8157933 C51.516117,42.8157933 53.180817,41.1562657 53.180817,39.1094086 L53.180817,23.2090731 C53.181117,21.1620167 51.516417,19.5022898 49.462717,19.5022898 Z M3.717877,19.5022898 C1.664697,19.5022898 0,21.1617178 0,23.2088738 L0,39.1092093 C0,41.1562657 1.664697,42.8157933 3.717877,42.8157933 C5.771337,42.8157933 7.436017,41.1562657 7.436017,39.1094086 L7.436017,23.2090731 C7.436017,21.1620167 5.771337,19.5022898 3.717877,19.5022898 Z M43.357117,15.775876 C43.253717,8.3761803 36.775117,2.30911903 28.459017,1.50954836 L24.722317,1.50954836 C16.405617,2.30937811 9.927617,8.37669847 9.824217,15.775876 L43.357117,15.775876 Z" id="Shape" fill="#A4C639" fill-rule="nonzero"></path>
            <path d="M31.5853081,9.14493003 C31.582117,10.1792799 32.440817,11.0202042 33.503517,11.0231 C34.565617,11.0256848 35.429217,10.1896432 35.4324238,9.15534318 L35.4324238,9.14493003 C35.435217,8.11033103 34.576517,7.26963589 33.514217,7.26676864 C32.452117,7.26390616 31.588417,8.09965879 31.5853081,9.13451688 L31.5853081,9.14493003 Z M17.2265086,9.14493003 C17.223417,10.1792799 18.082117,11.0202042 19.144717,11.0231 C20.206817,11.0256848 21.070517,10.1896432 21.0736243,9.15534318 L21.0736243,9.14493003 C21.076517,8.11033103 20.217817,7.26963589 19.155417,7.26676864 C18.093317,7.26390616 17.229617,8.09965879 17.2265086,9.13451688 L17.2265086,9.14493003 Z" id="Shape" fill="#FFFFFF" fill-rule="nonzero"></path>
            <path d="M42.462917,0.106624708 C42.081017,-0.112960275 41.592817,0.0174956971 41.372517,0.398006632 L37.450417,7.17041698 C37.230117,7.55092054 37.361017,8.0373991 37.742817,8.25698209 C38.124717,8.47656508 38.612917,8.34611669 38.833317,7.96560316 L42.755317,1.19319779 C42.975717,0.812684266 42.844817,0.326209691 42.462917,0.106624708 Z M10.717517,0.106636665 C10.335617,0.32623261 10.204717,0.812710175 10.425117,1.19321772 L14.347417,7.96562309 C14.567717,8.34612665 15.055917,8.47656508 15.437817,8.25697213 C15.819717,8.03737917 15.950617,7.55090061 15.730217,7.17039705 L11.807917,0.397986703 C11.587517,0.0174822447 11.099317,-0.112960275 10.717517,0.106636665 Z" id="Shape" fill="#A4C639"></path>
        </g>
    </g>
</svg>