<?xml version="1.0" encoding="UTF-8"?>
<svg width="54px" height="72px" viewBox="0 0 54 72" version="1.1" xmlns="http://www.w3.org/2000/svg" xmlns:xlink="http://www.w3.org/1999/xlink">
    <title>jdk-logo</title>
    <g id="Page-1" stroke="none" stroke-width="1" fill="none" fill-rule="evenodd">
        <g id="jdk-logo" fill-rule="nonzero">
            <path d="M17.0713587,55.3857652 C17.0713587,55.3857652 14.3248587,56.9773333 19.0258587,57.5159274 C24.7211587,58.1633365 27.6318587,58.0704652 33.9080587,56.8868535 C33.9080587,56.8868535 35.5581587,57.9178054 37.8625587,58.8107456 C23.7930587,64.8194833 6.02044872,58.4627769 17.0713587,55.3857652 Z" id="Path" fill="#5382A1"></path>
            <path d="M15.3520587,47.5449106 C15.3520587,47.5449106 12.2715587,49.8170704 16.9761587,50.3019546 C23.0599587,50.9274413 27.8645587,50.9785604 36.1781587,49.3833053 C36.1781587,49.3833053 37.3280587,50.5449946 39.1362587,51.1802467 C22.1253587,56.1369072 3.17821872,51.5711634 15.3520587,47.5449106 Z" id="Path" fill="#5382A1"></path>
            <path d="M29.8457587,34.2437776 C33.3124587,38.2210039 28.9348587,41.8000392 28.9348587,41.8000392 C28.9348587,41.8000392 37.7375587,37.2718625 33.6948587,31.6015274 C29.9191587,26.3136389 27.0236587,23.6862362 42.6985587,14.6273915 C42.6985587,14.6273915 18.0942587,20.7508234 29.8457587,34.2437776 Z" id="Path" fill="#E76F00"></path>
            <path d="M48.4537587,61.185343 C48.4537587,61.185343 50.4861587,62.8540382 46.2153587,64.1450698 C38.0942587,66.5965949 12.4143587,67.3368753 5.28062872,64.2427242 C2.71622872,63.1310579 7.52520872,61.588317 9.03792872,61.2646623 C10.6155587,60.9237686 11.5170587,60.9872439 11.5170587,60.9872439 C8.66521872,58.9853279 -6.91626128,64.9181342 3.60247872,66.6172219 C32.2885587,71.2529181 55.8945587,64.5298083 48.4537587,61.185343 Z" id="Path" fill="#5382A1"></path>
            <path d="M18.3920587,39.4207585 C18.3920587,39.4207585 5.32963872,42.5124184 13.7663587,43.6350459 C17.3285587,44.1102643 24.4297587,44.0027448 31.0443587,43.4504989 C36.4501587,42.9961068 41.8782587,42.0300254 41.8782587,42.0300254 C41.8782587,42.0300254 39.9721587,42.843447 38.5930587,43.7817269 C25.3283587,47.2581254 -0.29643328,45.6408482 7.08062872,42.0850308 C13.3194587,39.0798647 18.3920587,39.4207585 18.3920587,39.4207585 Z" id="Path" fill="#5382A1"></path>
            <path d="M41.8243587,52.4722748 C55.3084587,45.4900817 49.0739587,38.7803247 44.7223587,39.6842262 C43.6557587,39.9054434 43.1801587,40.097165 43.1801587,40.097165 C43.1801587,40.097165 43.5761587,39.4790522 44.3323587,39.2114989 C52.9412587,36.195571 59.5620587,48.1066229 41.5533587,52.8241299 C41.5533587,52.824329 41.7619587,52.6384866 41.8243587,52.4722748 Z" id="Path" fill="#5382A1"></path>
            <path d="M33.6948587,0 C33.6948587,0 41.1625587,7.44390083 26.6119587,18.8905062 C14.9439587,28.0727143 23.9513587,33.3080886 26.6071587,39.2897222 C19.7963587,33.16639 14.7980587,27.7759644 18.1512587,22.7591169 C23.0730587,15.3946765 36.7078587,11.8242108 33.6948587,0 Z" id="Path" fill="#E76F00"></path>
            <path d="M19.7170587,71.3924245 C32.6601587,72.2180031 52.5357587,70.9343454 53.0064587,64.8316403 C53.0064587,64.8316403 52.1016587,67.1451537 42.3097587,68.9823527 C31.2625587,71.0540219 17.6373587,70.8121777 9.55615872,69.4844759 C9.55615872,69.4842766 11.2104587,70.848848 19.7170587,71.3924245 Z" id="Path" fill="#5382A1"></path>
        </g>
    </g>
</svg>