<?xml version="1.0" encoding="UTF-8"?>
<svg width="76px" height="76px" viewBox="0 0 76 76" version="1.1" xmlns="http://www.w3.org/2000/svg" xmlns:xlink="http://www.w3.org/1999/xlink">
    <!-- Generator: Sketch 55.2 (78181) - https://sketchapp.com -->
    <title>logos/arrow-core/white copy 2</title>
    <desc>Created with Sketch.</desc>
    <g id="Arrow-Website" stroke="none" stroke-width="1" fill="none" fill-rule="evenodd">
        <g id="Media" transform="translate(-789.000000, -449.000000)" stroke="#F5F7F8" stroke-width="1.9200001">
            <g id="Libraries" transform="translate(331.000000, 452.000000)">
                <g id="arrow-optics" transform="translate(448.000000, 0.000000)">
                    <g id="logos/arrow-optics/white" transform="translate(4.000000, 0.000000)">
                        <polyline id="lines" transform="translate(44.076524, 35.261219) scale(-1, 1) translate(-44.076524, -35.261219) " points="58.4388423 60.0729881 79.3377435 70.5224386 44.0765241 0 44.0765241 0 8.81530483 70.5224386 29.5061625 60.1770098"></polyline>
                        <circle id="lines" cx="44.0765241" cy="49.953394" r="17.6306097"></circle>
                        <path d="M55.1552979,55.0956552 C55.9588253,53.47144 56.4099161,51.6452627 56.4099161,49.7147862 C56.4099161,42.9494412 50.8698516,37.4650455 44.0358356,37.4650455 C42.9884904,37.4650455 41.9715363,37.5938576 41.0002571,37.8363514 M31.6755826,47.860182 C31.5167353,48.6827582 31.4332191,49.5353663 31.4332191,50.4091296 C31.4332191,54.0050839 32.8477472,57.2427319 35.1062628,59.5033076 M39.5139152,61.756043 C40.9074387,62.1991099 42.419382,62.4417425 43.9992017,62.4417425 L43.9992017,62.4417425 C47.3915346,62.4417425 50.4708986,61.3229975 52.7368724,59.5033076" id="lines"></path>
                        <path d="M37.4650455,49.953394 C37.4650455,53.6048129 40.4251053,56.5648727 44.0765241,56.5648727 L44.0765241,56.5648727 C47.727943,56.5648727 50.6880028,53.6048129 50.6880028,49.953394 C50.6880028,46.3019752 47.727943,43.3419154 44.0765241,43.3419154 C43.8854133,43.3419154 43.6961963,43.3500241 43.5091984,43.3659161" id="lines"></path>
                        <circle id="lines" cx="35.8408715" cy="42.6073067" r="2.93843494"></circle>
                    </g>
                </g>
            </g>
        </g>
    </g>
</svg>