<?xml version="1.0" encoding="UTF-8"?>
<svg width="20px" height="20px" viewBox="0 0 20 20" version="1.1" xmlns="http://www.w3.org/2000/svg" xmlns:xlink="http://www.w3.org/1999/xlink">
    <title>icon-label-native</title>
    <g id="icon-label-native" stroke="none" stroke-width="1" fill="none" fill-rule="evenodd">
        <path d="M15.4999678,16.4999964 C16.327305,16.4999964 16.9999642,15.8273372 16.9999642,15 C16.9999642,14.1726628 16.327305,13.5000036 15.4999678,13.5000036 C15.1624595,13.5000036 14.8531035,13.6171908 14.6023183,13.8046903 L12.3523236,12.4547027 C12.4413814,12.1921988 12.499975,11.9156415 12.499975,11.6226735 C12.499975,10.1718865 11.3257682,8.99767972 9.87498122,8.99767972 C9.67809754,8.99767972 9.48592881,9.02345175 9.30309843,9.06563457 L8.34685529,7.01721569 C8.59530593,6.75001967 8.74999106,6.39376594 8.74999106,6.00002503 C8.74999106,5.17268426 8.07732468,4.50002503 7.24999106,4.50002503 C6.42265028,4.50002503 5.74999106,5.17268426 5.74999106,6.00002503 C5.74999106,6.82735866 6.42265028,7.50002503 7.24999106,7.50002503 C7.27575952,7.50002503 7.29919696,7.49299123 7.32499188,7.49299123 L8.28592709,9.55079424 C7.66014276,10.0289273 7.24999106,10.776568 7.24999106,11.625008 C7.24999106,13.075795 8.42419428,14.2500018 9.87498122,14.2500018 C10.627314,14.2500018 11.2999732,13.9289042 11.7781063,13.4226646 L14.0234088,14.7703176 C14.0116901,14.845322 13.9999714,14.922661 13.9999714,15 C13.9999714,15.8273372 14.6726306,16.4999964 15.4999678,16.4999964 Z M15.4999714,9.00002146 C16.327305,9.00002146 16.9999714,8.32735508 16.9999714,7.50002146 C16.9999714,6.67268068 16.327305,6.00002146 15.4999714,6.00002146 C14.6726306,6.00002146 13.9999714,6.67268068 13.9999714,7.50002146 C13.9999714,8.32735508 14.6726306,9.00002146 15.4999714,9.00002146 Z M12.9124648,10.0968821 L14.0374621,9.25313412 L13.5874815,8.65314471 L12.4624842,9.4968927 L12.9124648,10.0968821 Z M3.5,13.1250116 C4.32733362,13.1250116 5,12.4523452 5,11.6250116 C5,10.7976708 4.32733362,10.1250116 3.5,10.1250116 C2.67265922,10.1250116 2,10.7976708 2,11.6250116 C2,12.4523452 2.67265922,13.1250116 3.5,13.1250116 Z M9.87498122,12.7500054 C9.25388896,12.7500054 8.74998391,12.2461003 8.74998391,11.625008 C8.74998391,11.0039158 9.25388896,10.5000107 9.87498122,10.5000107 C10.4960735,10.5000107 10.9999785,11.0039158 10.9999785,11.625008 C10.9999785,12.2461003 10.4960735,12.7500054 9.87498122,12.7500054 Z M6.68748882,12.0000072 L6.68748882,11.2500089 L5.56249151,11.2500089 L5.56249151,12.0000072 L6.68748882,12.0000072 Z" id="" fill="#FFFFFF" fill-rule="nonzero"></path>
    </g>
</svg>