<?xml version="1.0" encoding="UTF-8"?>
<svg width="20px" height="20px" viewBox="0 0 20 20" version="1.1" xmlns="http://www.w3.org/2000/svg" xmlns:xlink="http://www.w3.org/1999/xlink">
    <title>icon-label-js</title>
    <g id="icon-label-js" stroke="none" stroke-width="1" fill="none" fill-rule="evenodd">
        <path d="M15.9506341,11.9260565 C15.8171558,11.0477509 15.2745756,10.31034 13.6676365,9.62233392 C13.1094549,9.351523 12.4871344,9.15758213 12.3016517,8.71109177 C12.2357793,8.45125967 12.2271119,8.30487539 12.2687155,8.14751229 C12.3883258,7.63699711 12.9655758,7.4778042 13.4232154,7.62418848 C13.7179075,7.72848728 13.9969983,7.96820984 14.1651462,8.35062048 C14.9521477,7.81267654 14.9504142,7.81631785 15.4999284,7.44671584 C15.2988443,7.11735121 15.1913684,6.96545922 15.0596236,6.82458265 C14.5863827,6.26649258 13.9415269,5.97921343 12.9101043,6.00117107 C12.7315555,6.02495851 12.5512906,6.05055746 12.3727245,6.07436321 C11.8578973,6.21159847 11.3673041,6.49704782 11.0795459,6.87947675 C10.2162712,7.91331574 10.4624258,9.72297311 11.5129167,10.4677214 C12.5478063,11.2874734 14.0680712,11.4741134 14.2622213,12.240801 C14.451171,13.1794902 13.6087154,13.4832193 12.7714256,13.3752792 C12.1543056,13.2398738 11.8110932,12.9086793 11.4401104,12.306674 C10.7571353,12.7238692 10.7571353,12.7238692 10.0550746,13.1502134 C10.221489,13.5344721 10.3965535,13.7083035 10.6756616,14.0413277 C11.9965759,15.4557658 15.3023113,15.3862333 15.8951799,13.2453632 C15.9194314,13.1721527 16.0789292,12.6817654 15.9506341,11.9260565 L15.9506341,11.9260565 Z M9.12070975,6.11460059 L7.41496215,6.11460059 C7.41496215,7.66993357 7.40804556,9.21428774 7.40804556,10.7696207 C7.40804556,11.7595444 7.45658309,12.667127 7.30403656,12.9452571 C7.05441496,13.4923501 6.40782568,13.4246656 6.11313351,13.3185187 C5.81324089,13.1629854 5.66069436,12.9415792 5.48387906,12.6287011 C5.43534153,12.5390407 5.39893838,12.4695082 5.38678666,12.4640188 C4.92396395,12.7622767 4.46284005,13.0623462 4,13.3606225 C4.23057062,13.8601589 4.57031601,14.2938223 5.00542033,14.5755937 C5.65547658,14.9872995 6.52915217,15.113556 7.44271522,14.8921497 C8.0373,14.7091694 8.55039373,14.3304184 8.81908365,13.7540303 C9.20738391,12.9983214 9.12417671,12.0834196 9.12070975,11.0715383 C9.12937716,9.42105553 9.12070975,7.77057277 9.12070975,6.11460059 Z" id="Shape" fill="#FFFFFF" fill-rule="nonzero"></path>
    </g>
</svg>