<?xml version="1.0" encoding="UTF-8"?>
<svg width="20px" height="20px" viewBox="0 0 20 20" version="1.1" xmlns="http://www.w3.org/2000/svg" xmlns:xlink="http://www.w3.org/1999/xlink">
    <title>icon-label-jvm</title>
    <g id="icon-label-jvm" stroke="none" stroke-width="1" fill="none" fill-rule="evenodd">
        <path d="M15.3749705,12.6250033 L15.3749705,5.40627049 C15.3749705,4.83907595 14.9109175,4.37502295 14.343723,4.37502295 L5.40624426,4.37502295 C4.83904972,4.37502295 4.37499672,4.83907595 4.37499672,5.40627049 L4.37499672,12.6250033 L15.3749705,12.6250033 Z M13.9999738,11.2500066 L5.74999344,11.2500066 L5.74999344,5.75001967 L13.9999738,5.75001967 L13.9999738,11.2500066 Z M15.3749705,15.3749967 C16.1312229,15.3749967 16.7499672,14.7562524 16.7499672,14 L16.7499672,13.6562508 C16.7499672,13.467193 16.5952759,13.3125016 16.406218,13.3125016 L11.1971297,13.3125016 C11.1812263,13.7380969 10.8810962,14 10.4937279,14 L9.18748525,14 C8.785934,14 8.47808295,13.6246747 8.48345403,13.3125016 L3.34374918,13.3125016 C3.15469133,13.3125016 3,13.467193 3,13.6562508 L3,14 C3,14.7562524 3.61874433,15.3749967 4.37499672,15.3749967 L15.3749705,15.3749967 Z" id="" fill="#FFFFFF" fill-rule="nonzero"></path>
    </g>
</svg>