<?xml version="1.0" encoding="UTF-8"?>
<svg width="20px" height="20px" viewBox="0 0 20 20" version="1.1" xmlns="http://www.w3.org/2000/svg" xmlns:xlink="http://www.w3.org/1999/xlink">
    <title>icon-label-common</title>
    <g id="icon-label-common" stroke="none" stroke-width="1" fill="none" fill-rule="evenodd">
        <path d="M7.93749061,15.8749979 C8.17896419,15.8749979 8.37498957,15.6789725 8.37498957,15.437499 L8.37498957,14.562501 C8.37498957,14.3210275 8.17896419,14.1250021 7.93749061,14.1250021 L5.74999583,14.1250021 L5.74999583,5.37502295 L7.93749061,5.37502295 C8.17896419,5.37502295 8.37498957,5.17899757 8.37498957,4.93752399 L8.37498957,4.06252608 C8.37498957,3.8210525 8.17896419,3.62502712 7.93749061,3.62502712 L4.87499791,3.62502712 C4.39207746,3.62502712 4,4.01710458 4,4.50002503 L4,15 C4,15.4829204 4.39207746,15.8749979 4.87499791,15.8749979 L7.93749061,15.8749979 Z M15.3749812,15.8749979 C15.8578933,15.8749979 16.2499708,15.4829204 16.2499708,15 L16.2499708,4.50002503 C16.2499708,4.01710458 15.8578933,3.62502712 15.3749812,3.62502712 L12.3124802,3.62502712 C12.0710066,3.62502712 11.8749812,3.8210525 11.8749812,4.06252608 L11.8749812,4.93752399 C11.8749812,5.17899757 12.0710066,5.37502295 12.3124802,5.37502295 L14.499975,5.37502295 L14.499975,14.1250021 L12.3124802,14.1250021 C12.0710066,14.1250021 11.8749812,14.3210275 11.8749812,14.562501 L11.8749812,15.437499 C11.8749812,15.6789725 12.0710066,15.8749979 12.3124802,15.8749979 L15.3749812,15.8749979 Z" id="" fill="#FFFFFF" fill-rule="nonzero"></path>
    </g>
</svg>