<?xml version="1.0" encoding="UTF-8"?>
<svg width="1504px" height="700px" viewBox="0 0 1504 700" version="1.1" xmlns="http://www.w3.org/2000/svg" xmlns:xlink="http://www.w3.org/1999/xlink">
    <title>quickstart-pattern</title>
    <g id="quickstart-pattern" stroke="none" stroke-width="1" fill="none" fill-rule="evenodd" opacity="0.32" stroke-linecap="round" stroke-linejoin="round">
        <g id="pattern" transform="translate(-230.000000, -0.499600)" stroke="#273244">
            <line x1="970.159" y1="589.224" x2="970.159" y2="677.8299" stroke-dasharray="70,40,40,10,5,10"></line>
            <line x1="1399.8163" y1="517.9807" x2="1399.8163" y2="700.2507" stroke-dasharray="70,40,40,10,5,10"></line>
            <line x1="1399.8163" y1="152.3294" x2="1399.8163" y2="213.3884" stroke-dasharray="70,40,40,10,5,10"></line>
            <line x1="928.5535" y1="288.8284" x2="1164.4055" y2="407.6194" stroke-dasharray="100,20,40,10,5,10"></line>
            <line x1="850.0828" y1="555.3528" x2="1035.9638" y2="651.9968" stroke-dasharray="70,40,40,10,5,10"></line>
            <line x1="1576.9179" y1="345.8294" x2="1400.4079" y2="436.8364" stroke-dasharray="100,20,40,10,5,10"></line>
            <line x1="1757.7099" y1="198.3841" x2="1641.3889" y2="258.8031" stroke-dasharray="100,20,40,10,5,10"></line>
            <line x1="614.2039" y1="0.0013" x2="603.4349" y2="5.5903" stroke-dasharray="100,20,40,10,5,10"></line>
            <line x1="339.5086" y1="213.388" x2="542.5936" y2="322.552" stroke-dasharray="100,20,40,10,5,10"></line>
            <line x1="1203.4442" y1="410.3294" x2="824.2542" y2="614.7194" stroke-dasharray="70,40,40,10,5,10"></line>
            <line x1="1095.8495" y1="312.9017" x2="1018.1165" y2="353.9037" stroke-dasharray="100,20,40,10,5,10"></line>
            <line x1="850.0828" y1="555.3528" x2="1035.9638" y2="651.9968" stroke-dasharray="70,40,40,10,5,10"></line>
            <line x1="790.6307" y1="331.1165" x2="1075.5637" y2="479.2595" stroke-dasharray="100,20,40,10,5,10"></line>
            <line x1="1148.0868" y1="524.1594" x2="904.8118" y2="651.9964" stroke-dasharray="70,40,40,10,5,10"></line>
            <line x1="1193.5868" y1="575.9534" x2="1313.3478" y2="638.4274" stroke-dasharray="70,40,40,10,5,10"></line>
            <line x1="1655.1356" y1="551.5335" x2="1510.0086" y2="626.9145" stroke-dasharray="70,40,40,10,5,10"></line>
            <line x1="1281.9999" y1="579.594" x2="1466.2499" y2="675.5361" stroke-dasharray="70,40,40,10,5,10"></line>
            <line x1="1624.537" y1="630.7737" x2="1655.136" y2="646.6827" stroke-dasharray="70,40,40,10,5,10"></line>
            <line x1="1446.3798" y1="617.0598" x2="1335.0978" y2="675.5368" stroke-dasharray="70,40,40,10,5,10"></line>
            <line x1="204.9911" y1="52.8655" x2="380.3781" y2="144.0535" stroke-dasharray="100,20,40,10,5,10"></line>
            <line x1="346.5594" y1="2.4671" x2="204.9914" y2="76.8591" stroke-dasharray="100,20,40,10,5,10"></line>
            <line x1="707.8065" y1="0.0013" x2="777.2905" y2="36.1273" stroke-dasharray="100,20,40,10,5,10"></line>
            <line x1="805.8055" y1="0.8216" x2="849.0825" y2="23.4236" stroke-dasharray="100,20,40,10,5,10"></line>
            <line x1="805.8055" y1="0.8216" x2="738.2055" y2="37.2336" stroke-dasharray="100,20,40,10,5,10"></line>
            <line x1="438.8817" y1="65.8118" x2="717.5347" y2="210.6898" stroke-dasharray="100,20,40,10,5,10"></line>
            <line x1="245.6903" y1="0.0013" x2="374.1623" y2="66.7973" stroke-dasharray="100,20,40,10,5,10"></line>
            <line x1="709.1307" y1="192.3431" x2="558.2707" y2="271.6171" stroke-dasharray="100,20,40,10,5,10"></line>
            <line x1="781.0438" y1="152.3226" x2="724.0048" y2="182.7986" stroke-dasharray="100,20,40,10,5,10"></line>
            <line x1="486.87" y1="67.1585" x2="283.352" y2="174.1025" stroke-dasharray="100,20,40,10,5,10"></line>
            <line x1="243.4061" y1="236.1634" x2="65.6021" y2="144.0534" stroke-dasharray="100,20,40,10,5,10"></line>
            <line x1="850.0828" y1="555.3528" x2="345.0668" y2="288.8288" stroke-dasharray="70,40,40,10,5,10"></line>
            <line x1="562.5409" y1="74.3929" x2="419.0709" y2="0.0009" stroke-dasharray="100,20,40,10,5,10"></line>
            <line x1="1109.5185" y1="266.8763" x2="865.5915" y2="144.0533" stroke-dasharray="100,20,40,10,5,10"></line>
            <line x1="1638.4687" y1="0.0013" x2="1876.9507" y2="123.9933" stroke-dasharray="100,20,40,10,5,10"></line>
            <line x1="695.745" y1="215.6312" x2="695.745" y2="155.2712" stroke-dasharray="100,20,40,10,5,10"></line>
            <line x1="805.8055" y1="98.8118" x2="805.8055" y2="0.8218" stroke-dasharray="100,20,40,10,5,10"></line>
            <line x1="44.3729" y1="442.7503" x2="367.6309" y2="610.8183" stroke-dasharray="70,40,40,10,5,10"></line>
            <line x1="430.3094" y1="635.3841" x2="468.5404" y2="655.2621" stroke-dasharray="70,40,40,10,5,10"></line>
            <line x1="447.2723" y1="442.763" x2="538.6903" y2="490.292" stroke-dasharray="100,20,40,10,5,10"></line>
            <line x1="249.9842" y1="610.8186" x2="204.9912" y2="634.4626" stroke-dasharray="70,40,40,10,5,10"></line>
            <line x1="357.7147" y1="554.2083" x2="274.4017" y2="597.9873" stroke-dasharray="70,40,40,10,5,10"></line>
            <line x1="519.5301" y1="471.6575" x2="488.7931" y2="487.8085" stroke-dasharray="70,40,40,10,5,10"></line>
            <line x1="862.7371" y1="288.8284" x2="558.2701" y2="448.8204" stroke-dasharray="70,40,40,10,5,10"></line>
            <line x1="462.3358" y1="141.013" x2="598.8108" y2="211.969" stroke-dasharray="100,20,40,10,5,10"></line>
            <line x1="491.5262" y1="295.1019" x2="408.0892" y2="338.9469" stroke-dasharray="100,20,40,10,5,10"></line>
            <line x1="603.4354" y1="186.7757" x2="517.4114" y2="231.9797" stroke-dasharray="100,20,40,10,5,10"></line>
            <line x1="875.2352" y1="410.3294" x2="491.4322" y2="612.0114" stroke-dasharray="70,40,40,10,5,10"></line>
            <line x1="331.3407" y1="326.0892" x2="54.0747" y2="471.7872" stroke-dasharray="100,20,40,10,5,10"></line>
            <line x1="673.4461" y1="634.4622" x2="206.4831" y2="392.3332" stroke-dasharray="70,40,40,10,5,10"></line>
            <line x1="857.4803" y1="668.7747" x2="711.1093" y2="592.8787" stroke-dasharray="70,40,40,10,5,10"></line>
            <line x1="308.0477" y1="579.594" x2="308.0477" y2="445.012" stroke-dasharray="100,20,40,10,5,10"></line>
            <line x1="424.12" y1="369.7356" x2="424.12" y2="330.6206" stroke-dasharray="100,20,40,10,5,10"></line>
            <line x1="1182.9364" y1="171.0745" x2="1341.3784" y2="253.4515" stroke-dasharray="100,20,40,10,5,10"></line>
            <line x1="1555.788" y1="128.8685" x2="1639.837" y2="172.5675" stroke-dasharray="100,20,40,10,5,10"></line>
            <line x1="1614.33" y1="138.9417" x2="1463.826" y2="218.0297" stroke-dasharray="100,20,40,10,5,10"></line>
            <line x1="1750.4608" y1="0.0013" x2="1664.5868" y2="45.1333" stroke-dasharray="100,20,40,10,5,10"></line>
            <line x1="1313.3476" y1="61.221" x2="1175.6616" y2="133.403" stroke-dasharray="100,20,40,10,5,10"></line>
            <line x1="1666.8935" y1="117.761" x2="1797.0595" y2="185.438" stroke-dasharray="100,20,40,10,5,10"></line>
            <line x1="1440.3983" y1="0.0013" x2="1569.2633" y2="67.0013" stroke-dasharray="100,20,40,10,5,10"></line>
            <line x1="1531.536" y1="0.0013" x2="1721.585" y2="98.8123" stroke-dasharray="100,20,40,10,5,10"></line>
            <line x1="1585.8485" y1="288.8284" x2="1473.7525" y2="347.7324" stroke-dasharray="100,20,40,10,5,10"></line>
            <line x1="1439.9677" y1="129.4905" x2="1400.9637" y2="150.3295" stroke-dasharray="100,20,40,10,5,10"></line>
            <line x1="1391.3056" y1="155.2708" x2="1129.2026" y2="293.0008" stroke-dasharray="100,20,40,10,5,10"></line>
            <line x1="1662.0077" y1="569.9759" x2="1143.4987" y2="305.7699" stroke-dasharray="70,40,40,10,5,10"></line>
            <line x1="1794.9442" y1="484.4261" x2="1732.6552" y2="452.6861" stroke-dasharray="100,20,40,10,5,10"></line>
            <line x1="1816.3905" y1="368.386" x2="1107.2195" y2="0" stroke-dasharray="100,20,40,10,5,10"></line>
            <line x1="1182.9364" y1="263.3909" x2="1182.9364" y2="117.7609" stroke-dasharray="100,20,40,10,5,10"></line>
            <line x1="1594.3925" y1="210.6898" x2="1594.3925" y2="138.2508" stroke-dasharray="100,20,40,10,5,10"></line>
            <line x1="1428.7792" y1="62.0862" x2="1428.7792" y2="0.0012" stroke-dasharray="100,20,40,10,5,10"></line>
            <line x1="1473.7528" y1="49.4065" x2="1473.7528" y2="0.0015" stroke-dasharray="100,20,40,10,5,10"></line>
            <line x1="940.7186" y1="140.5032" x2="729.1906" y2="247.3912" stroke-dasharray="100,20,40,10,5,10"></line>
            <line x1="1247.5214" y1="0.0013" x2="1029.4754" y2="110.2073" stroke-dasharray="100,20,40,10,5,10"></line>
            <line x1="1313.3476" y1="107.0745" x2="1092.6326" y2="218.0295" stroke-dasharray="100,20,40,10,5,10"></line>
            <path d="M1104.3993,190.2982 C1104.3993,218.4192 1084.5333,229.7462 1060.0273,215.5972 C1035.5203,201.4482 1015.6543,167.1822 1015.6543,139.0612 C1015.6543,110.9412 1035.5203,99.6132 1060.0273,113.7632 C1084.5333,127.9112 1104.3993,162.1782 1104.3993,190.2982 Z" stroke-dasharray="100,20,40,10,5,10"></path>
            <path d="M1392.4724,0.212313184 C1392.5362,1.368831 1392.5686,2.51706717 1392.5686,3.6553 C1392.5686,8.9383 1391.8696,13.6303 1390.5756,17.6753" stroke-dasharray="100,20,40,10,5,10"></path>
            <line x1="264.7479" y1="145.4749" x2="13.8209" y2="271.6179" stroke-dasharray="100,20,40,10,5,10"></line>
            <line x1="325.1034" y1="255.5355" x2="76.9784" y2="379.4385" stroke-dasharray="100,20,40,10,5,10"></line>
            <path d="M339.5086,226.2454 C339.5086,254.4994 319.5486,265.8794 294.9256,251.6634 C270.3036,237.4474 250.3426,203.0184 250.3426,174.7654 C250.3426,146.5114 270.3036,135.1304 294.9256,149.3464 C319.5486,163.5614 339.5086,197.9904 339.5086,226.2454 Z" stroke-dasharray="100,20,40,10,5,10"></path>
            <line x1="1642.2948" y1="345.8294" x2="1887.6868" y2="473.4134" stroke-dasharray="100,20,40,10,5,10"></line>
            <line x1="1872.5897" y1="199.7024" x2="1607.0877" y2="339.2184" stroke-dasharray="100,20,40,10,5,10"></line>
            <line x1="1588.2782" y1="456.2083" x2="1865.9982" y2="600.6013" stroke-dasharray="70,40,40,10,5,10"></line>
            <line x1="1916.3817" y1="420.6126" x2="1719.3907" y2="524.1276" stroke-dasharray="100,20,40,10,5,10"></line>
            <line x1="1750.4608" y1="617.0598" x2="1686.9188" y2="584.1418" stroke-dasharray="70,40,40,10,5,10"></line>
            <line x1="1207.9022" y1="490.3011" x2="1187.7302" y2="500.9021" stroke-dasharray="70,40,40,10,5,10"></line>
            <line x1="1683.3935" y1="393.3421" x2="1683.3935" y2="299.2581" stroke-dasharray="100,20,40,10,5,10"></line>
            <path d="M1717.4696,239.469 C1717.4696,251.148 1709.2186,255.851 1699.0406,249.975 C1688.8646,244.1 1680.6136,229.868 1680.6136,218.191 C1680.6136,206.512 1688.8646,201.808 1699.0406,207.684 C1709.2186,213.56 1717.4696,227.79 1717.4696,239.469 Z" stroke-dasharray="100,20,40,10,5,10"></path>
            <line x1="865.9539" y1="32.095" x2="935.3909" y2="68.197" stroke-dasharray="100,20,40,10,5,10"></line>
        </g>
    </g>
</svg>