<?xml version="1.0" standalone="no"?>
<!DOCTYPE svg PUBLIC "-//W3C//DTD SVG 1.1//EN" "http://www.w3.org/Graphics/SVG/1.1/DTD/svg11.dtd" >
<svg xmlns="http://www.w3.org/2000/svg" xmlns:xlink="http://www.w3.org/1999/xlink" version="1.1">
    <metadata></metadata>
    <defs>
        <font id="monoidbold" horiz-adv-x="1365">
            <font-face units-per-em="2048" ascent="1637" descent="-411"/>
            <missing-glyph horiz-adv-x="500"/>
            <glyph horiz-adv-x="0"/>
            <glyph unicode="&#xd;" horiz-adv-x="682"/>
            <glyph unicode=" "/>
            <glyph unicode="!"
                   d="M537 209.5q0 102.5 65 166.5t166 64t166 -64t65 -166.5t-65 -166.5t-166 -64t-166 64t-65 166.5zM579 1877h378l-24 -1194h-330z"/>
            <glyph unicode="&#x22;" d="M341 1024v853h342v-853h-342zM853 1024v853h342v-853h-342z"/>
            <glyph unicode="#"
                   d="M171 363v320h170v512h-170v320h170v362h342v-362h170v362h342v-362h170v-320h-170v-512h170v-320h-170v-363h-342v363h-170v-363h-342v363h-170zM683 683h170v512h-170v-512z"/>
            <glyph unicode="$"
                   d="M301 1353q0 240 153 393t399 153v149h171v-156q92 -5 323 -27v-321q-251 24 -323 28v-488q125 -39 214 -126t128 -190.5t39 -215.5q0 -252 -152 -408t-400 -165v-150h-170v154q-153 8 -350 38v326q244 -36 350 -43v523q-176 49 -279 187.5t-103 338.5zM643 1351 q0 -100 47 -160t163 -72v460q-100 0 -155 -57.5t-55 -170.5zM853 300q211 15 211 252q0 91 -51.5 161t-159.5 82v-495z"/>
            <glyph unicode="%"
                   d="M63 547l1194 1034l216 -250l-1194 -1035zM149 1536q0 155 102 259t261 104t261 -104t102 -259t-102 -259t-261 -104t-261 104t-102 259zM400 1536q0 -60 30.5 -94t81.5 -34t81.5 34t30.5 94t-30.5 94t-81.5 34t-81.5 -34t-30.5 -94zM661 341.5q0 154.5 102 258.5t261 104 t261 -104t102 -258.5t-102 -258.5t-261 -104t-261 104t-102 258.5zM912 341q0 -60 30.5 -94t81.5 -34t81.5 34t30.5 94t-30.5 94t-81.5 34t-81.5 -34t-30.5 -94z"/>
            <glyph unicode="&#x26;"
                   d="M128 541q0 176 88.5 309.5t235.5 205.5q-71 101 -102 193t-31 208q0 199 127 323t322 124q197 0 323 -126.5t126 -317.5q0 -357 -318 -521l125 -208v122h341v-278q0 -200 -60 -304l164 -271h-378l-30 48q-113 -69 -293 -69q-148 0 -270.5 46t-202.5 123t-123.5 178.5 t-43.5 214.5zM469 541q0 -104 80 -173t219 -69q81 0 124 26l-287 476q-136 -95 -136 -260zM660 1459q0 -120 80 -260q136 71 136 261q0 55 -29.5 89.5t-78.5 34.5q-48 0 -78 -34t-30 -91z"/>
            <glyph unicode="'" d="M597 1024v853h342v-853h-342z"/>
            <glyph unicode="("
                   d="M344 937.5q0 402.5 182 685t510 429.5l140 -281q-491 -224 -491 -833.5t491 -833.5l-140 -281q-328 147 -510 429.5t-182 685z"/>
            <glyph unicode=")"
                   d="M363 104q491 224 490.5 833.5t-490.5 833.5l140 281q328 -147 510 -429.5t182 -685t-182 -685.5t-510 -429z"/>
            <glyph unicode="*"
                   d="M108 763l393 128l-246 340l282 180l231 -319l232 319l283 -180l-248 -340l393 -128l-112 -303l-377 124v-413h-342v413l-377 -124z"/>
            <glyph unicode="+" d="M171 693v320h426v427h342v-427h426v-320h-426v-426h-342v426h-426z"/>
            <glyph unicode=","
                   d="M512 -43q100 0 141 66q29 47 30 126v22h-171v480h512v-502q0 -71 -3.5 -112.5t-28 -109.5t-72.5 -124q-65 -77 -170.5 -121.5t-237.5 -44.5v320z"/>
            <glyph unicode="-" d="M171 693v320h1194v-320h-1194z"/>
            <glyph unicode="." d="M512 0v480h512v-480h-512z"/>
            <glyph unicode="/" d="M163 -148l894 2288l316 -115l-894 -2288z"/>
            <glyph unicode="0"
                   d="M337 938.5q0 190.5 2 284.5t14 209t36 180q110 289 379 289t379 -289q24 -65 36 -180t14 -209t2 -284.5t-2 -284.5t-14 -208.5t-36 -180.5q-109 -289 -378.5 -289t-379.5 289q-24 65 -36 180t-14 209t-2 284.5zM673 799l179 588q-9 79 -30.5 134t-53.5 55q-57 0 -81 -168 q-13 -89 -14 -469v-140zM684 491q9 -79 30.5 -134.5t53.5 -55.5q57 0 81 168q13 89 14 470v140z"/>
            <glyph unicode="1" d="M341 1605l374 272h309v-1877h-341v1475h-14l-158 -116z"/>
            <glyph unicode="2"
                   d="M341 0v279l472 946q56 104 56 212q0 141 -144 142q-161 0 -384 -42v320q212 41 384 42q128 0 225 -39t152 -105.5t82 -146.5t27 -171q0 -88 -18 -151t-57 -135l-405 -831h490v-320h-880z"/>
            <glyph unicode="3"
                   d="M341 20v323q232 -44 406 -44q87 0 118 72t31 201q0 165 -30 238t-103 73q-67 0 -131 -28l-199 221l380 481h-472v320h854v-306l-336 -394l9 -9q20 7 47 7q323 0 322 -606q0 -301 -122.5 -445.5t-367.5 -144.5q-163 0 -406 41z"/>
            <glyph unicode="4"
                   d="M256 363v293l660 1276l291 -149l-562 -1087v-13h208v186h342v-186h170v-320h-170v-363h-342v363h-597z"/>
            <glyph unicode="5"
                   d="M341 20v323q217 -44 379 -44q57 0 96 22.5t57.5 66.5t26 93.5t7.5 117.5q0 297 -158 297q-85 0 -132 -52l-276 72v961h854v-320h-512v-416h13q81 52 176 52q365 0 365 -597q0 -315 -122 -466t-368 -151q-163 0 -406 41z"/>
            <glyph unicode="6"
                   d="M341 596q0 407 58 632q87 337 397 697l260 -214q-123 -143 -201.5 -265.5t-118.5 -270.5l13 -6q56 47 134 47q148 0 228 -108q127 -169 126 -511q0 -236 -42 -352q-44 -121 -146 -193.5t-246 -72.5q-161 0 -266.5 71t-152.5 195q-27 71 -35 147t-8 204zM683 597.5 q0 -190.5 44 -258.5q25 -40 62.5 -40t62.5 40q44 68 44 258.5t-44 258.5q-25 40 -62.5 40t-62.5 -40q-44 -68 -44 -258.5z"/>
            <glyph unicode="7" d="M275 1557v320h960v-280l-419 -1597h-345l410 1544v13h-606z"/>
            <glyph unicode="8"
                   d="M299 499q0 324 236 452v13q-209 125 -210 429q0 219 116 362.5t327 143.5t327 -143.5t116 -362.5q0 -304 -210 -429v-13q236 -128 236 -452q0 -227 -124 -373.5t-345 -146.5t-345 146.5t-124 373.5zM640 525q0 -101 32 -163.5t96 -62.5t96 62.5t32 163.5q0 117 -32 192 t-96 75t-96 -74.5t-32 -192.5zM667 1367q0 -109 25 -182t76 -73t76 72.5t25 182.5q0 93 -25 152.5t-76 59.5t-76 -59.5t-25 -152.5z"/>
            <glyph unicode="9"
                   d="M299 1280q0 236 42 352q45 123 149.5 195t256.5 72t256 -72t149 -195q27 -71 35 -147t8 -204q0 -407 -58 -632q-87 -337 -397 -697l-260 215q123 143 201.5 265.5t118.5 270.5l-13 5q-56 -47 -134 -47q-148 0 -228 108q-127 169 -126 511zM640 1280q0 -191 44 -259 q25 -40 62.5 -40t62.5 40q44 68 44 259t-44 259q-25 40 -62.5 40t-62.5 -40q-44 -68 -44 -259z"/>
            <glyph unicode=":" d="M512 0v480h512v-480h-512zM512 885v480h512v-480h-512z"/>
            <glyph unicode=";"
                   d="M512 -43q100 0 141 66q29 47 30 126v22h-171v480h512v-502q0 -71 -3.5 -112.5t-28 -109.5t-72.5 -124q-65 -77 -170.5 -121.5t-237.5 -44.5v320zM512 885v480h512v-480h-512z"/>
            <glyph unicode="&#x3c;" d="M256 727v253l795 749l234 -234l-681 -635v-13l681 -635l-234 -235z"/>
            <glyph unicode="=" d="M256 347v320h1024v-320h-1024zM256 1029v320h1024v-320h-1024z"/>
            <glyph unicode="&#x3e;" d="M251 212l681 635v13l-681 635l234 234l795 -749v-253l-795 -750z"/>
            <glyph unicode="?"
                   d="M371 1529v320q211 49 341 50q240 0 369.5 -117.5t129.5 -325.5q0 -153 -42 -262t-141 -233q-89 -113 -89 -278h-342q0 64 3 98.5t14 90t40 106t75 103.5q140 157 140 348q0 149 -197 150q-109 0 -301 -50zM537 209.5q0 102.5 65 166.5t166 64t166 -64t65 -166.5 t-65 -166.5t-166 -64t-166 64t-65 166.5z"/>
            <glyph unicode="@"
                   d="M171 660v557q0 343 162.5 501.5t502.5 158.5q269 0 399 -127t130 -395v-843h-341v44h-13q-44 -59 -110 -59q-92 0 -155 118t-63 298q0 195 90 311.5t206 116.5h45q0 120 -40.5 168t-147.5 48q-177 0 -250.5 -77t-73.5 -263v-557q0 -185 73.5 -262.5t250.5 -77.5 q185 0 427 28v-320q-239 -28 -427 -28q-340 0 -502.5 158t-162.5 502zM853 916q0 -91 21.5 -151.5t58.5 -60.5q91 0 91 356v81h-48q-53 0 -88 -58.5t-35 -166.5z"/>
            <glyph unicode="A"
                   d="M140 0q135 1160 364 1877h528q229 -717 364 -1877h-345q-16 184 -44 363h-478q-28 -179 -44 -363h-345zM575 683h386q-77 503 -186 905h-14q-108 -399 -186 -905z"/>
            <glyph unicode="B"
                   d="M256 0v1877h400q172 0 245 -17q164 -39 268 -169.5t104 -319.5q0 -281 -200 -387v-13q137 -40 214 -163.5t77 -295.5q0 -187 -98 -319.5t-254 -171.5q-85 -21 -284 -21h-472zM597 320h132q120 0 160 11q67 17 107 76.5t40 144.5t-40 145t-107 76q-45 11 -160 11h-132 v-464zM597 1104h59q100 0 131 8q72 17 115 75t43 144q0 84 -44 142.5t-114 74.5q-43 9 -131 9h-59v-453z"/>
            <glyph unicode="C"
                   d="M150 938q0 3 -1 7q0 286 42 447q59 235 221.5 371t431.5 136q204 0 416 -24v-320q-267 24 -412 24q-273 0 -333 -307q-24 -125 -24 -333t24 -334q60 -306 340 -306h2q154 0 423 32v-320q-239 -32 -423 -32q-273 0 -440.5 136.5t-225.5 369.5q-41 163 -41 453z"/>
            <glyph unicode="D"
                   d="M171 0v1877h461q429 0 625 -316q76 -120 103 -272t27 -350.5t-27 -350.5t-103 -272q-196 -316 -625 -316h-461zM512 320h148q209 0 309 171q76 128 76 448t-76 448q-99 170 -307 170h-2h-148v-1237z"/>
            <glyph unicode="E" d="M256 0v1877h1024v-320h-683v-453h512v-320h-512v-464h683v-320h-1024z"/>
            <glyph unicode="F" d="M256 0v1877h1024v-320h-683v-464h512v-320h-512v-773h-341z"/>
            <glyph unicode="G"
                   d="M150 938q-1 4 -1 7q0 286 42 447q63 235 230.5 371t449.5 136q213 0 468 -28v-320q-285 28 -464 28q-300 0 -360 -307q-24 -125 -24 -333t24 -334q28 -144 119 -225t250 -81q44 0 140 5v400h-171v320h512v-996q-273 -49 -481 -49q-284 0 -458 136.5t-235 369.5 q-41 163 -41 453z"/>
            <glyph unicode="H" d="M256 0v1877h341v-784h342v784h341v-1877h-341v773h-342v-773h-341z"/>
            <glyph unicode="I" d="M256 0v320h341v1237h-341v320h1024v-320h-341v-1237h341v-320h-1024z"/>
            <glyph unicode="J"
                   d="M199 191l182 256q161 -143 343 -143q112 0 165 83q23 35 35 82t13.5 78.5t1.5 84.5v925h-512v320h853v-1245q0 -65 -2 -104.5t-12 -105t-36.5 -124.5t-68.5 -113q-72 -92 -184.5 -146.5t-252.5 -54.5q-148 0 -284 58.5t-241 148.5z"/>
            <glyph unicode="K"
                   d="M171 0v1877h341v-733l395 733h385l-447 -786l571 -1091h-383l-417 815l-104 -176v-639h-341z"/>
            <glyph unicode="L" d="M256 0v1877h341v-1557h768v-320h-1109z"/>
            <glyph unicode="M"
                   d="M171 0v1877h341l249 -584h15l248 584h341v-1877h-341v1195h-13l-170 -342h-146l-170 347h-13v-1200h-341z"/>
            <glyph unicode="N" d="M256 0v1877h340l329 -1064h14v1064h341v-1877h-341l-328 1064h-14v-1064h-341z"/>
            <glyph unicode="O"
                   d="M149 938.5q0 317.5 38 465.5q53 216 201 355.5t380 139.5t380 -139.5t201 -355.5q37 -148 37 -466q0 -4 1 -8q0 -311 -38 -457q-53 -216 -201 -355t-380 -139t-380 139t-201 355q-38 148 -38 465.5zM491 938.5q0 -234.5 20 -343.5q24 -129 88.5 -212.5t168.5 -83.5 t168.5 83t88.5 213q20 111 20 344q0 235 -20 344q-24 129 -88.5 212.5t-168.5 83.5t-168.5 -83.5t-88.5 -212.5q-20 -110 -20 -344.5z"/>
            <glyph unicode="P"
                   d="M256 0v1877h421q197 0 282 -20q189 -45 308.5 -197.5t119.5 -374t-119.5 -374t-308.5 -198.5q-84 -20 -282 -20h-80v-693h-341zM597 1013h83q115 0 167 11q91 19 144.5 89.5t53.5 172t-54 172t-144 89.5q-48 10 -148 10h-19h-83v-544z"/>
            <glyph unicode="Q"
                   d="M149 938.5q0 317.5 38 465.5q53 216 201 355.5t380 139.5t380 -139.5t201 -355.5q37 -148 38 -465q0 -316 -34 -466q-33 -140 -111 -252.5t-194 -175.5q25 -60 53 -73t96 -13q8 0 168 6v-320q-108 -8 -210 -8q-224 0 -354 166q-44 57 -90 178q-212 19 -342 155t-182 337 q-38 148 -38 465.5zM491 938.5q0 -234.5 20 -343.5q40 -219 172 -279v196h321q41 127 41 427q0 235 -20 344q-24 129 -88.5 212.5t-168.5 83.5t-168.5 -83.5t-88.5 -212.5q-20 -110 -20 -344.5z"/>
            <glyph unicode="R"
                   d="M256 0v1877h421q197 0 282 -20q189 -45 308.5 -197.5t119.5 -374.5q0 -167 -70 -296.5t-190 -205.5l293 -783h-363l-248 695q-40 -1 -132 -2h-80v-693h-341zM597 1013h83q115 0 167 11q89 19 143.5 89.5t54.5 172t-54.5 172t-143.5 89.5q-49 10 -148 10h-19h-83v-544z "/>
            <glyph unicode="S"
                   d="M216 1353q0 231 147.5 388.5t377.5 157.5q180 0 494 -34v-321q-324 35 -494 35q-51 0 -88.5 -23t-57.5 -59t-29 -73t-9 -73q0 -157 107 -206q35 -16 158 -35t199 -59q107 -55 176.5 -141.5t96 -174.5t26.5 -183q0 -259 -160 -416t-419 -157q-219 0 -493 42v326 q321 -48 493 -48q237 0 238 253q0 71 -34 134t-96 87q-39 15 -106.5 24.5t-139 27.5t-136.5 56q-251 149 -251 472z"/>
            <glyph unicode="T" d="M171 1557v320h1194v-320h-426v-1557h-342v1557h-426z"/>
            <glyph unicode="U"
                   d="M171 683v1194h341v-1194q0 -125 9 -171q20 -96 86 -154.5t161 -58.5t161 58.5t86 154.5q9 45 9 171v1194h341v-1194q0 -188 -21 -279q-45 -188 -202 -306.5t-374 -118.5t-374 118.5t-202 306.5q-21 91 -21 279z"/>
            <glyph unicode="V"
                   d="M140 1877h345q111 -980 276 -1588h14q167 613 276 1588h345q-135 -1160 -364 -1877h-528q-229 717 -364 1877z"/>
            <glyph unicode="W"
                   d="M159 1877h338q0 -873 46 -1462h13l89 438h246l89 -438h13q45 589 46 1462h338q0 -933 -105 -1877h-379l-118 517h-14l-118 -517h-379q-105 944 -105 1877z"/>
            <glyph unicode="X"
                   d="M119 0l444 948v13l-402 916h356l244 -618h14l244 618h356l-402 -916v-13l444 -948h-357l-285 664h-14l-285 -664h-357z"/>
            <glyph unicode="Y"
                   d="M133 1877h362q11 -49 26 -102.5t37 -116t37.5 -106t44.5 -117.5t40.5 -102.5t44 -108t36.5 -89.5h14q197 453 266 742h362q-104 -319 -213.5 -576.5t-250.5 -479.5v-821h-342v821q-141 221 -250.5 479.5t-213.5 576.5z"/>
            <glyph unicode="Z" d="M171 0v283l774 1261v13h-748v320h1142v-280l-775 -1264v-13h801v-320h-1194z"/>
            <glyph unicode="[" d="M341 -171v2219h854v-320h-512v-1579h512v-320h-854z"/>
            <glyph unicode="\" d="M163 2025l316 115l894 -2288l-316 -115z"/>
            <glyph unicode="]" d="M341 149h512v1579h-512v320h854v-2219h-854v320z"/>
            <glyph unicode="^"
                   d="M268 1195q112 409 393 682h214q281 -273 393 -682h-353q-59 197 -147 345q-88 -148 -147 -345h-353z"/>
            <glyph unicode="_" d="M171 0h1194v-320h-1194v320z"/>
            <glyph unicode="`" d="M492 1877h355l208 -512h-342z"/>
            <glyph unicode="a"
                   d="M299 401q0 196 117 323q43 45 91.5 74t100 39.5t82.5 13t75 2.5h88v139q0 27 -22.5 50t-58.5 23q-123 0 -345 -25v321q220 26 384 26q115 0 201.5 -35.5t142.5 -134.5q40 -71 40 -218v-999h-342v71h-13q-75 -92 -189 -92q-141 0 -246.5 121t-105.5 301zM640 404 q0 -45 21.5 -75t61.5 -30q45 0 73.5 22.5t40 64.5t14 71.5t2.5 73.5v30h-90q-65 0 -94 -38t-29 -119z"/>
            <glyph unicode="b"
                   d="M341 0v1877h342v-598h10q68 108 223 108q101 0 179 -83.5t114 -232.5q28 -120 28 -388t-28 -388q-36 -149 -114 -232.5t-179 -83.5q-155 0 -223 108h-10v-87h-342zM683 682.5q0 -169.5 13 -241.5q11 -61 35 -101.5t58.5 -40.5t58.5 40.5t35 101.5q13 72 13 241.5 t-13 241.5q-11 61 -35 102t-58.5 41t-58.5 -41t-35 -102q-13 -72 -13 -241.5z"/>
            <glyph unicode="c"
                   d="M299 682.5q0 149.5 10 245.5t47 180q121 279 452 279q151 0 373 -24v-320q-225 24 -373 24q-57 0 -90.5 -31t-54.5 -93q-23 -69 -23 -260t23 -260q21 -63 54.5 -93.5t90.5 -30.5q156 0 387 34v-320q-223 -34 -378 -34h-9q-331 0 -452 278q-37 84 -47 180t-10 245.5z"/>
            <glyph unicode="d"
                   d="M299 683q0 268 28 388q36 149 114 232.5t179 83.5q155 0 223 -108h10v598h342v-1877h-342v87h-10q-68 -108 -223 -108q-101 0 -179 83t-114 233q-28 120 -28 388zM640 682.5q0 -169.5 13 -241.5q11 -61 35 -101.5t58.5 -40.5t58.5 40.5t35 101.5q13 72 13 241.5 t-13 241.5q-11 61 -35 102t-58.5 41t-58.5 -41t-35 -102q-13 -72 -13 -241.5z"/>
            <glyph unicode="e"
                   d="M299 683q0 153 8.5 252.5t40.5 183.5q44 119 154 193.5t266 74.5q155 0 264 -75.5t156 -192.5q23 -57 34 -134.5t13 -137t2 -164.5v-160h-596q0 -109 20 -154q35 -70 131 -70h3q145 0 400 26v-318q-243 -28 -400 -28q-165 0 -278.5 77t-164.5 201q-35 84 -44 180t-9 246z M640 816h256q-3 137 -21 181q-27 70 -107 70q-23 0 -41.5 -5t-31 -17.5t-22 -22.5t-15.5 -33.5t-9.5 -36.5t-5.5 -44.5t-2 -44t-1 -47.5z"/>
            <glyph unicode="f"
                   d="M256 875v320h341v310q0 48 3.5 81t23.5 87.5t60 98.5q53 60 147 93.5t213 33.5q113 0 236 -8v-320q-120 6 -192 6h-19q-31 0 -49.5 -3t-39.5 -14.5t-31 -38t-10 -69.5v-257h341v-320h-341v-875h-342v875h-341z"/>
            <glyph unicode="g"
                   d="M425 1279q80 108 228 108q109 0 187 -108h13v86h342v-1152q0 -228 -82 -364q-60 -99 -170.5 -155.5t-267.5 -56.5q-155 0 -315 20v320q180 -20 315 -20q96 0 137 73.5t41 182.5v44h-13q-77 -108 -187 -108q-148 0 -228 108q-127 168 -127 508q0 343 127 514zM640 768 q0 -191 44 -259q25 -40 62.5 -40t62.5 40q44 68 44 259t-44 259q-25 40 -62.5 40t-62.5 -40q-44 -68 -44 -259z"/>
            <glyph unicode="h"
                   d="M341 0v1877h342v-594h9q37 48 92 76t111 28q143 0 230 -143q32 -53 49 -122.5t19 -115.5t2 -130v-876h-342v876q0 108 -20 145q-25 45 -65 45l-1 1q-39 0 -64 -46q-20 -37 -20 -145v-876h-342z"/>
            <glyph unicode="i"
                   d="M355 875v320h669v-1195h-341v875h-328zM532 1632q0 104 66 170t170 66t170 -66t66 -170t-66 -170t-170 -66t-170 66t-66 170z"/>
            <glyph unicode="j"
                   d="M229 -23q180 -20 315 -20q51 0 83.5 39.5t44 93.5t11.5 123v662h-328v320h669v-982q0 -228 -81 -364q-127 -212 -399 -212q-155 0 -315 20v320zM532 1632q0 104 66 170t170 66t170 -66t66 -170t-66 -170t-170 -66t-170 66t-66 170z"/>
            <glyph unicode="k"
                   d="M341 0v1877h342v-948l222 436h368l-302 -590l365 -775h-368l-223 471l-62 -131v-340h-342z"/>
            <glyph unicode="l"
                   d="M512 411v1466h341v-1440q0 -72 37.5 -105t133.5 -33q91 0 171 6v-320q-148 -6 -225 -6h-21q-195 0 -308 98q-45 40 -73.5 84t-39.5 93.5t-13.5 79t-2.5 77.5z"/>
            <glyph unicode="m"
                   d="M171 0v1365h341v-46h8q68 68 163 68q99 0 150 -104q96 104 231 104q147 0 232 -115q32 -44 48 -97.5t18.5 -91.5t2.5 -110v-973h-341v973q0 56 -20 74q-23 20 -65.5 20t-65.5 -20q-20 -17 -20 -74v-973h-170v973q0 56 -20 74q-23 20 -65.5 20t-65.5 -20q-20 -17 -20 -74 v-973h-341z"/>
            <glyph unicode="n"
                   d="M341 0v1365h342v-82h9q37 48 92 76t111 28q143 0 230 -143q32 -53 49 -122.5t19 -115.5t2 -130v-876h-342v876q0 108 -20 145q-25 45 -65 45l-1 1q-39 0 -64 -46q-20 -37 -20 -145v-876h-342z"/>
            <glyph unicode="o"
                   d="M299 683q0 172 17 288.5t69 201.5q63 100 161 157t222 57t222 -57t161 -157q52 -85 69 -201.5t17 -288.5t-17 -289t-69 -202q-63 -100 -161 -156.5t-222 -56.5t-222 56.5t-161 156.5q-52 85 -69 202t-17 289zM640 683q0 -219 27 -292q33 -92 101 -92t101 92 q27 73 27 291.5t-27 292.5q-33 92 -101 92t-101 -92q-27 -73 -27 -292z"/>
            <glyph unicode="p"
                   d="M341 -512v1877h342v-86h10q68 108 223 108q101 0 179 -83.5t114 -232.5q28 -120 28 -388t-28 -388q-36 -149 -114 -232.5t-179 -83.5q-155 0 -223 108h-10v-599h-342zM683 682.5q0 -169.5 13 -241.5q11 -61 35 -101.5t58.5 -40.5t58.5 40.5t35 101.5q13 72 13 241.5 t-13 241.5q-11 61 -35 102t-58.5 41t-58.5 -41t-35 -102q-13 -72 -13 -241.5z"/>
            <glyph unicode="q"
                   d="M299 683q0 268 28 388q36 149 114 232.5t179 83.5q155 0 223 -108h10v86h342v-1877h-342v599h-10q-68 -108 -223 -108q-101 0 -179 83t-114 233q-28 120 -28 388zM640 682.5q0 -169.5 13 -241.5q11 -61 35 -101.5t58.5 -40.5t58.5 40.5t35 101.5q13 72 13 241.5 t-13 241.5q-11 61 -35 102t-58.5 41t-58.5 -41t-35 -102q-13 -72 -13 -241.5z"/>
            <glyph unicode="r"
                   d="M341 0v1365h342v-145h13q53 81 116.5 124t155.5 43q93 0 227 -18v-320q-141 18 -240 18q-111 0 -178 -71q-33 -37 -53.5 -82t-28.5 -100t-10 -89t-2 -92v-633h-342z"/>
            <glyph unicode="s"
                   d="M312 959q0 59 17.5 118t54 115t88.5 99.5t127.5 69.5t163.5 26q148 0 418 -28v-320q-273 28 -418 28q-56 0 -83 -35.5t-27 -70.5q0 -55 25.5 -86t62.5 -36q17 -3 67.5 -9t78.5 -11.5t71 -18t80.5 -34.5t72.5 -55q126 -118 126 -284q0 -88 -30.5 -167t-88 -142 t-151.5 -101t-211 -38q-153 0 -415 29v320q249 -29 415 -29q75 0 107.5 40t32.5 82q0 44 -20 73t-53 35q-24 5 -84 12.5t-111.5 20.5t-100.5 38q-92 48 -153.5 141.5t-61.5 217.5z"/>
            <glyph unicode="t"
                   d="M256 1037v328h341v342h342v-342h341v-328h-341v-544q0 -99 20.5 -146.5t77.5 -47.5q95 0 243 20v-320q-143 -20 -256 -20q-107 0 -194 38.5t-142 105.5q-43 51 -64 118.5t-24 113t-3 125.5v557h-341z"/>
            <glyph unicode="u"
                   d="M341 489v876h342v-876q0 -108 20 -145q25 -45 65 -45t65 45q20 37 20 145v876h342v-1365h-342v83h-9q-37 -48 -92 -76t-111 -28q-143 0 -230 142q-32 53 -49 122.5t-19 115.5t-2 130z"/>
            <glyph unicode="v"
                   d="M232 1365h344q75 -609 185 -1076h14q111 468 185 1076h344q-103 -785 -272 -1365h-528q-169 580 -272 1365z"/>
            <glyph unicode="w"
                   d="M145 1365h331q0 -575 44 -1032h13l112 520h246l112 -520h13q44 457 44 1032h331q0 -681 -146 -1365h-365l-105 467h-14l-105 -467h-365q-145 684 -146 1365z"/>
            <glyph unicode="x"
                   d="M212 0l337 708v13l-308 644h383l137 -320h14l137 320h383l-308 -644v-13l337 -708h-384l-165 384h-14l-165 -384h-384z"/>
            <glyph unicode="y"
                   d="M233 1365h343q67 -487 187 -908h13q112 424 185 908h342q-57 -359 -113.5 -617.5t-157.5 -576.5q-28 -88 -46.5 -139.5t-48 -118t-65 -111.5t-77.5 -73q-52 -32 -91.5 -48.5t-131 -30t-231.5 -13.5v320q97 0 147.5 6t85 31t50.5 57.5t43 103.5q4 11 5 16h-132 q-103 260 -173 545t-134 649z"/>
            <glyph unicode="z" d="M341 0v283l447 749v13h-420v320h800v-280l-447 -752v-13h474v-320h-854z"/>
            <glyph unicode="{"
                   d="M341 777v320q169 0 255.5 44t86.5 152v338q0 223 136.5 329.5t375.5 106.5v-320q-85 0 -128 -26t-43 -90v-338q0 -148 -48 -226.5t-164 -122.5v-13q116 -44 164 -123t48 -227v-337q0 -64 42.5 -90t128.5 -26v-320q-239 0 -375.5 106.5t-136.5 329.5v337q0 108 -86 152 t-256 44z"/>
            <glyph unicode="|" d="M597 -341v2389h342v-2389h-342z"/>
            <glyph unicode="}"
                   d="M341 128q85 0 128 26t43 90v337q0 148 48 227t164 123v13q-116 44 -164 122.5t-48 226.5v338q0 64 -42.5 90t-128.5 26v320q239 0 375.5 -107t136.5 -329v-338q0 -108 86 -152t256 -44v-320q-169 0 -255.5 -44t-86.5 -152v-337q0 -223 -136.5 -329.5t-375.5 -106.5v320z "/>
            <glyph unicode="~"
                   d="M171 683q0 95 8.5 166.5t34 140.5t68 113t114.5 70.5t171 26.5q72 0 131 -32t92 -69.5t73.5 -69.5t79.5 -32q53 0 67 44t14 154h341q0 -95 -8.5 -167t-34 -140.5t-68 -112.5t-114.5 -71t-171 -27q-72 0 -131 32t-92 69.5t-73.5 69.5t-79.5 32q-53 0 -67 -44t-14 -153 h-341z"/>
            <glyph unicode="&#xa0;"/>
            <glyph unicode="&#xa1;"
                   d="M537 1326.5q0 102.5 65 166.5t166 64t166 -64t65 -166.5t-65 -166.5t-166 -64t-166 64t-65 166.5zM579 -341l24 1194h330l24 -1194h-378z"/>
            <glyph unicode="&#xa2;"
                   d="M299 682.5q0 149.5 10 245.5t47 180q79 177 241 241v358h342v-323q37 -1 242 -21v-320q-225 24 -373 24q-57 0 -90.5 -31t-54.5 -93q-23 -69 -23 -260t23 -260q21 -63 54.5 -93.5t90.5 -30.5q156 0 387 34v-320q-165 -25 -256 -30v-324h-342v357q-163 64 -241 241 q-37 84 -47 180t-10 245.5z"/>
            <glyph unicode="&#xa3;"
                   d="M171 0v320h170v459h-170v320h170v96q0 149 9.5 245t44.5 180q51 124 160 201.5t269 77.5q127 0 331 -20v-320q-197 20 -318 20q-44 0 -70.5 -12t-46.5 -54q-37 -75 -37 -318v-96h341v-320h-341v-459h512v-320h-1024z"/>
            <glyph unicode="&#xa4;"
                   d="M164 405l125 126q-55 112 -54.5 237t54.5 237l-125 126l241 241l130 -129q108 48 233 48t233 -48l130 129l241 -241l-125 -126q55 -112 54.5 -237t-54.5 -237l125 -126l-241 -241l-130 129q-108 -48 -233 -48t-233 48l-130 -129zM576 768q0 -101 51.5 -152t140.5 -51 t140.5 51t51.5 152t-51.5 152t-140.5 51t-140.5 -51t-51.5 -152z"/>
            <glyph unicode="&#xa5;"
                   d="M133 1877h362q9 -39 23.5 -82.5t28 -80.5t35.5 -89t34.5 -82.5t38.5 -88t36 -78t37.5 -80t32.5 -68.5h14q199 400 266 649h362q-151 -428 -312 -717h189v-307h-341v-205h341v-307h-341v-341h-342v341h-341v307h341v205h-341v307h189q-161 289 -312 717z"/>
            <glyph unicode="&#xa6;" d="M597 -341v853h342v-853h-342zM597 1195v853h342v-853h-342z"/>
            <glyph unicode="&#xa7;"
                   d="M287 761q0 109 57 206t165 157q-93 59 -145.5 147.5t-52.5 196.5q0 83 30.5 158t88 136.5t151.5 97.5t211 36q140 0 349 -37v-324q-207 41 -349 41q-76 0 -108 -45.5t-32 -102.5q0 -91 112 -153q59 -33 135.5 -68t128.5 -62q99 -52 160 -150t61 -224q0 -109 -57 -206.5 t-165 -156.5q91 -56 144.5 -145.5t53.5 -199.5q0 -83 -30.5 -157.5t-88 -135.5t-151.5 -97t-211 -36q-155 0 -403 52v324q241 -56 403 -56q76 0 108 41t32 91q0 119 -133 182q-31 15 -77 34t-82 36t-81 44q-103 55 -163.5 153.5t-60.5 222.5zM628 761q0 -97 43.5 -143.5 t107.5 -46.5q48 0 78.5 35t40.5 77t10 88q0 96 -42 142.5t-113 46.5q-36 0 -62 -19.5t-38.5 -51.5t-18.5 -63t-6 -65z"/>
            <glyph unicode="&#xa8;"
                   d="M227 1683q0 84 66 150t150 66t150 -66t66 -150t-66 -150t-150 -66t-150 66t-66 150zM877 1683q0 84 66 150t150 66t150 -66t66 -150t-66 -150t-150 -66t-150 66t-66 150z"/>
            <glyph unicode="&#xa9;"
                   d="M149 938.5q0 242.5 59 402.5q63 173 207.5 279.5t352.5 106.5t352.5 -106t207.5 -280q59 -160 59 -402.5t-59 -402.5q-63 -173 -207.5 -279t-352.5 -106t-352.5 106t-207.5 279q-59 160 -59 402.5zM353 938.5q0 -197.5 44 -323.5q43 -125 137 -200t234 -75t234 74.5 t137 200.5q44 127 44 324t-44 324q-43 125 -137 199.5t-234 74.5t-234 -74.5t-137 -199.5q-44 -127 -44 -324.5zM469 944q0 193 31 272q64 163 295 163q91 0 202 -26v-240q-96 25 -178 26q-41 0 -62.5 -12t-29.5 -46q-7 -28 -7 -137q0 -153 11 -177q8 -19 29 -23.5t60 -4.5 q83 0 177 21v-240q-112 -21 -204 -21q-169 0 -246 82q-36 39 -54 103t-21 113.5t-3 146.5z"/>
            <glyph unicode="&#xaa;"
                   d="M325 1349q0 112 59 200t151 123q64 24 164 24h154q0 48 -16 65q-27 28 -164 28q-45 0 -298 -17v281q237 16 298 16q403 0 496 -205q25 -56 26 -144v-696h-342v89h-13q-49 -56 -98.5 -83t-118.5 -27q-125 0 -211.5 102.5t-86.5 243.5zM667 1356q0 -36 23 -61.5t63 -25.5 q57 0 78.5 33.5t21.5 92.5v61h-74q-112 0 -112 -100z"/>
            <glyph unicode="&#xab;"
                   d="M85 683v181l428 572l278 -183l-360 -473v-13l360 -474l-278 -182zM683 683v181l428 572l277 -183l-360 -473v-13l360 -474l-277 -182z"/>
            <glyph unicode="&#xac;" d="M171 699v320h1194v-667h-341v347h-853z"/>
            <glyph unicode="&#xad;" d="M171 693v320h1194v-320h-1194z"/>
            <glyph unicode="&#xae;"
                   d="M149 938.5q0 242.5 59 402.5q63 173 207.5 279.5t352.5 106.5t352.5 -106t207.5 -280q59 -160 59 -402.5t-59 -402.5q-63 -173 -207.5 -279t-352.5 -106t-352.5 106t-207.5 279q-59 160 -59 402.5zM353 938.5q0 -197.5 44 -323.5q43 -125 137 -200t234 -75t234 74.5 t137 200.5q44 127 44 324t-44 324q-43 125 -137 199.5t-234 74.5t-234 -74.5t-137 -199.5q-44 -127 -44 -324.5zM512 512v853h281q119 0 185.5 -72t66.5 -197q0 -145 -92 -215l126 -369h-220l-88 315h-48v-315h-211zM723 1027h57q32 0 43.5 16t11.5 53t-11.5 53t-43.5 16 h-57v-138z"/>
            <glyph unicode="&#xaf;" d="M341 1557v320h854v-320h-854z"/>
            <glyph unicode="&#xb0;"
                   d="M424 1706.5q0 146.5 96.5 245.5t247.5 99t247.5 -99t96.5 -245.5t-96.5 -245t-247.5 -98.5t-247.5 98.5t-96.5 245zM648 1706.5q0 -62.5 33.5 -96.5t86.5 -34t86.5 34t33.5 96.5t-33.5 96.5t-86.5 34t-86.5 -34t-33.5 -96.5z"/>
            <glyph unicode="&#xb1;"
                   d="M171 192v320h1194v-320h-1194zM171 949v320h426v267h342v-267h426v-320h-426v-266h-342v266h-426z"/>
            <glyph unicode="&#xb2;"
                   d="M333 1024v253q0 167 81.5 246.5t238.5 104.5q55 9 79 14t63.5 15.5t56.5 26t17 35.5q0 71 -204 70q-144 0 -324 -36v280q175 36 324 36q281 0 413.5 -96t132.5 -257q0 -51 -16 -91.5t-49.5 -72.5t-71 -55.5t-96 -44.5t-108 -35t-121.5 -32q-55 -12 -72 -68v-13h518v-280 h-862z"/>
            <glyph unicode="&#xb3;"
                   d="M341 1023v256q208 -20 323 -20q205 0 205 72q0 45 -67 61t-186 16h-104v256h104q241 0 241 79q0 71 -196 70q-89 0 -306 -22v256q176 23 306 22q245 0 391.5 -84t146.5 -222q0 -143 -194 -216v-14q104 -37 155 -95.5t51 -126.5q0 -143 -154 -225.5t-393 -82.5 q-137 0 -323 20z"/>
            <glyph unicode="&#xb4;" d="M580 1365l208 512h355l-222 -512h-341z"/>
            <glyph unicode="&#xb5;"
                   d="M341 -512v1877h342v-876q0 -93 18.5 -141.5t66.5 -48.5t66.5 49t18.5 141v876h342v-1365h-342v43h-13q-29 -64 -72 -64t-72 64h-13v-555h-342z"/>
            <glyph unicode="&#xb6;"
                   d="M320 1365q0 191 104 323.5t268 171.5q73 17 245 17h258v-1877h-171v1717h-171v-1717h-170v873q-161 41 -262 172.5t-101 319.5z"/>
            <glyph unicode="&#xb7;"
                   d="M424 938.5q0 114.5 72 186.5t186.5 72t186.5 -72t72 -186.5t-72 -186.5t-186.5 -72t-186.5 72t-72 186.5z"/>
            <glyph unicode="&#xb8;"
                   d="M341 -109q97 -13 158 -14q63 0 85 43q19 36 19 111h250q0 -55 -2 -87t-18.5 -84.5t-48.5 -95.5q-95 -127 -259 -127q-71 0 -184 14v240z"/>
            <glyph unicode="&#xb9;" d="M341 1501v339l368 208h315v-1024h-341v653h-14z"/>
            <glyph unicode="&#xba;"
                   d="M229 1536q0 33 1 55t5 67.5t11 78t23 78t38 78t57 68t79 57.5t105 36.5t134.5 14.5t135 -14.5t105.5 -36.5t78.5 -57.5t56.5 -68t38 -78t23.5 -78t11.5 -78t4.5 -67.5t0.5 -55t-0.5 -55t-4.5 -67.5t-11.5 -78t-23.5 -78t-38 -78t-56.5 -68t-78.5 -57.5t-105.5 -36.5 t-135 -14.5t-134.5 14.5t-105 36.5t-79 57.5t-57 68t-38 78t-23 78t-11 78t-5 67.5t-1 55zM571 1536q0 -51 3 -85.5t13 -74t34 -60t61.5 -20.5t61.5 20.5t34 60t13.5 74t3.5 85.5t-3.5 85.5t-13.5 74t-34 60t-61.5 20.5t-61.5 -20.5t-34 -60t-13 -74t-3 -85.5z"/>
            <glyph unicode="&#xbb;"
                   d="M148 293l360 474v13l-360 473l277 183l428 -572v-181l-428 -572zM745 293l360 474v13l-360 473l278 183l428 -572v-181l-428 -572z"/>
            <glyph unicode="&#xbc;"
                   d="M171 1501v339l368 208h314v-1024h-341v653h-13zM512 91v256l104 506h308l-77 -442h177v442h341v-1024h-341v262h-512z"/>
            <glyph unicode="&#xbd;"
                   d="M171 1501v339l368 208h314v-1024h-341v653h-13zM675 83q0 168 82 249t238 101q55 9 78.5 14t63 15.5t57 26t17.5 35.5q0 71 -204 71q-144 0 -324 -36v280q175 36 324 36q281 0 413 -96t132 -258q0 -51 -16 -91.5t-49.5 -72.5t-70.5 -55t-96 -44.5t-108 -35.5t-121 -31 q-55 -12 -72 -68v-14h517v-280h-861v254z"/>
            <glyph unicode="&#xbe;"
                   d="M171 1023v256q208 -20 322 -20q205 0 206 72q0 45 -67.5 61t-186.5 16h-104v256h104q241 0 242 79q0 71 -196 70q-89 0 -307 -22v256q176 23 307 22q245 0 391 -84t146 -222q0 -143 -193 -216v-14q104 -37 154.5 -95.5t50.5 -126.5q0 -143 -154 -225.5t-393 -82.5 q-137 0 -322 20zM512 91v256l104 506h308l-77 -442h177v442h341v-1024h-341v262h-512z"/>
            <glyph unicode="&#xbf;"
                   d="M325 80q0 153 42 262t141 233q89 113 89 278h342q0 -64 -3 -98.5t-14 -90t-40 -106t-75 -103.5q-140 -157 -140 -348q0 -149 197 -150q109 0 301 50v-320q-211 -49 -341 -50q-240 0 -369.5 117.5t-129.5 325.5zM537 1326.5q0 102.5 65 166.5t166 64t166 -64t65 -166.5 t-65 -166.5t-166 -64t-166 64t-65 166.5z"/>
            <glyph unicode="&#xc0;"
                   d="M140 0q135 1160 364 1877h528q229 -717 364 -1877h-345q-16 184 -44 363h-478q-28 -179 -44 -363h-345zM395 2389h354l190 -341h-291zM575 683h386q-77 503 -186 905h-14q-108 -399 -186 -905z"/>
            <glyph unicode="&#xc1;"
                   d="M140 0q135 1160 364 1877h528q229 -717 364 -1877h-345q-16 184 -44 363h-478q-28 -179 -44 -363h-345zM575 683h386q-77 503 -186 905h-14q-108 -399 -186 -905zM597 2048l190 341h354l-253 -341h-291z"/>
            <glyph unicode="&#xc2;"
                   d="M140 0q135 1160 364 1877h528q229 -717 364 -1877h-345q-16 184 -44 363h-478q-28 -179 -44 -363h-345zM267 2048l302 341h398l302 -341h-330l-171 152l-171 -152h-330zM575 683h386q-77 503 -186 905h-14q-108 -399 -186 -905z"/>
            <glyph unicode="&#xc3;"
                   d="M140 0q135 1160 364 1877h528q229 -717 364 -1877h-345q-16 184 -44 363h-478q-28 -179 -44 -363h-345zM337 2054q4 139 71.5 234.5t188.5 95.5q67 0 118.5 -19.5t88 -39t68.5 -19.5q57 0 63 84l264 -8q-3 -137 -71 -233t-189 -96q-67 0 -118.5 19.5t-88 38.5t-68.5 19 q-57 0 -63 -84zM575 683h386q-77 503 -186 905h-14q-108 -399 -186 -905z"/>
            <glyph unicode="&#xc4;"
                   d="M140 0q135 1160 364 1877h528q229 -717 364 -1877h-345q-16 184 -44 363h-478q-28 -179 -44 -363h-345zM280 2218q0 84 52.5 137t136.5 53t137 -53t53 -137t-53 -136.5t-137 -52.5t-136.5 52.5t-52.5 136.5zM575 683h386q-77 503 -186 905h-14q-108 -399 -186 -905z M877 2218q0 84 53 137t137 53t136.5 -53t52.5 -137t-52.5 -136.5t-136.5 -52.5t-137 52.5t-53 136.5z"/>
            <glyph unicode="&#xc5;"
                   d="M140 0q127 1103 343 1809q-59 88 -59 199q0 147 96.5 245.5t247.5 98.5t247.5 -98.5t96.5 -245.5q0 -111 -59 -199q216 -707 343 -1809h-345q-16 184 -44 363h-478q-28 -179 -44 -363h-345zM575 683h386q-77 503 -186 905h-14q-108 -399 -186 -905zM648 2008 q0 -63 33.5 -97t86.5 -34t86.5 34t33.5 97t-33.5 97t-86.5 34t-86.5 -34t-33.5 -97z"/>
            <glyph unicode="&#xc6;"
                   d="M137 0q0 1007 339 1877h889v-320h-256v-458h256v-320h-256v-459h256v-320h-597v357h-279q-11 -205 -10 -357h-342zM516 677h252v880h-88q-117 -431 -164 -880z"/>
            <glyph unicode="&#xc7;"
                   d="M149.5 938.5q-0.5 290.5 41.5 453.5q59 235 221.5 371t431.5 136q192 0 396 -34v-320q-264 34 -392 34q-67 0 -120 -19t-90 -50t-64 -80t-43 -101t-25.5 -120.5t-12 -130t-2.5 -139.5q0 -208 24 -334q60 -307 342 -306q145 0 423 44v-320q-144 -25 -256 -36 q-3 -135 -69 -223q-95 -127 -259 -127q-71 0 -184 14v240q97 -13 157 -14q51 0 73.5 27t28.5 79q-235 21 -380.5 154.5t-199.5 347.5q-41 163 -41.5 453.5z"/>
            <glyph unicode="&#xc8;"
                   d="M256 0v1877h1024v-320h-683v-453h512v-320h-512v-464h683v-320h-1024zM395 2389h354l190 -341h-291z"/>
            <glyph unicode="&#xc9;"
                   d="M256 0v1877h1024v-320h-683v-453h512v-320h-512v-464h683v-320h-1024zM597 2048l190 341h354l-253 -341h-291z"/>
            <glyph unicode="&#xca;"
                   d="M256 0v1877h1024v-320h-683v-453h512v-320h-512v-464h683v-320h-1024zM267 2048l302 341h398l302 -341h-330l-171 152l-171 -152h-330z"/>
            <glyph unicode="&#xcb;"
                   d="M256 0v1877h1024v-320h-683v-453h512v-320h-512v-464h683v-320h-1024zM280 2218q0 84 52.5 137t136.5 53t137 -53t53 -137t-53 -136.5t-137 -52.5t-136.5 52.5t-52.5 136.5zM877 2218q0 84 53 137t137 53t136.5 -53t52.5 -137t-52.5 -136.5t-136.5 -52.5t-137 52.5 t-53 136.5z"/>
            <glyph unicode="&#xcc;"
                   d="M256 0v320h341v1237h-341v320h1024v-320h-341v-1237h341v-320h-1024zM395 2389h354l190 -341h-291z"/>
            <glyph unicode="&#xcd;"
                   d="M256 0v320h341v1237h-341v320h1024v-320h-341v-1237h341v-320h-1024zM597 2048l190 341h354l-253 -341h-291z"/>
            <glyph unicode="&#xce;"
                   d="M256 0v320h341v1237h-341v320h1024v-320h-341v-1237h341v-320h-1024zM267 2048l302 341h398l302 -341h-330l-171 152l-171 -152h-330z"/>
            <glyph unicode="&#xcf;"
                   d="M256 0v320h341v1237h-341v320h1024v-320h-341v-1237h341v-320h-1024zM280 2218q0 84 52.5 137t136.5 53t137 -53t53 -137t-53 -136.5t-137 -52.5t-136.5 52.5t-52.5 136.5zM877 2218q0 84 53 137t137 53t136.5 -53t52.5 -137t-52.5 -136.5t-136.5 -52.5t-137 52.5 t-53 136.5z"/>
            <glyph unicode="&#xd0;"
                   d="M171 0v1877h461q429 0 625 -316q76 -120 103 -272t27 -350.5t-27 -350.5t-103 -272q-196 -316 -625 -316h-461zM512 320h148q209 0 309 171q76 128 76 448q0 317 -76 448q-100 171 -309 170h-148v-458h256v-320h-256v-459z"/>
            <glyph unicode="&#xd1;"
                   d="M256 0v1877h340l329 -1064h14v1064h341v-1877h-341l-328 1064h-14v-1064h-341zM337 2054q4 139 71.5 234.5t188.5 95.5q67 0 118.5 -19.5t88 -39t68.5 -19.5q57 0 63 84l264 -8q-3 -137 -71 -233t-189 -96q-67 0 -118.5 19.5t-88 38.5t-68.5 19q-57 0 -63 -84z"/>
            <glyph unicode="&#xd2;"
                   d="M149 938.5q0 317.5 38 465.5q53 216 201 355.5t380 139.5t380 -139.5t201 -355.5q37 -148 37.5 -465.5t-37.5 -465.5q-53 -216 -201 -355t-380 -139t-380 139t-201 355q-38 148 -38 465.5zM395 2389h354l190 -341h-291zM491 938.5q0 -234.5 20 -343.5 q24 -129 88.5 -212.5t168.5 -83.5t168.5 83t88.5 213q20 111 20 344q0 235 -20 344q-24 129 -88.5 212.5t-168.5 83.5t-168.5 -83.5t-88.5 -212.5q-20 -110 -20 -344.5z"/>
            <glyph unicode="&#xd3;"
                   d="M149 938.5q0 317.5 38 465.5q53 216 201 355.5t380 139.5t380 -139.5t201 -355.5q37 -148 37.5 -465.5t-37.5 -465.5q-53 -216 -201 -355t-380 -139t-380 139t-201 355q-38 148 -38 465.5zM491 938.5q0 -234.5 20 -343.5q24 -129 88.5 -212.5t168.5 -83.5t168.5 83 t88.5 213q20 111 20 344q0 235 -20 344q-24 129 -88.5 212.5t-168.5 83.5t-168.5 -83.5t-88.5 -212.5q-20 -110 -20 -344.5zM597 2048l190 341h354l-253 -341h-291z"/>
            <glyph unicode="&#xd4;"
                   d="M149 938.5q0 317.5 38 465.5q53 216 201 355.5t380 139.5t380 -139.5t201 -355.5q37 -148 37.5 -465.5t-37.5 -465.5q-53 -216 -201 -355t-380 -139t-380 139t-201 355q-38 148 -38 465.5zM267 2048l302 341h398l302 -341h-330l-171 152l-171 -152h-330zM491 938.5 q0 -234.5 20 -343.5q24 -129 88.5 -212.5t168.5 -83.5t168.5 83t88.5 213q20 111 20 344q0 235 -20 344q-24 129 -88.5 212.5t-168.5 83.5t-168.5 -83.5t-88.5 -212.5q-20 -110 -20 -344.5z"/>
            <glyph unicode="&#xd5;"
                   d="M149 938.5q0 317.5 38 465.5q53 216 201 355.5t380 139.5t380 -139.5t201 -355.5q37 -148 37.5 -465.5t-37.5 -465.5q-53 -216 -201 -355t-380 -139t-380 139t-201 355q-38 148 -38 465.5zM337 2054q4 139 71.5 234.5t188.5 95.5q67 0 118.5 -19.5t88 -39t68.5 -19.5 q57 0 63 84l264 -8q-3 -137 -71 -233t-189 -96q-67 0 -118.5 19.5t-88 38.5t-68.5 19q-57 0 -63 -84zM491 938.5q0 -234.5 20 -343.5q24 -129 88.5 -212.5t168.5 -83.5t168.5 83t88.5 213q20 111 20 344q0 235 -20 344q-24 129 -88.5 212.5t-168.5 83.5t-168.5 -83.5 t-88.5 -212.5q-20 -110 -20 -344.5z"/>
            <glyph unicode="&#xd6;"
                   d="M149 938.5q0 317.5 38 465.5q53 216 201 355.5t380 139.5t380 -139.5t201 -355.5q37 -148 37.5 -465.5t-37.5 -465.5q-53 -216 -201 -355t-380 -139t-380 139t-201 355q-38 148 -38 465.5zM280 2218q0 84 52.5 137t136.5 53t137 -53t53 -137t-53 -136.5t-137 -52.5 t-136.5 52.5t-52.5 136.5zM491 938.5q0 -234.5 20 -343.5q24 -129 88.5 -212.5t168.5 -83.5t168.5 83t88.5 213q20 111 20 344q0 235 -20 344q-24 129 -88.5 212.5t-168.5 83.5t-168.5 -83.5t-88.5 -212.5q-20 -110 -20 -344.5zM877 2218q0 84 53 137t137 53t136.5 -53 t52.5 -137t-52.5 -136.5t-136.5 -52.5t-137 52.5t-53 136.5z"/>
            <glyph unicode="&#xd7;"
                   d="M140 460l312 308l111 79v13l-111 79l-311 308l250 218l289 -293l81 -113h14l81 113l289 293l250 -218l-308 -306l-114 -81v-13l114 -82l308 -305l-250 -219l-289 294l-81 113h-14l-78 -111l-292 -296z"/>
            <glyph unicode="&#xd8;"
                   d="M61 88l162 272q-45 115 -59.5 247t-14.5 332q0 312 38 465q53 216 201 355.5t380 139.5q179 0 315 -90l93 156l299 -176l-162 -272q45 -113 59.5 -243t14.5 -335q0 -312 -38 -466q-53 -216 -201 -355t-380 -139q-179 0 -315 89l-93 -156zM491 512h1l7 12zM491 939 q0 -136 4 -200l446 752q-71 88 -173 88q-104 0 -169.5 -83.5t-87.5 -212.5q-20 -109 -20 -344zM595 387q71 -88 173 -88q104 0 169.5 83t87.5 213q20 111 20 344q0 136 -4 200z"/>
            <glyph unicode="&#xd9;"
                   d="M171 683v1194h341v-1194q0 -125 9 -171q20 -96 86 -154.5t161 -58.5t161 58.5t86 154.5q9 45 9 171v1194h341v-1194q0 -188 -21 -279q-45 -188 -202 -306.5t-374 -118.5t-374 118.5t-202 306.5q-21 91 -21 279zM395 2389h354l190 -341h-291z"/>
            <glyph unicode="&#xda;"
                   d="M171 683v1194h341v-1194q0 -125 9 -171q20 -96 86 -154.5t161 -58.5t161 58.5t86 154.5q9 45 9 171v1194h341v-1194q0 -188 -21 -279q-45 -188 -202 -306.5t-374 -118.5t-374 118.5t-202 306.5q-21 91 -21 279zM597 2048l190 341h354l-253 -341h-291z"/>
            <glyph unicode="&#xdb;"
                   d="M171 683v1194h341v-1194q0 -125 9 -171q20 -96 86 -154.5t161 -58.5t161 58.5t86 154.5q9 45 9 171v1194h341v-1194q0 -188 -21 -279q-45 -188 -202 -306.5t-374 -118.5t-374 118.5t-202 306.5q-21 91 -21 279zM267 2048l302 341h398l302 -341h-330l-171 152l-171 -152 h-330z"/>
            <glyph unicode="&#xdc;"
                   d="M171 683v1194h341v-1194q0 -125 9 -171q20 -96 86 -154.5t161 -58.5t161 58.5t86 154.5q9 45 9 171v1194h341v-1194q0 -188 -21 -279q-45 -188 -202 -306.5t-374 -118.5t-374 118.5t-202 306.5q-21 91 -21 279zM280 2218q0 84 52.5 137t136.5 53t137 -53t53 -137 t-53 -136.5t-137 -52.5t-136.5 52.5t-52.5 136.5zM877 2218q0 84 53 137t137 53t136.5 -53t52.5 -137t-52.5 -136.5t-136.5 -52.5t-137 52.5t-53 136.5z"/>
            <glyph unicode="&#xdd;"
                   d="M133 1877h362q11 -49 26 -102.5t37 -116t37.5 -106t44.5 -117.5t40.5 -102.5t44 -108t36.5 -89.5h14q197 453 266 742h362q-104 -319 -213.5 -576.5t-250.5 -479.5v-821h-342v821q-141 221 -250.5 479.5t-213.5 576.5zM597 2048l190 341h354l-253 -341h-291z"/>
            <glyph unicode="&#xde;"
                   d="M171 0v1877h341v-341h165q197 0 282 -20q189 -45 308.5 -198t119.5 -374t-119.5 -374.5t-308.5 -197.5q-84 -20 -282 -20h-165v-352h-341zM512 672h168q115 0 167 11q91 19 144.5 89.5t53.5 171.5q0 103 -54.5 173t-143.5 88q-52 11 -167 11h-168v-544z"/>
            <glyph unicode="&#xdf;"
                   d="M341 0v1437q0 209 103.5 335.5t304.5 126.5q187 0 300.5 -123.5t113.5 -311.5q0 -123 -29 -208t-107 -132v-13q120 -51 165 -177.5t45 -349.5q0 -181 -34 -312.5t-115 -212t-205 -80.5q-59 0 -144 14l21 318q51 -5 69 -6q44 0 55.5 69.5t11.5 209.5q0 113 -12 190 t-46 126t-89 49v320q72 0 72 171q0 139 -66 139q-41 0 -56.5 -35.5t-15.5 -106.5v-1437h-342z"/>
            <glyph unicode="&#xe0;"
                   d="M299 401q0 196 117 323q43 45 91.5 74t100 39.5t82.5 13t75 2.5h88v139q0 27 -22.5 50t-58.5 23q-123 0 -345 -25v321q220 26 384 26q115 0 201.5 -35.5t142.5 -134.5q40 -71 40 -218v-999h-342v71h-13q-75 -92 -189 -92q-141 0 -246.5 121t-105.5 301zM395 1877h354 l190 -341h-291zM640 404q0 -45 21.5 -75t61.5 -30q45 0 73.5 22.5t40 64.5t14 71.5t2.5 73.5v30h-90q-65 0 -94 -38t-29 -119z"/>
            <glyph unicode="&#xe1;"
                   d="M299 401q0 196 117 323q43 45 91.5 74t100 39.5t82.5 13t75 2.5h88v139q0 27 -22.5 50t-58.5 23q-123 0 -345 -25v321q220 26 384 26q115 0 201.5 -35.5t142.5 -134.5q40 -71 40 -218v-999h-342v71h-13q-75 -92 -189 -92q-141 0 -246.5 121t-105.5 301zM597 1536l190 341 h354l-253 -341h-291zM640 404q0 -45 21.5 -75t61.5 -30q45 0 73.5 22.5t40 64.5t14 71.5t2.5 73.5v30h-90q-65 0 -94 -38t-29 -119z"/>
            <glyph unicode="&#xe2;"
                   d="M267 1536l302 341h398l302 -341h-330l-171 152l-171 -152h-330zM299 401q0 196 117 323q43 45 91.5 74t100 39.5t82.5 13t75 2.5h88v139q0 27 -22.5 50t-58.5 23q-123 0 -345 -25v321q220 26 384 26q115 0 201.5 -35.5t142.5 -134.5q40 -71 40 -218v-999h-342v71h-13 q-75 -92 -189 -92q-141 0 -246.5 121t-105.5 301zM640 404q0 -45 21.5 -75t61.5 -30q45 0 73.5 22.5t40 64.5t14 71.5t2.5 73.5v30h-90q-65 0 -94 -38t-29 -119z"/>
            <glyph unicode="&#xe3;"
                   d="M299 401q0 196 117 323q43 45 91.5 74t100 39.5t82.5 13t75 2.5h88v139q0 27 -22.5 50t-58.5 23q-123 0 -345 -25v321q220 26 384 26q115 0 201.5 -35.5t142.5 -134.5q40 -71 40 -218v-999h-342v71h-13q-75 -92 -189 -92q-141 0 -246.5 121t-105.5 301zM337 1542 q4 139 71.5 234.5t188.5 95.5q67 0 118.5 -19.5t88 -39t68.5 -19.5q57 0 63 84l264 -8q-3 -137 -71 -233t-189 -96q-67 0 -118.5 19.5t-88 38.5t-68.5 19q-57 0 -63 -84zM640 404q0 -45 21.5 -75t61.5 -30q45 0 73.5 22.5t40 64.5t14 71.5t2.5 73.5v30h-90q-65 0 -94 -38 t-29 -119z"/>
            <glyph unicode="&#xe4;"
                   d="M280 1706q0 84 52.5 137t136.5 53t137 -53t53 -137t-53 -136.5t-137 -52.5t-136.5 52.5t-52.5 136.5zM299 401q0 196 117 323q43 45 91.5 74t100 39.5t82.5 13t75 2.5h88v139q0 27 -22.5 50t-58.5 23q-123 0 -345 -25v321q220 26 384 26q115 0 201.5 -35.5t142.5 -134.5 q40 -71 40 -218v-999h-342v71h-13q-75 -92 -189 -92q-141 0 -246.5 121t-105.5 301zM640 404q0 -45 21.5 -75t61.5 -30q45 0 73.5 22.5t40 64.5t14 71.5t2.5 73.5v30h-90q-65 0 -94 -38t-29 -119zM877 1706q0 84 53 137t137 53t136.5 -53t52.5 -137t-52.5 -136.5 t-136.5 -52.5t-137 52.5t-53 136.5z"/>
            <glyph unicode="&#xe5;"
                   d="M299 401q0 196 117 323q43 45 91.5 74t100 39.5t82.5 13t75 2.5h88v139q0 27 -22.5 50t-58.5 23q-123 0 -345 -25v321q9 1 30 4q-33 71 -33 152q0 147 96.5 245.5t247.5 98.5t247.5 -98.5t96.5 -245.5q0 -105 -55 -192q60 -40 98 -108q40 -71 40 -218v-999h-342v71h-13 q-75 -92 -189 -92q-141 0 -246.5 121t-105.5 301zM640 404q0 -45 21.5 -75t61.5 -30q45 0 73.5 22.5t40 64.5t14 71.5t2.5 73.5v30h-90q-65 0 -94 -38t-29 -119zM648 1517.5q0 -62.5 33.5 -96.5t86.5 -34t86.5 34t33.5 96.5t-33.5 96.5t-86.5 34t-86.5 -34t-33.5 -96.5z"/>
            <glyph unicode="&#xe6;"
                   d="M128 412q0 137 54.5 247t154.5 156q61 28 156 28h150v101q0 68 -33.5 98t-140.5 30q-96 0 -298 -24v320q200 24 298 24q53 0 90.5 -4t83 -15.5t83 -39.5t65.5 -70h13q88 124 249 124q128 0 211.5 -93.5t115.5 -224.5q25 -103 25 -300v-246h-512v-58q0 -37 6 -61.5 t26 -51.5t66 -40t118 -13q57 0 256 16v-320q-201 -16 -260 -16q-233 0 -334 141h-14q-101 -141 -293 -141q-109 0 -187 63t-113.5 159t-35.5 211zM379 412q0 -44 22 -78.5t63 -34.5q44 0 77.5 14.5t52.5 36.5t30.5 54.5t15 62.5t3.5 68v14h-140q-124 0 -124 -137zM895 816 h221q0 44 -0.5 66t-4 57.5t-10 53.5t-17.5 38t-29 28t-42 8q-37 0 -61.5 -19.5t-36.5 -58t-16 -77.5t-4 -96z"/>
            <glyph unicode="&#xe7;"
                   d="M299 682.5q0 149.5 10 245.5t47 180q121 279 452 279q151 0 373 -24v-320q-225 24 -373 24q-57 0 -90.5 -31t-54.5 -93q-23 -69 -23 -260t23 -260q21 -63 54.5 -93.5t90.5 -30.5q156 0 387 34v-320q-100 -16 -171 -22q-3 -137 -69 -227q-95 -127 -259 -127q-71 0 -184 14 v240q97 -13 157 -14q63 0 86 43q12 24 16 60q-301 16 -415 277q-37 84 -47 180t-10 245.5z"/>
            <glyph unicode="&#xe8;"
                   d="M299 683q0 153 8.5 252.5t40.5 183.5q44 119 154 193.5t266 74.5q155 0 264 -75.5t156 -192.5q23 -57 34 -134.5t13 -137t2 -164.5v-160h-596q0 -109 20 -154q35 -71 134 -70q145 0 400 26v-318q-243 -28 -400 -28q-165 0 -278.5 77t-164.5 201q-35 84 -44 180t-9 246z M395 1877h354l190 -341h-291zM640 816h256q-3 137 -21 181q-27 70 -107 70q-23 0 -41.5 -5t-31 -17.5t-22 -22.5t-15.5 -33.5t-9.5 -36.5t-5.5 -44.5t-2 -44t-1 -47.5z"/>
            <glyph unicode="&#xe9;"
                   d="M299 683q0 153 8.5 252.5t40.5 183.5q44 119 154 193.5t266 74.5q155 0 264 -75.5t156 -192.5q23 -57 34 -134.5t13 -137t2 -164.5v-160h-596q0 -109 20 -154q35 -71 134 -70q145 0 400 26v-318q-243 -28 -400 -28q-165 0 -278.5 77t-164.5 201q-35 84 -44 180t-9 246z M597 1536l190 341h354l-253 -341h-291zM640 816h256q-3 137 -21 181q-27 70 -107 70q-23 0 -41.5 -5t-31 -17.5t-22 -22.5t-15.5 -33.5t-9.5 -36.5t-5.5 -44.5t-2 -44t-1 -47.5z"/>
            <glyph unicode="&#xea;"
                   d="M267 1536l302 341h398l302 -341h-330l-171 152l-171 -152h-330zM299 683q0 153 8.5 252.5t40.5 183.5q44 119 154 193.5t266 74.5q155 0 264 -75.5t156 -192.5q23 -57 34 -134.5t13 -137t2 -164.5v-160h-596q0 -109 20 -154q35 -71 134 -70q145 0 400 26v-318 q-243 -28 -400 -28q-165 0 -278.5 77t-164.5 201q-35 84 -44 180t-9 246zM640 816h256q-3 137 -21 181q-27 70 -107 70q-23 0 -41.5 -5t-31 -17.5t-22 -22.5t-15.5 -33.5t-9.5 -36.5t-5.5 -44.5t-2 -44t-1 -47.5z"/>
            <glyph unicode="&#xeb;"
                   d="M280 1706q0 84 52.5 137t136.5 53t137 -53t53 -137t-53 -136.5t-137 -52.5t-136.5 52.5t-52.5 136.5zM299 683q0 153 8.5 252.5t40.5 183.5q44 119 154 193.5t266 74.5q155 0 264 -75.5t156 -192.5q23 -57 34 -134.5t13 -137t2 -164.5v-160h-596q0 -109 20 -154 q35 -71 134 -70q145 0 400 26v-318q-243 -28 -400 -28q-165 0 -278.5 77t-164.5 201q-35 84 -44 180t-9 246zM640 816h256q-3 137 -21 181q-27 70 -107 70q-23 0 -41.5 -5t-31 -17.5t-22 -22.5t-15.5 -33.5t-9.5 -36.5t-5.5 -44.5t-2 -44t-1 -47.5zM877 1706q0 84 53 137 t137 53t136.5 -53t52.5 -137t-52.5 -136.5t-136.5 -52.5t-137 52.5t-53 136.5z"/>
            <glyph unicode="&#xec;" d="M341 1045v320h683v-1365h-341v1045h-342zM395 1877h354l190 -341h-291z"/>
            <glyph unicode="&#xed;" d="M341 1045v320h683v-1365h-341v1045h-342zM597 1536l190 341h354l-253 -341h-291z"/>
            <glyph unicode="&#xee;"
                   d="M267 1536l302 341h398l302 -341h-330l-171 152l-171 -152h-330zM341 1045v320h683v-1365h-341v1045h-342z"/>
            <glyph unicode="&#xef;"
                   d="M280 1706q0 84 52.5 137t136.5 53t137 -53t53 -137t-53 -136.5t-137 -52.5t-136.5 52.5t-52.5 136.5zM341 1045v320h683v-1365h-341v1045h-342zM877 1706q0 84 53 137t137 53t136.5 -53t52.5 -137t-52.5 -136.5t-136.5 -52.5t-137 52.5t-53 136.5z"/>
            <glyph unicode="&#xf0;"
                   d="M299 597q0 220 40 338q37 115 120.5 187.5t201.5 72.5q92 0 174 -62h13q-4 169 -99 314l-145 -151l-144 139l156 162q-71 62 -164 114l124 242q132 -67 237 -152l163 170l144 -139l-165 -171q149 -180 215.5 -438t66.5 -626q0 -113 -8.5 -189t-36.5 -148 q-48 -121 -155.5 -201t-241.5 -80q-337 0 -451 281q-29 72 -37 146.5t-8 190.5zM653 597q0 -115 14 -168q12 -48 38.5 -76t62.5 -28t62.5 28t38.5 76q13 53 14 168q0 117 -12 168q-11 48 -37.5 76t-65.5 28q-77 0 -101 -104q-13 -59 -14 -168z"/>
            <glyph unicode="&#xf1;"
                   d="M337 1542q4 139 71.5 234.5t188.5 95.5q67 0 118.5 -19.5t88 -39t68.5 -19.5q57 0 63 84l264 -8q-3 -137 -71 -233t-189 -96q-67 0 -118.5 19.5t-88 38.5t-68.5 19q-57 0 -63 -84zM341 0v1365h342v-82h9q37 48 92 76t111 28q143 0 230 -143q32 -53 49 -122.5t19 -115.5 t2 -130v-876h-342v876q0 108 -20 145q-25 45 -65 45.5t-65 -45.5q-20 -37 -20 -145v-876h-342z"/>
            <glyph unicode="&#xf2;"
                   d="M299 683q0 172 17 288.5t69 201.5q63 100 161 157t222 57t222 -57t161 -157q52 -85 69 -201.5t17 -288.5t-17 -289t-69 -202q-63 -100 -161 -156.5t-222 -56.5t-222 56.5t-161 156.5q-52 85 -69 202t-17 289zM395 1877h354l190 -341h-291zM640 683q0 -219 27 -292 q33 -92 101 -92t101 92q27 73 27 291.5t-27 292.5q-33 92 -101 92t-101 -92q-27 -73 -27 -292z"/>
            <glyph unicode="&#xf3;"
                   d="M299 683q0 172 17 288.5t69 201.5q63 100 161 157t222 57t222 -57t161 -157q52 -85 69 -201.5t17 -288.5t-17 -289t-69 -202q-63 -100 -161 -156.5t-222 -56.5t-222 56.5t-161 156.5q-52 85 -69 202t-17 289zM597 1536l190 341h354l-253 -341h-291zM640 683 q0 -219 27 -292q33 -92 101 -92t101 92q27 73 27 291.5t-27 292.5q-33 92 -101 92t-101 -92q-27 -73 -27 -292z"/>
            <glyph unicode="&#xf4;"
                   d="M267 1536l302 341h398l302 -341h-330l-171 152l-171 -152h-330zM299 683q0 172 17 288.5t69 201.5q63 100 161 157t222 57t222 -57t161 -157q52 -85 69 -201.5t17 -288.5t-17 -289t-69 -202q-63 -100 -161 -156.5t-222 -56.5t-222 56.5t-161 156.5q-52 85 -69 202 t-17 289zM640 683q0 -219 27 -292q33 -92 101 -92t101 92q27 73 27 291.5t-27 292.5q-33 92 -101 92t-101 -92q-27 -73 -27 -292z"/>
            <glyph unicode="&#xf5;"
                   d="M299 683q0 172 17 288.5t69 201.5q63 100 161 157t222 57t222 -57t161 -157q52 -85 69 -201.5t17 -288.5t-17 -289t-69 -202q-63 -100 -161 -156.5t-222 -56.5t-222 56.5t-161 156.5q-52 85 -69 202t-17 289zM337 1542q4 139 71.5 234.5t188.5 95.5q67 0 118.5 -19.5 t88 -39t68.5 -19.5q57 0 63 84l264 -8q-3 -137 -71 -233t-189 -96q-67 0 -118.5 19.5t-88 38.5t-68.5 19q-57 0 -63 -84zM640 683q0 -219 27 -292q33 -92 101 -92t101 92q27 73 27 291.5t-27 292.5q-33 92 -101 92t-101 -92q-27 -73 -27 -292z"/>
            <glyph unicode="&#xf6;"
                   d="M280 1706q0 84 52.5 137t136.5 53t137 -53t53 -137t-53 -136.5t-137 -52.5t-136.5 52.5t-52.5 136.5zM299 683q0 172 17 288.5t69 201.5q63 100 161 157t222 57t222 -57t161 -157q52 -85 69 -201.5t17 -288.5t-17 -289t-69 -202q-63 -100 -161 -156.5t-222 -56.5 t-222 56.5t-161 156.5q-52 85 -69 202t-17 289zM640 683q0 -219 27 -292q33 -92 101 -92t101 92q27 73 27 291.5t-27 292.5q-33 92 -101 92t-101 -92q-27 -73 -27 -292zM877 1706q0 84 53 137t137 53t136.5 -53t52.5 -137t-52.5 -136.5t-136.5 -52.5t-137 52.5t-53 136.5z "/>
            <glyph unicode="&#xf7;"
                   d="M171 693v320h1194v-320h-1194zM559 332q0 92 58.5 150.5t150.5 58.5t150.5 -58.5t58.5 -150.5t-58.5 -150.5t-150.5 -58.5t-150.5 58.5t-58.5 150.5zM559 1375q0 92 58.5 150.5t150.5 58.5t150.5 -58.5t58.5 -150.5t-58.5 -151t-150.5 -59t-150.5 59t-58.5 151z"/>
            <glyph unicode="&#xf8;"
                   d="M181 84l154 227q-36 124 -36 372q0 172 17 288.5t69 201.5q63 100 161 157t222 57q140 0 249 -74l92 136l246 -168l-154 -226q36 -124 36 -372q0 -172 -17 -289t-69 -202q-63 -100 -161 -156.5t-222 -56.5q-140 0 -249 73l-92 -136zM640 612l235 345q-13 49 -40.5 79.5 t-66.5 30.5q-68 0 -101 -92q-27 -73 -27 -292v-71zM661 408q13 -49 40.5 -79t66.5 -30q68 0 101 92q27 73 27 292v70z"/>
            <glyph unicode="&#xf9;"
                   d="M341 489v876h342v-876q0 -108 20 -145q25 -45 65 -45t65 45q20 37 20 145v876h342v-1365h-342v83h-9q-37 -48 -92 -76t-111 -28q-143 0 -230 142q-32 53 -49 122.5t-19 115.5t-2 130zM395 1877h354l190 -341h-291z"/>
            <glyph unicode="&#xfa;"
                   d="M341 489v876h342v-876q0 -108 20 -145q25 -45 65 -45t65 45q20 37 20 145v876h342v-1365h-342v83h-9q-37 -48 -92 -76t-111 -28q-143 0 -230 142q-32 53 -49 122.5t-19 115.5t-2 130zM597 1536l190 341h354l-253 -341h-291z"/>
            <glyph unicode="&#xfb;"
                   d="M267 1536l302 341h398l302 -341h-330l-171 152l-171 -152h-330zM341 489v876h342v-876q0 -108 20 -145q25 -45 65 -45t65 45q20 37 20 145v876h342v-1365h-342v83h-9q-37 -48 -92 -76t-111 -28q-143 0 -230 142q-32 53 -49 122.5t-19 115.5t-2 130z"/>
            <glyph unicode="&#xfc;"
                   d="M280 1706q0 84 52.5 137t136.5 53t137 -53t53 -137t-53 -136.5t-137 -52.5t-136.5 52.5t-52.5 136.5zM341 489v876h342v-876q0 -108 20 -145q25 -45 65 -45t65 45q20 37 20 145v876h342v-1365h-342v83h-9q-37 -48 -92 -76t-111 -28q-143 0 -230 142q-32 53 -49 122.5 t-19 115.5t-2 130zM877 1706q0 84 53 137t137 53t136.5 -53t52.5 -137t-52.5 -136.5t-136.5 -52.5t-137 52.5t-53 136.5z"/>
            <glyph unicode="&#xfd;"
                   d="M233 1365h343q67 -487 187 -908h13q112 424 185 908h342q-57 -359 -113.5 -617.5t-157.5 -576.5q-28 -88 -46.5 -139.5t-48 -118t-65 -111.5t-77.5 -73q-52 -32 -91.5 -48.5t-131 -30t-231.5 -13.5v320q97 0 147.5 6t85 31t50.5 57.5t43 103.5q4 11 5 16h-132 q-103 260 -173 545t-134 649zM597 1536l190 341h354l-253 -341h-291z"/>
            <glyph unicode="&#xfe;"
                   d="M341 -512v2389h342v-598h10q68 108 223 108q101 0 179 -83.5t114 -232.5q28 -120 28 -388t-28 -388q-36 -149 -114 -232.5t-179 -83.5q-155 0 -223 108h-10v-599h-342zM683 682.5q0 -169.5 13 -241.5q11 -61 35 -101.5t58.5 -40.5t58.5 40.5t35 101.5q13 72 13 241.5 t-13 241.5q-11 61 -35 102t-58.5 41t-58.5 -41t-35 -102q-13 -72 -13 -241.5z"/>
            <glyph unicode="&#xff;"
                   d="M233 1365h343q67 -487 187 -908h13q112 424 185 908h342q-57 -359 -113.5 -617.5t-157.5 -576.5q-28 -88 -46.5 -139.5t-48 -118t-65 -111.5t-77.5 -73q-52 -32 -91.5 -48.5t-131 -30t-231.5 -13.5v320q97 0 147.5 6t85 31t50.5 57.5t43 103.5q4 11 5 16h-132 q-103 260 -173 545t-134 649zM280 1706q0 84 52.5 137t136.5 53t137 -53t53 -137t-53 -136.5t-137 -52.5t-136.5 52.5t-52.5 136.5zM877 1706q0 84 53 137t137 53t136.5 -53t52.5 -137t-52.5 -136.5t-136.5 -52.5t-137 52.5t-53 136.5z"/>
            <glyph unicode="&#x152;"
                   d="M149 939q0 117 5.5 211t19.5 204t46 201.5t80 153.5q129 168 383 168h682v-320h-256v-458h256v-320h-256v-459h256v-320h-682q-253 0 -383 168q-91 117 -121 315.5t-30 455.5zM491 938.5q0 -273.5 26 -421.5q17 -95 56 -146t110 -51h85v1237h-85q-71 0 -109.5 -51 t-56.5 -146q-26 -148 -26 -421.5z"/>
            <glyph unicode="&#x153;"
                   d="M128 682.5q0 94.5 3.5 161.5t15.5 148t33 139t60.5 114t95.5 94q71 48 155 48q196 0 272 -183h13q97 183 277 183q128 0 211.5 -93.5t115.5 -224.5q25 -103 25 -300v-210l-552 1q0 -45 3.5 -77t19 -69.5t41.5 -61t75 -38.5t117 -15q41 0 256 17v-320q-181 -17 -260 -17 q-227 0 -326 165h-14q-32 -73 -100 -119t-174 -46q-84 0 -155 48q-56 37 -95.5 93t-60.5 114t-33 139.5t-15.5 148t-3.5 161zM469 683q0 -257 42 -336q26 -48 65 -48q41 0 68 56q39 84 39 328q0 255 -42 336q-24 48 -65 48q-44 0 -71 -62q-36 -85 -36 -322zM855 843h209 q-1 45 -5 77.5t-14 69.5t-32 57t-54 20q-37 0 -62 -38t-33 -85t-9 -101z"/>
            <glyph unicode="&#x178;"
                   d="M133 1877h362q11 -49 26 -102.5t37 -116t37.5 -106t44.5 -117.5t40.5 -102.5t44 -108t36.5 -89.5h14q197 453 266 742h362q-104 -319 -213.5 -576.5t-250.5 -479.5v-821h-342v821q-141 221 -250.5 479.5t-213.5 576.5zM280 2218q0 84 52.5 137t136.5 53t137 -53t53 -137 t-53 -136.5t-137 -52.5t-136.5 52.5t-52.5 136.5zM877 2218q0 84 53 137t137 53t136.5 -53t52.5 -137t-52.5 -136.5t-136.5 -52.5t-137 52.5t-53 136.5z"/>
            <glyph unicode="&#x2000;" horiz-adv-x="1204"/>
            <glyph unicode="&#x2001;" horiz-adv-x="2408"/>
            <glyph unicode="&#x2002;" horiz-adv-x="1204"/>
            <glyph unicode="&#x2003;" horiz-adv-x="2408"/>
            <glyph unicode="&#x2004;" horiz-adv-x="802"/>
            <glyph unicode="&#x2005;" horiz-adv-x="602"/>
            <glyph unicode="&#x2006;" horiz-adv-x="401"/>
            <glyph unicode="&#x2007;" horiz-adv-x="401"/>
            <glyph unicode="&#x2008;" horiz-adv-x="301"/>
            <glyph unicode="&#x2009;" horiz-adv-x="481"/>
            <glyph unicode="&#x200a;" horiz-adv-x="133"/>
            <glyph unicode="&#x2010;" d="M171 693v320h1194v-320h-1194z"/>
            <glyph unicode="&#x2011;" d="M171 693v320h1194v-320h-1194z"/>
            <glyph unicode="&#x2012;" d="M171 693v320h1194v-320h-1194z"/>
            <glyph unicode="&#x2013;" d="M171 693v320h1194v-320h-1194z"/>
            <glyph unicode="&#x2014;" d="M171 693v320h1194v-320h-1194z"/>
            <glyph unicode="&#x2018;"
                   d="M512 1195v192q0 71 3.5 112.5t28 109.5t72.5 124q65 76 170.5 121t237.5 45v-320q-99 0 -141 -66q-29 -47 -30 -126v-192h-341z"/>
            <glyph unicode="&#x2019;"
                   d="M512 1173v320q100 0 141 66q29 47 30 126v192h341v-192q0 -71 -3.5 -112.5t-28 -109.5t-72.5 -124q-65 -76 -170.5 -121t-237.5 -45z"/>
            <glyph unicode="&#x201a;"
                   d="M512 -213q100 0 141 65q29 47 30 127v192h341v-192q0 -71 -3.5 -113t-28 -110t-72.5 -124q-65 -76 -170.5 -120.5t-237.5 -44.5v320z"/>
            <glyph unicode="&#x201c;"
                   d="M171 1195v192q0 71 3 112.5t28 109.5t73 124q65 76 170.5 121t237.5 45v-320q-99 0 -142 -66q-29 -47 -29 -126v-192h-341zM853 1195v192q0 71 3.5 112.5t28 109.5t72.5 124q65 76 170.5 121t237.5 45v-320q-99 0 -141 -66q-29 -47 -29 -126v-192h-342z"/>
            <glyph unicode="&#x201d;"
                   d="M171 1173v320q99 0 141 66q29 47 29 126v192h342v-192q0 -71 -3.5 -112.5t-28 -109.5t-72.5 -124q-65 -76 -170.5 -121t-237.5 -45zM853 1173v320q100 0 142 66q29 47 29 126v192h341v-192q0 -71 -3 -112.5t-28 -109.5t-73 -124q-65 -76 -170.5 -121t-237.5 -45z"/>
            <glyph unicode="&#x201e;"
                   d="M171 -213q99 0 141 65q29 47 29 127v192h342v-192q0 -71 -3.5 -113t-28 -110t-72.5 -124q-65 -76 -170.5 -120.5t-237.5 -44.5v320zM853 -213q100 0 142 65q29 47 29 127v192h341v-192q0 -71 -3 -113t-28 -110t-73 -124q-65 -76 -170.5 -120.5t-237.5 -44.5v320z"/>
            <glyph unicode="&#x2022;"
                   d="M491 938.5q0 122.5 77 200t200 77.5t200 -77.5t77 -200t-77 -200t-200 -77.5t-200 77.5t-77 200z"/>
            <glyph unicode="&#x2026;"
                   d="M189 128q0 67 41.5 108t108 41t108 -41t41.5 -108t-41.5 -108t-108 -41t-108 41t-41.5 108zM616 128q0 67 41.5 108t108 41t108 -41t41.5 -108t-41.5 -108t-108 -41t-108 41t-41.5 108zM1043 128q0 67 41 108t108 41t108 -41t41 -108t-41 -108t-108 -41t-108 41t-41 108z "/>
            <glyph unicode="&#x202f;" horiz-adv-x="481"/>
            <glyph unicode="&#x2039;" d="M171 727v253l794 749l235 -234l-681 -635v-13l681 -635l-235 -235z"/>
            <glyph unicode="&#x203a;" d="M165 212l682 635v13l-682 635l235 234l795 -749v-253l-795 -750z"/>
            <glyph unicode="&#x205f;" horiz-adv-x="602"/>
            <glyph unicode="&#x20ac;"
                   d="M169 683v160h155v192h-155v160h156q3 119 24.5 222.5t65.5 192.5t106.5 153t152 100t197.5 36q100 0 284 -8v-320q-192 8 -284 8q-68 0 -115 -55t-67.5 -139t-21.5 -190h357v-160h-365v-192h365v-160h-356q1 -177 51 -280.5t152 -103.5q121 0 324 17v-320 q-193 -17 -324 -17q-180 0 -303.5 90.5t-181 246t-59.5 367.5h-158z"/>
            <glyph unicode="&#x25fc;" horiz-adv-x="1366" d="M0 0v1367h1367v-1367h-1367z"/>
        </font>
</defs>
</svg>
