<?xml version="1.0" encoding="UTF-8"?>
<svg width="74px" height="80px" viewBox="0 0 74 80" version="1.1" xmlns="http://www.w3.org/2000/svg" xmlns:xlink="http://www.w3.org/1999/xlink">
    <!-- Generator: Sketch 55.2 (78181) - https://sketchapp.com -->
    <title>logos/arrow-core/white copy 4</title>
    <desc>Created with Sketch.</desc>
    <g id="Arrow-Website" stroke="none" stroke-width="1" fill="none" fill-rule="evenodd">
        <g id="Media" transform="translate(-494.000000, -451.000000)" stroke="#F5F7F8" stroke-width="1.60000002">
            <g id="Libraries" transform="translate(331.000000, 452.000000)">
                <g id="arrow-core" transform="translate(156.000000, 1.000000)">
                    <g id="logos/arrow-core/white">
                        <polyline id="lines6" transform="translate(44.000001, 35.200001) scale(-1, 1) translate(-44.000001, -35.200001) " points="60.9116415 61.2558212 79.2000012 70.400001 44.0000007 0 44.0000007 0 8.80000013 70.400001 27.0910095 61.2544964"></polyline>
                        <polygon id="lines5" points="43.9974789 35.9333339 60.8666676 46.2000007 60.861624 66.7333343 43.9974789 77.0000011 27.1333337 66.7333343 27.1333337 46.2000007"></polygon>
                        <polygon id="lines4" points="43.9989042 47.6666674 51.3333341 52.0666674 51.3311412 60.8666676 43.9989042 65.2666676 36.6666672 60.8666676 36.6666672 52.0666674"></polygon>
                        <polygon id="lines3" points="43.9989042 47.6666674 51.3333341 52.0666674 51.3311412 60.8666676 43.9989042 65.2666676 36.6666672 60.8666676 36.6666672 52.0666674"></polygon>
                        <polyline id="lines2" points="27.1333337 46.2000007 44.0000007 56.4666675 60.8666676 46.2000007"></polyline>
                        <path d="M44.0000007,76.9444998 L44.0000007,56.1000008" id="lines1"></path>
                    </g>
                </g>
            </g>
        </g>
    </g>
</svg>