<?xml version="1.0" encoding="UTF-8"?>
<svg width="74px" height="75px" viewBox="0 0 74 75" version="1.1" xmlns="http://www.w3.org/2000/svg" xmlns:xlink="http://www.w3.org/1999/xlink">
    <!-- Generator: Sketch 55.2 (78181) - https://sketchapp.com -->
    <title>logos/arrow-core/white copy 3</title>
    <desc>Created with Sketch.</desc>
    <g id="Arrow-Website" stroke="none" stroke-width="1" fill="none" fill-rule="evenodd">
        <g id="Media" transform="translate(-938.000000, -451.000000)" stroke="#F5F7F8" stroke-width="1.60000002">
            <g id="Libraries" transform="translate(331.000000, 452.000000)">
                <g id="arrow-incubator" transform="translate(584.000000, 1.000000)">
                    <g id="logos/arrow-incubator/white" transform="translate(16.000000, 0.000000)">
                        <path d="M38.8666672,32.2580734 L36.6666672,32.2580734 L36.6666672,29.32474 L49.8666674,29.32474 L49.8666674,32.2580734 L47.6666674,32.2580734 L47.6666674,36.3725446 L57.9377206,42.533334 L57.9333342,60.1333342 L43.2666673,68.9333344 L28.6000004,60.1333342 L28.6000004,42.533334 L38.8666672,36.3733339 L38.8666672,32.2580734 Z" id="Combined-Shape"></path>
                        <path d="M53.5333341,57.4793504 L53.5333341,49.6018355 C50.1715814,52.1820596 46.7499988,52.1820596 43.2685864,49.6018355 C39.7871739,47.0216113 36.3643119,47.0216113 33.0000005,49.6018355 L33.0000005,57.4793504 L43.2666673,63.800001 L53.5333341,57.4793504 Z" id="Path-9"></path>
                        <polyline id="lines" transform="translate(44.000001, 35.200001) scale(-1, 1) translate(-44.000001, -35.200001) " points="59.4000009 60.1333342 79.2000012 70.400001 44.0000007 0 8.80000013 70.400001 30.0622807 59.9686923"></polyline>
                    </g>
                </g>
            </g>
        </g>
    </g>
</svg>