<svg xmlns="http://www.w3.org/2000/svg" width="28" height="28" viewBox="0 0 28 28">
  <g fill="none" fill-rule="evenodd">
    <path fill="#FFF" d="M17 19.7998C17 19.9078 16.908 19.9998 16.8 19.9998L3.8 19.9998C3.691 19.9998 3.6 19.9078 3.6 19.7998L3.6 8.7998C3.6 8.6918 3.691 8.5998 3.8 8.5998L16.8 8.5998C16.908 8.5998 17 8.6918 17 8.7998L17 19.7998zM16.8 6.9998L3.8 6.9998C2.807 6.9998 2 7.8068 2 8.7998L2 19.7998C2 20.7918 2.807 21.5998 3.8 21.5998L16.8 21.5998C17.792 21.5998 18.6 20.7918 18.6 19.7998L18.6 8.7998C18.6 7.8068 17.792 6.9998 16.8 6.9998zM25 18.5059L20.6 16.3059 20.6 12.2949 25 10.0939 25 18.5059zM26.221 8.1189C25.983 7.9739 25.689 7.9589 25.442 8.0849L19.442 11.0849C19.171 11.2199 19 11.4969 19 11.7999L19 16.7999C19 17.1029 19.171 17.3799 19.442 17.5159L25.442 20.5159C25.555 20.5719 25.678 20.5999 25.8 20.5999 25.946 20.5999 26.092 20.5599 26.221 20.4809 26.456 20.3349 26.6 20.0769 26.6 19.7999L26.6 8.7999C26.6 8.5229 26.456 8.2649 26.221 8.1189z"/>
  </g>
</svg>
