<?xml version="1.0" encoding="UTF-8"?>
<svg width="64px" height="64px" viewBox="0 0 64 64" version="1.1" xmlns="http://www.w3.org/2000/svg"
     xmlns:xlink="http://www.w3.org/1999/xlink">
    <!-- Generator: Sketch 46.2 (44496) - http://www.bohemiancoding.com/sketch -->
    <title>datatypess_icon</title>
    <desc>Created with Sketch.</desc>
    <defs></defs>
    <g id="arrow-ui" stroke="none" stroke-width="1" fill="none" fill-rule="evenodd">
        <g id="icons" transform="translate(-157.000000, -39.000000)">
            <g id="datatypess_icon" transform="translate(157.000000, 39.000000)">
                <polygon id="background" fill="#557FE8"
                         points="32 0 59.7128129 16 59.7128129 48 32 64 4.28718708 48 4.28718708 16"></polygon>
                <g id="icon" transform="translate(16.000000, 16.000000)" stroke="#FFFFFF" stroke-width="1.6"
                   stroke-linejoin="round">
                    <path d="M22.9729,13.8434 C22.9729,16.7254 20.6369,19.0604 17.7549,19.0604 C14.8739,19.0604 12.5379,16.7254 12.5379,13.8434 C12.5379,10.9614 14.8739,8.6264 17.7549,8.6264 C20.6369,8.6264 22.9729,10.9614 22.9729,13.8434 Z"
                          id="Stroke-1"></path>
                    <path d="M4.7131,7.322 C4.7131,8.403 3.8381,9.279 2.7561,9.279 C1.6751,9.279 0.8001,8.403 0.8001,7.322 C0.8001,6.241 1.6751,5.365 2.7561,5.365 C3.8381,5.365 4.7131,6.241 4.7131,7.322 Z"
                          id="Stroke-3"></path>
                    <path d="M30.8,2.7565 C30.8,3.8355 29.925,4.7135 28.843,4.7135 C27.762,4.7135 26.887,3.8355 26.887,2.7565 C26.887,1.6745 27.762,0.7995 28.843,0.7995 C29.925,0.7995 30.8,1.6745 30.8,2.7565 Z"
                          id="Stroke-5"></path>
                    <path d="M4.7131,28.8434 C4.7131,29.9254 3.8381,30.8004 2.7561,30.8004 C1.6751,30.8004 0.8001,29.9254 0.8001,28.8434 C0.8001,27.7634 1.6751,26.8864 2.7561,26.8864 C3.8381,26.8864 4.7131,27.7634 4.7131,28.8434 Z"
                          id="Stroke-7"></path>
                    <path d="M19.7116,28.8434 C19.7116,29.9254 18.8366,30.8004 17.7546,30.8004 C16.6736,30.8004 15.7986,29.9254 15.7986,28.8434 C15.7986,27.7634 16.6736,26.8864 17.7546,26.8864 C18.8366,26.8864 19.7116,27.7634 19.7116,28.8434 Z"
                          id="Stroke-9"></path>
                    <path d="M4.1384,27.4601 L14.0774,17.5451" id="Stroke-11"></path>
                    <path d="M21.4519,10.1608 L27.4589,4.1398" id="Stroke-13"></path>
                    <path d="M4.5168,8.1701 L12.9598,11.7891" id="Stroke-15"></path>
                    <path d="M26.967,18.447 L22.249,16.497" id="Stroke-17"></path>
                    <path d="M17.7551,26.8869 L17.7551,19.0609" id="Stroke-19"></path>
                    <path d="M30.8,19.0607 C30.8,20.1397 29.925,21.0177 28.843,21.0177 C27.763,21.0177 26.887,20.1397 26.887,19.0607 C26.887,17.9807 27.763,17.1037 28.843,17.1037 C29.925,17.1037 30.8,17.9807 30.8,19.0607 Z"
                          id="Stroke-21"></path>
                </g>
            </g>
        </g>
    </g>
</svg>