<svg xmlns="http://www.w3.org/2000/svg" width="28" height="28" viewBox="0 0 28 28">
  <path fill="#FFF" fill-rule="evenodd" d="M7.1577,15.5937 C7.0917,15.5607 7.0187,15.5427 6.9437,15.5297 L2.5997,14.2067 L2.5997,12.3927 L23.9997,5.8797 L23.9997,20.7197 L7.1577,15.5937 Z M10.2997,21.6117 C8.8107,21.6117 7.5997,20.4007 7.5997,18.9107 L7.5997,17.4017 L12.9867,19.0407 C12.9177,20.4687 11.7437,21.6117 10.2997,21.6117 Z M24.7997,2.9997 C24.3587,2.9997 23.9997,3.3577 23.9997,3.7997 L23.9997,4.2067 L2.5847,10.7247 C2.5447,10.3207 2.2157,9.9997 1.7997,9.9997 C1.3577,9.9997 0.9997,10.3577 0.9997,10.7997 L0.9997,11.7997 L0.9997,14.7997 L0.9997,15.7997 C0.9997,16.2407 1.3577,16.5997 1.7997,16.5997 C2.2147,16.5997 2.5447,16.2797 2.5847,15.8747 L5.9997,16.9147 L5.9997,18.9107 C5.9997,21.2817 7.9287,23.2107 10.2997,23.2107 C12.4647,23.2107 14.2427,21.5977 14.5387,19.5137 L23.9997,22.3937 L23.9997,22.7997 C23.9997,23.2407 24.3587,23.5997 24.7997,23.5997 C25.2407,23.5997 25.5997,23.2407 25.5997,22.7997 L25.5997,21.7997 L25.5997,4.7997 L25.5997,3.7997 C25.5997,3.3577 25.2407,2.9997 24.7997,2.9997 Z"/>
</svg>
