<?xml version="1.0" encoding="UTF-8"?>
<svg width="38px" height="41px" viewBox="0 0 38 41" version="1.1" xmlns="http://www.w3.org/2000/svg"
     xmlns:xlink="http://www.w3.org/1999/xlink">
    <!-- Generator: Sketch 46.2 (44496) - http://www.bohemiancoding.com/sketch -->
    <title>arrow-brand-sidebar</title>
    <desc>Created with Sketch.</desc>
    <defs>
        <filter x="-1.3%" y="-1.2%" width="102.6%" height="105.0%" filterUnits="objectBoundingBox" id="filter-1">
            <feOffset dx="0" dy="1" in="SourceAlpha" result="shadowOffsetOuter1"></feOffset>
            <feColorMatrix values="0 0 0 0 0   0 0 0 0 0   0 0 0 0 0  0 0 0 0.05 0" type="matrix"
                           in="shadowOffsetOuter1" result="shadowMatrixOuter1"></feColorMatrix>
            <feMerge>
                <feMergeNode in="shadowMatrixOuter1"></feMergeNode>
                <feMergeNode in="SourceGraphic"></feMergeNode>
            </feMerge>
        </filter>
        <linearGradient x1="50%" y1="22.815668%" x2="50%" y2="73.7282539%" id="linearGradient-2">
            <stop stop-color="#F99406" offset="0%"></stop>
            <stop stop-color="#DB7190" offset="100%"></stop>
        </linearGradient>
        <linearGradient x1="50%" y1="0%" x2="50%" y2="100%" id="linearGradient-3">
            <stop stop-color="#00B5E2" offset="0%"></stop>
            <stop stop-color="#4D72E5" offset="100%"></stop>
        </linearGradient>
        <linearGradient x1="50%" y1="0%" x2="50%" y2="100%" id="linearGradient-4">
            <stop stop-color="#05CDFF" offset="0%"></stop>
            <stop stop-color="#6A8EFF" offset="100%"></stop>
        </linearGradient>
        <linearGradient x1="50%" y1="0%" x2="50%" y2="100%" id="linearGradient-5">
            <stop stop-color="#61A8FF" offset="0%"></stop>
            <stop stop-color="#4B74E5" offset="100%"></stop>
        </linearGradient>
    </defs>
    <g id="arrow-ui" stroke="none" stroke-width="1" fill="none" fill-rule="evenodd">
        <g id="arrow-brand-sidebar" filter="url(#filter-1)">
            <polygon id="path" fill="url(#linearGradient-2)"
                     points="0 0.363636364 12.5436893 7.50181818 0 14.64"></polygon>
            <polygon id="path" fill="url(#linearGradient-2)"
                     points="37.6319534 0.363490909 25.0882641 7.50167273 37.6319534 14.6398545"></polygon>
            <polygon id="path" fill="url(#linearGradient-3)"
                     points="18.815534 4 0 14.7072727 0 28.9836364 18.815534 39.6909091"></polygon>
            <polygon id="path" fill="url(#linearGradient-4)"
                     points="18.815534 4 37.631068 14.7072727 37.631068 28.9836364 18.815534 39.6909091"></polygon>
            <polygon id="path" fill="url(#linearGradient-5)"
                     points="6.27202913 11.0676727 6.27129126 11.0680364 0.000922330097 0.363309091 0.000922330097 14.6360364 0.000184466019 14.6367636 0.000184466019 28.9131273 6.27313592 32.4851273 15.6797961 27.1178545"></polygon>
            <polygon id="path" fill="url(#linearGradient-5)"
                     points="37.6319534 14.6390545 37.6319534 0.363418182 31.3601087 11.0706909 31.6261087 11.2223273 31.3601087 11.0706909 21.9523417 27.1205091 31.3601087 32.4848727 37.6319534 28.9161455"></polygon>
            <polygon id="shadow" fill="#000000" opacity="0.38841712"
                     points="21.9500546 27.1199951 29.2081255 33.7101884 31.3614976 32.485457"></polygon>
            <polygon id="shadow" fill="#000000" opacity="0.38841712"
                     transform="translate(10.977566, 30.415092) scale(-1, 1) translate(-10.977566, -30.415092) "
                     points="6.27184466 27.1199951 13.5299156 33.7101884 15.6832877 32.485457"></polygon>
        </g>
    </g>
</svg>