<svg xmlns="http://www.w3.org/2000/svg" width="28" height="28" viewBox="0 0 28 28">
  <g fill="none" fill-rule="evenodd">
    <path fill="#FFF" d="M10.6709 24.9946L17.9289 24.9946C17.5739 22.9196 15.9529 20.5946 14.2999 20.5946 12.6469 20.5946 11.0249 22.9196 10.6709 24.9946M18.7999 26.5946L9.7999 26.5946C9.3589 26.5946 8.9999 26.2356 8.9999 25.7946 8.9999 23.0566 11.2259 18.9946 14.2999 18.9946 17.3739 18.9946 19.5999 23.0566 19.5999 25.7946 19.5999 26.2356 19.2409 26.5946 18.7999 26.5946M14.2998 12.5942C13.0868 12.5942 12.0998 13.5812 12.0998 14.7942 12.0998 16.0072 13.0868 16.9942 14.2998 16.9942 15.5128 16.9942 16.4998 16.0072 16.4998 14.7942 16.4998 13.5812 15.5128 12.5942 14.2998 12.5942M14.2998 18.5942C12.2038 18.5942 10.4998 16.8902 10.4998 14.7942 10.4998 12.6982 12.2038 10.9942 14.2998 10.9942 16.3958 10.9942 18.0998 12.6982 18.0998 14.7942 18.0998 16.8902 16.3958 18.5942 14.2998 18.5942"/>
    <path fill="#FFF" d="M19.6025,20.3969 C19.3975,20.3969 19.1935,20.3189 19.0375,20.1629 C18.7245,19.8499 18.7245,19.3439 19.0375,19.0319 C20.3025,17.7659 20.9995,16.0829 20.9995,14.2929 C20.9995,12.5039 20.3025,10.8209 19.0375,9.5549 C16.4235,6.9429 12.1735,6.9449 9.5625,9.5549 C8.2965,10.8209 7.5995,12.5039 7.5995,14.2929 C7.5995,16.0829 8.2965,17.7659 9.5625,19.0319 C9.8745,19.3439 9.8745,19.8499 9.5625,20.1629 C9.2495,20.4749 8.7445,20.4749 8.4315,20.1629 C5.1955,16.9259 5.1955,11.6609 8.4315,8.4239 C11.6655,5.1889 16.9305,5.1879 20.1675,8.4239 C23.4045,11.6609 23.4045,16.9259 20.1675,20.1629 C20.0115,20.3189 19.8075,20.3969 19.6025,20.3969"/>
    <path fill="#FFF" d="M22.4316,23.2251 C22.2266,23.2251 22.0226,23.1471 21.8666,22.9911 C21.5536,22.6781 21.5536,22.1721 21.8666,21.8601 C23.8866,19.8391 24.9996,17.1521 24.9996,14.2941 C24.9996,11.4361 23.8866,8.7481 21.8666,6.7271 C17.6946,2.5571 10.9076,2.5551 6.7336,6.7271 C4.7126,8.7481 3.5996,11.4361 3.5996,14.2941 C3.5996,17.1521 4.7126,19.8391 6.7336,21.8601 C7.0456,22.1721 7.0456,22.6781 6.7336,22.9911 C6.4206,23.3031 5.9146,23.3031 5.6026,22.9911 C3.2796,20.6681 1.9996,17.5791 1.9996,14.2941 C1.9996,11.0091 3.2796,7.9191 5.6026,5.5961 C10.3976,0.8011 18.2026,0.8011 22.9966,5.5961 C25.3206,7.9191 26.5996,11.0091 26.5996,14.2941 C26.5996,17.5791 25.3206,20.6681 22.9966,22.9911 C22.8406,23.1471 22.6366,23.2251 22.4316,23.2251"/>
  </g>
</svg>
