<?xml version="1.0" standalone="no"?>
<!DOCTYPE svg PUBLIC "-//W3C//DTD SVG 1.1//EN" "http://www.w3.org/Graphics/SVG/1.1/DTD/svg11.dtd" >
<svg xmlns="http://www.w3.org/2000/svg" xmlns:xlink="http://www.w3.org/1999/xlink" version="1.1">
    <metadata></metadata>
    <defs>
        <font id="monoidregular" horiz-adv-x="1365">
            <font-face units-per-em="2048" ascent="1637" descent="-411"/>
            <missing-glyph horiz-adv-x="500"/>
            <glyph horiz-adv-x="0"/>
            <glyph unicode="&#xd;"/>
            <glyph unicode=" "/>
            <glyph unicode="!"
                   d="M576 170.5q0 85.5 53.5 139t138.5 53.5t138.5 -53.5t53.5 -139t-53.5 -138.5t-138.5 -53t-138.5 53t-53.5 138.5zM669 1877h198l-14 -1194h-170z"/>
            <glyph unicode="&#x22;" d="M512 1024v853h171v-853h-171zM1024 1024v853h171v-853h-171z"/>
            <glyph unicode="#"
                   d="M341 512v160h171v533h-171v160h171v512h171v-512h341v512h171v-512h170v-160h-170v-533h170v-160h-170v-512h-171v512h-341v-512h-171v512h-171zM683 672h341v533h-341v-533z"/>
            <glyph unicode="$"
                   d="M301 1393q0 60 13 121.5t50 133t95 125.5t160 90t234 36v149h171v-156q151 -9 296 -27v-161q-191 21 -296 28v-721q167 -45 274 -174t107 -324q0 -232 -155 -379t-397 -155v-150h-170v154q-159 9 -350 38v164q191 -31 350 -41v765q-171 43 -276.5 168.5t-105.5 315.5z M472 1393q0 -96 36.5 -166.5t98 -107t121 -54t125.5 -22.5v696q-96 0 -168.5 -25.5t-112 -62t-63.5 -86.5t-30.5 -90t-6.5 -82zM853 139q171 8 276.5 108t105.5 266q0 93 -33 164t-89 113t-120.5 64.5t-139.5 28.5v-744z"/>
            <glyph unicode="%"
                   d="M112 400l1195 1195l117 -118l-1195 -1194zM149 1536q0 155 102 259t261 104t261 -104t102 -259t-102 -259t-261 -104t-261 104t-102 259zM320 1536q0 -96 52.5 -149.5t139.5 -53.5t139.5 53.5t52.5 149.5t-52.5 149.5t-139.5 53.5t-139.5 -53.5t-52.5 -149.5zM661 341.5 q0 154.5 102 258.5t261 104t261 -104t102 -258.5t-102 -258.5t-261 -104t-261 104t-102 258.5zM832 341q0 -96 52.5 -149t139.5 -53t139.5 53t52.5 149t-52.5 149.5t-139.5 53.5t-139.5 -53.5t-52.5 -149.5z"/>
            <glyph unicode="&#x26;"
                   d="M128 528q0 179 104 316t269 199q-55 76 -76 107t-52.5 89t-42.5 108t-11 110q0 199 127 323t322 124q197 0 323 -126.5t126 -317.5q0 -176 -115 -312.5t-329 -192.5l406 -556q16 57 16 176v278h170v-278q0 -221 -70 -336l174 -239h-206l-79 109q-160 -131 -416 -130 q-293 0 -466.5 160t-173.5 389zM299 528q0 -167 126 -278t343 -111q204 0 319 104l-487 665q-135 -45 -218 -142t-83 -238zM489 1459q0 -21 1.5 -39.5t7.5 -38.5t9.5 -33t16.5 -36.5t18.5 -34t26 -40t28.5 -41t36 -50t40 -54.5q79 20 139.5 46.5t116.5 69.5t87 107t31 145 q0 125 -76 204.5t-203 79.5q-125 0 -202 -78t-77 -207z"/>
            <glyph unicode="'" d="M683 1024v853h170v-853h-170z"/>
            <glyph unicode="("
                   d="M480 937.5q0 410.5 166.5 694t466.5 429.5l74 -140q-256 -129 -396 -375.5t-140 -608t140 -609t396 -375.5l-74 -140q-300 145 -466.5 429.5t-166.5 695z"/>
            <glyph unicode=")"
                   d="M349 -47q256 128 396 375.5t140 609t-140 608t-396 375.5l74 140q300 -147 466.5 -430t166.5 -693.5t-166.5 -694.5t-466.5 -430z"/>
            <glyph unicode="*"
                   d="M136 849l56 151l491 -160v525h170v-525l491 160l56 -151l-499 -162l311 -427l-141 -89l-303 414l-301 -414l-142 89l310 427z"/>
            <glyph unicode="+" d="M171 688v160h512v517h170v-517h512v-160h-512v-517h-170v517h-512z"/>
            <glyph unicode=","
                   d="M512 171v320h341v-460q0 -55 -2 -87t-18.5 -84.5t-48.5 -95.5q-93 -127 -272 -127v160q88 0 133 60q17 23 26 54.5t10.5 53.5t1.5 66v140h-171z"/>
            <glyph unicode="-" d="M171 688v160h1194v-160h-1194z"/>
            <glyph unicode="." d="M512 0v320h341v-320h-341z"/>
            <glyph unicode="/" d="M167 -136l1052 2220l150 -71l-1052 -2220z"/>
            <glyph unicode="0"
                   d="M337 938.5q0 190.5 2 284.5t14 209t36 180q110 289 379 289t379 -289q24 -65 36 -180t14 -209t2 -284.5t-2 -284.5t-14 -208.5t-36 -180.5q-109 -289 -378.5 -289t-379.5 289q-24 65 -36 180t-14 209t-2 284.5zM503 939q0 -281 6 -391l478 1008q-71 180 -219 180 q-85 0 -142 -57.5t-87 -153.5q-17 -52 -25.5 -154t-9.5 -184.5t-1 -247.5zM549 321q71 -180 219 -180q85 0 142 57.5t87 153.5q17 52 25.5 154t9.5 184.5t1 248.5q0 281 -6 390z"/>
            <glyph unicode="1" d="M341 1485l539 392h144v-1877h-171v1661h-13l-415 -298z"/>
            <glyph unicode="2"
                   d="M341 0v119l616 1080q31 53 44.5 81t26 76t12.5 101.5t-13.5 98.5t-45.5 88.5t-97 69t-159 25.5q-161 0 -384 -42v160q212 41 384 42q128 0 225 -37.5t152 -101.5t82 -140t27 -163q0 -101 -25 -172.5t-77 -160.5l-552 -964h710v-160h-926z"/>
            <glyph unicode="3"
                   d="M341 20v163q232 -44 406 -44q79 0 136.5 22.5t92.5 60.5t55.5 96t28 117.5t7.5 136.5q0 220 -69.5 318.5t-234.5 98.5q-53 0 -104 -14l-79 101l407 641h-646v160h854v-146l-416 -614l9 -9q44 13 87 13q85 0 150.5 -32.5t104.5 -84.5t64.5 -126.5t34 -148.5t8.5 -160 q0 -301 -122.5 -445.5t-367.5 -144.5q-163 0 -406 41z"/>
            <glyph unicode="4"
                   d="M256 512v133l652 1270l145 -75l-592 -1155v-13h563v352h171v-352h170v-160h-170v-512h-171v512h-768z"/>
            <glyph unicode="5"
                   d="M341 20v163q232 -44 406 -44q79 0 136.5 24.5t92.5 64t55.5 101.5t28 124.5t7.5 145.5q0 96 -12 171t-41 143t-85.5 105.5t-139.5 37.5q-176 0 -278 -145l-170 45v921h854v-160h-683v-629h13q67 63 133.5 95.5t157.5 32.5q421 0 421 -620q0 -315 -122 -466t-368 -151 q-163 0 -406 41z"/>
            <glyph unicode="6"
                   d="M341 597q0 372 115 670q111 291 319 648l146 -82q-225 -384 -332 -681l12 -5q91 69 215 69q143 0 241 -72t143 -195q17 -48 26 -110.5t10 -108t1 -133.5q0 -236 -42 -352q-44 -121 -146 -193.5t-246 -72.5q-161 0 -266.5 71t-152.5 195q-27 71 -35 147.5t-8 204.5z M512 597.5q0 -85.5 4.5 -145t21.5 -123.5t46 -102.5t81 -63t124 -24.5t124 24.5t81.5 63t46 102.5t21.5 123.5t5 145t-5 144.5t-21.5 123t-46 103t-81.5 63.5t-124 24.5t-124 -24.5t-81 -63.5t-46 -103t-21.5 -123t-4.5 -144.5z"/>
            <glyph unicode="7" d="M256 1717v160h1024v-120l-624 -1757h-172l616 1704v13h-844z"/>
            <glyph unicode="8"
                   d="M299 499q0 324 236 452v13q-209 125 -210 429q0 219 116 362.5t327 143.5t327 -143.5t116 -362.5q0 -304 -210 -429v-13q236 -128 236 -452q0 -227 -124 -373.5t-345 -146.5t-345 146.5t-124 373.5zM469 499q0 -161 75 -260.5t224 -99.5t224 99t75 261q0 163 -75.5 268 t-223.5 105t-223.5 -105.5t-75.5 -267.5zM496 1393q0 -155 68.5 -258t203.5 -103t203.5 103.5t68.5 257.5q0 153 -67.5 249.5t-204.5 96.5t-204.5 -96t-67.5 -250z"/>
            <glyph unicode="9"
                   d="M299 1280q0 236 42 352q45 123 149.5 195t256.5 72t256 -72t149 -195q27 -71 35 -147t8 -205q0 -372 -115 -669q-111 -291 -319 -648l-146 81q225 384 332 681l-12 6q-91 -69 -215 -70q-143 0 -241 72t-143 195q-17 48 -26 110.5t-10 108t-1 133.5zM469 1280 q0 -85 5 -144.5t21.5 -123.5t46 -102.5t81.5 -63.5t124 -25t124 25t81 63.5t46 102.5t21.5 123.5t4.5 144.5t-4.5 144.5t-21.5 123.5t-46 102.5t-81 63.5t-124 25t-124 -25t-81.5 -63.5t-46 -102.5t-21.5 -123.5t-5 -144.5z"/>
            <glyph unicode=":" d="M512 0v320h341v-320h-341zM512 1045v320h341v-320h-341z"/>
            <glyph unicode=";"
                   d="M512 171v320h341v-460q0 -55 -2 -87t-18.5 -84.5t-48.5 -95.5q-93 -127 -272 -127v160q88 0 133 60q17 23 26 54.5t10.5 53.5t1.5 66v140h-171zM512 1045v320h341v-320h-341z"/>
            <glyph unicode="&#x3c;" d="M341 708v120l744 701l115 -120l-681 -634v-14l681 -634l-115 -120z"/>
            <glyph unicode="=" d="M341 347v160h854v-160h-854zM341 1029v160h854v-160h-854z"/>
            <glyph unicode="&#x3e;" d="M336 127l681 634v14l-681 634l115 120l744 -701v-120l-744 -701z"/>
            <glyph unicode="?"
                   d="M371 1689v160q211 49 341 50q240 0 369.5 -117.5t129.5 -325.5q0 -81 -19.5 -152.5t-60 -137t-82 -115.5t-106.5 -116q-41 -43 -62.5 -91.5t-24.5 -78.5t-3 -82h-170q0 105 26.5 191t105.5 167q61 63 92.5 99t67.5 89.5t50.5 107.5t14.5 119q0 140 -78.5 211.5 t-249.5 71.5q-124 0 -341 -50zM576 170.5q0 85.5 53.5 139t138.5 53.5t138.5 -53.5t53.5 -139t-53.5 -138.5t-138.5 -53t-138.5 53t-53.5 138.5z"/>
            <glyph unicode="@"
                   d="M171 660v557q0 161 21 251q36 152 138 251.5t247 135.5q91 23 259 22q132 0 205 -18q119 -31 198.5 -110.5t108.5 -196.5q17 -69 17 -197v-843h-170v164h-14q-124 -185 -306 -185q-153 0 -258 120t-105 302q0 192 117 310q43 41 91 67.5t100.5 36.5t82.5 12t76 2h216 q0 125 -14 178q-37 147 -184 185q-51 13 -161 13q-147 0 -215 -17q-208 -53 -262 -267q-17 -68 -18 -216v-557q0 -148 18 -216q52 -212 262 -267q68 -17 215 -17q185 0 427 28v-160q-239 -28 -427 -28q-168 0 -259 23q-145 36 -247 135t-138 251q-21 89 -21 251zM683 916 q0 -113 60 -189t164 -76q59 0 104.5 18.5t75 46.5t51.5 73.5t32.5 84.5t16 94.5t7 89.5t1.5 82v55h-219q-49 0 -76.5 -3t-69 -19.5t-73.5 -49.5q-75 -79 -74 -207z"/>
            <glyph unicode="A"
                   d="M137 0q119 1117 544 1877h174q425 -760 544 -1877h-180q-20 241 -74 517h-754q-7 -41 -20.5 -121.5t-21.5 -132.5t-17 -125.5t-15 -137.5h-180zM419 677h698q-77 327 -155.5 573.5t-186.5 454.5h-14q-108 -208 -186.5 -454.5t-155.5 -573.5z"/>
            <glyph unicode="B"
                   d="M171 0v1877h428q172 0 245 -17q164 -39 268 -169.5t104 -319.5q0 -133 -59.5 -234t-161.5 -156v-13q152 -41 245 -164.5t93 -291.5q0 -187 -98 -319.5t-254 -171.5q-85 -21 -284 -21h-526zM341 160h356q181 0 242 16q100 27 162 117.5t62 218.5q0 129 -61.5 220.5 t-162.5 115.5q-65 16 -242 16h-356v-704zM341 1024h258q149 0 202 13q111 27 177.5 115.5t66.5 218.5q0 131 -67 220t-177 113q-60 13 -202 13h-258v-693z"/>
            <glyph unicode="C"
                   d="M150 938q0 3 -1 7q0 286 42 447q63 235 230.5 371t449.5 136q213 0 454 -39v-160q-251 39 -454 39q-413 0 -514 -384q-37 -145 -37 -416t37 -416q103 -384 527 -384h10q201 0 471 38v-160q-261 -38 -470 -38h-11q-284 0 -458 136.5t-235 369.5q-41 163 -41 453z"/>
            <glyph unicode="D"
                   d="M171 0v1877h461q429 0 625 -316q76 -120 103 -272t27 -350.5t-27 -350.5t-103 -272q-196 -316 -625 -316h-461zM341 160h291q316 0 468 216q64 91 90 228t26 334.5t-26 335t-90 227.5q-152 216 -468 216h-291v-1557z"/>
            <glyph unicode="E" d="M341 0v1877h1024v-160h-853v-693h683v-160h-683v-704h853v-160h-1024z"/>
            <glyph unicode="F" d="M341 0v1877h1024v-160h-853v-704h683v-160h-683v-853h-171z"/>
            <glyph unicode="G"
                   d="M150 938q-1 4 -1 7q0 286 42 447q59 232 240.5 369.5t465.5 137.5q192 0 402 -30v-160q-219 29 -402 30q-223 0 -358 -102t-182 -282q-37 -145 -37 -416t37 -416q47 -180 171 -282t329 -102q156 0 338 32v693h-342v160h512v-979q-275 -66 -501 -66h-7q-268 0 -438 137 t-228 369q-41 163 -41 453z"/>
            <glyph unicode="H" d="M171 0v1877h170v-864h854v864h170v-1877h-170v853h-854v-853h-170z"/>
            <glyph unicode="I" d="M341 0v160h342v1557h-342v160h854v-160h-342v-1557h342v-160h-854z"/>
            <glyph unicode="J"
                   d="M201 195l99 126q207 -177 453 -177q112 0 202 38.5t144 106.5q45 56 67 128t25.5 119t3.5 132v1049h-854v160h1024v-1209q0 -69 -2.5 -110.5t-13 -111t-39.5 -132.5t-75 -122q-75 -96 -201 -152t-281 -56q-165 0 -305.5 59.5t-246.5 151.5z"/>
            <glyph unicode="K"
                   d="M171 0v1877h170v-918l766 918h185l-651 -793l775 -1084h-209l-679 961l-187 -217v-744h-170z"/>
            <glyph unicode="L" d="M341 0v1877h171v-1717h853v-160h-1024z"/>
            <glyph unicode="M"
                   d="M171 0v1877h170l420 -837h15l419 837h170v-1877h-170v1533h-14l-340 -680h-146l-340 680h-14v-1533h-170z"/>
            <glyph unicode="N" d="M171 0v1877h169l841 -1544h14v1544h170v-1877h-170l-840 1544h-14v-1544h-170z"/>
            <glyph unicode="O"
                   d="M149 938.5q0 317.5 38 465.5q53 216 201 355.5t380 139.5t380 -139.5t201 -355.5q37 -148 37 -466q0 -4 1 -8q0 -311 -38 -457q-53 -216 -201 -355t-380 -139t-380 139t-201 355q-38 148 -38 465.5zM320 939q0 -284 33 -430q40 -163 143.5 -266.5t271.5 -103.5t271.5 104 t143.5 266q33 145 33 429.5t-33 429.5q-40 163 -143.5 267t-271.5 104t-271.5 -104t-143.5 -267q-33 -145 -33 -429z"/>
            <glyph unicode="P"
                   d="M341 0v1877h370q65 0 107 -2.5t113.5 -14t136 -42.5t120.5 -81q199 -176 199 -452t-199 -452q-56 -49 -120.5 -80.5t-136 -42.5t-113.5 -14t-107 -3h-199v-693h-171zM512 853h199q57 0 90.5 2t86.5 10t99 29.5t86 56.5q65 56 104 143t39 191t-38.5 191.5t-104.5 143.5 q-40 35 -86 56t-99 29t-86.5 10t-90.5 2h-199v-864z"/>
            <glyph unicode="Q"
                   d="M149 939q0 312 38 465q53 216 201 355.5t380 139.5q231 0 379 -139t202 -356q37 -148 38 -465q0 -312 -38 -466q-45 -185 -162.5 -317t-297.5 -167q71 -192 272 -192q79 0 204 12v-160q-132 -12 -213 -12q-171 0 -283 96t-156 248q-208 17 -341 153.5t-185 338.5 q-38 149 -38 466zM320 939q0 -291 33 -430q35 -140 119 -239t216 -125q-5 63 -5 196v171h170v-171q0 -132 6 -193q128 27 208.5 125t115.5 236q33 133 33 430q0 291 -33 429q-40 163 -143.5 267t-271.5 104q-169 0 -273 -104t-142 -267q-33 -145 -33 -429z"/>
            <glyph unicode="R"
                   d="M341 0v1877h370q65 0 107 -2.5t113.5 -14t136 -42.5t120.5 -81q199 -176 199 -452t-199 -452q-47 -41 -104 -70l336 -763h-181l-316 708q-80 -15 -212 -15h-199v-693h-171zM512 853h199q75 0 121.5 3.5t117.5 27t123 67.5q65 56 104 143t39 191t-38.5 191.5t-104.5 143.5 q-40 35 -86 56t-99 29t-86.5 10t-90.5 2h-199v-864z"/>
            <glyph unicode="S"
                   d="M301 1393q0 219 147 362.5t379 143.5q180 0 493 -34v-161q-324 35 -493 35q-161 0 -258 -98t-97 -248q0 -105 46 -183t125 -118q61 -32 233 -56t257 -69q124 -65 198 -185.5t74 -268.5q0 -239 -159.5 -386.5t-418.5 -147.5q-219 0 -494 42v164q290 -46 486 -46h8 q188 0 298 101t110 273q0 97 -45 177.5t-123 126.5q-69 40 -224 62t-223 46q-145 53 -232 174t-87 294z"/>
            <glyph unicode="T" d="M171 1717v160h1194v-160h-512v-1717h-170v1717h-512z"/>
            <glyph unicode="U"
                   d="M171 683v1194h170v-1194q0 -179 16 -243q33 -136 143.5 -218.5t267.5 -82.5t267 82.5t144 218.5q16 64 16 243v1194h170v-1194q0 -188 -21 -279q-45 -188 -202 -306.5t-374 -118.5t-374.5 118.5t-201.5 306.5q-21 91 -21 279z"/>
            <glyph unicode="V"
                   d="M140 1877h173q176 -1025 448 -1668h14q155 367 260 775.5t188 892.5h173q-96 -547 -224 -1006t-327 -871h-154q-199 412 -327 871.5t-224 1005.5z"/>
            <glyph unicode="W"
                   d="M159 1877h170q0 -959 111 -1597h13l232 915h166l232 -915h13q111 628 111 1597h170q0 -939 -185 -1877h-165l-252 981h-14l-252 -981h-165q-185 939 -185 1877z"/>
            <glyph unicode="X"
                   d="M119 0l537 948v13l-495 916h196l404 -778h14l404 778h196l-495 -916v-13l537 -948h-197l-445 811h-14l-445 -811h-197z"/>
            <glyph unicode="Y"
                   d="M133 1877h182q204 -541 440 -889h26q235 345 440 889h182q-121 -316 -251.5 -574.5t-298.5 -481.5v-821h-170v821q-168 223 -298 481.5t-252 574.5z"/>
            <glyph unicode="Z" d="M171 0v123l948 1581v13h-922v160h1142v-120l-948 -1584v-13h974v-160h-1194z"/>
            <glyph unicode="[" d="M512 -171v2219h683v-160h-512v-1899h512v-160h-683z"/>
            <glyph unicode="\" d="M167 2013l150 71l1052 -2220l-150 -71z"/>
            <glyph unicode="]" d="M341 -11h512v1899h-512v160h683v-2219h-683v160z"/>
            <glyph unicode="^"
                   d="M268 1195q112 409 393 682h214q281 -273 393 -682h-180q-96 325 -287 537h-66q-191 -212 -287 -537h-180z"/>
            <glyph unicode="_" d="M171 0h1194v-160h-1194v160z"/>
            <glyph unicode="`" d="M479 1877h184l221 -512h-184z"/>
            <glyph unicode="a"
                   d="M299 401q0 192 117 310q43 41 91 67.5t100.5 36.5t82.5 12t75 2h259v163q0 116 -24 157q-23 39 -65 58.5t-124 19.5q-160 0 -384 -28v162q220 26 384 26q115 0 201.5 -35.5t142.5 -134.5q40 -71 40 -218v-999h-171v164h-13q-135 -185 -334 -185q-160 0 -269 120t-109 302 zM469 404q0 -113 65 -189t175 -76q64 0 114 18.5t83 46.5t56 73.5t34.5 84.5t18 94t8 89.5t1.5 82.5v55h-261q-49 0 -76.5 -3t-69 -19.5t-73.5 -49.5q-75 -79 -75 -207z"/>
            <glyph unicode="b"
                   d="M341 0v1877h171v-678h13q120 188 291 188q132 0 234.5 -83.5t149.5 -232.5q17 -56 26 -125.5t10 -118t1 -144.5t-1 -145t-10 -118t-26 -125q-47 -149 -149.5 -232.5t-234.5 -83.5q-171 0 -291 188h-13v-167h-171zM512 683q0 -236 35 -342q29 -87 91 -144.5t151.5 -57.5 t151.5 58t91 144q35 105 35 341.5t-35 341.5q-29 87 -91 145t-151.5 58t-151.5 -58t-91 -145q-35 -105 -35 -341z"/>
            <glyph unicode="c"
                   d="M299 682.5q0 149.5 10 245.5t47 180q121 279 452 279q133 0 360 -23v-160q-229 23 -360 23q-115 0 -182 -43.5t-110 -131.5q-21 -45 -32.5 -113t-13 -117t-1.5 -139.5t1.5 -139t13 -116.5t32.5 -114q43 -88 110 -131t182 -43q156 0 387 34v-160q-223 -34 -378 -34h-9 q-331 0 -452 278q-37 84 -47 180t-10 245.5z"/>
            <glyph unicode="d"
                   d="M299 683q0 96 1 144.5t10 118t26 125.5q47 149 149.5 232.5t234.5 83.5q89 0 166.5 -46t124.5 -142h13v678h171v-1877h-171v167h-13q-47 -96 -124.5 -142t-166.5 -46q-132 0 -234.5 83t-149.5 233q-17 56 -26 125t-10 118t-1 145zM469 683q0 -236 35 -342 q29 -87 91 -144.5t151.5 -57.5t151.5 58t91 144q35 105 35 341.5t-35 341.5q-29 87 -91 145t-151.5 58t-151.5 -58t-91 -145q-35 -105 -35 -341z"/>
            <glyph unicode="e"
                   d="M299 683q0 105 2 164.5t13 136.5t34 135q44 119 154 193.5t266 74.5t266 -75t154 -193q23 -57 34 -134.5t13 -137t2 -164.5h-768q0 -91 1.5 -139.5t11.5 -116.5t30 -114q77 -174 281 -174h2q155 0 400 28v-160q-243 -28 -400 -28q-165 0 -278.5 77t-164.5 201 q-35 84 -44 180t-9 246zM472 843h592q-8 159 -36 222q-29 76 -96.5 119t-163.5 43t-163.5 -43t-96.5 -119q-28 -64 -36 -222z"/>
            <glyph unicode="f"
                   d="M171 1035v160h341v310q0 51 2 82.5t18.5 86.5t48.5 98q44 60 122 93.5t177 33.5q125 0 315 -22v-160q-189 21 -315 22q-115 0 -160 -60q-37 -49 -37 -174v-310h512v-160h-512v-1035h-171v1035h-341z"/>
            <glyph unicode="g"
                   d="M299 768q0 359 153 511q111 108 268 108q169 0 291 -188h13v166h171v-1152q0 -228 -82 -364q-127 -212 -398 -212q-155 0 -315 20v160q180 -20 315 -20q169 0 250 131q59 95 59 285v124h-13q-121 -188 -291 -188q-157 0 -268 108q-153 152 -153 511zM469 768 q0 -292 114 -397q65 -61 163 -61q1 -1 2 -1q98 0 163 62q113 105 113 397t-113 397q-65 61 -164 61q-1 1 -2 1q-98 0 -162 -62q-114 -105 -114 -397z"/>
            <glyph unicode="h"
                   d="M341 0v1877h171v-661h13q49 77 122 124t148 47q96 0 176 -39t132 -104q33 -41 53 -85t27.5 -97.5t9.5 -88t2 -97.5v-876h-171v876q0 73 -2 109t-16 81t-42 78q-72 83 -196 83t-196 -83q-28 -33 -42 -78t-16 -81t-2 -109v-876h-171z"/>
            <glyph unicode="i"
                   d="M341 1205v160h512v-1365h-170v1205h-342zM576 1749.5q0 66.5 41.5 108t108 41.5t108 -41.5t41.5 -108t-41.5 -108t-108 -41.5t-108 41.5t-41.5 108z"/>
            <glyph unicode="j"
                   d="M229 -183q180 -20 315 -20q169 0 251 131q58 94 58 285v992h-341v160h512v-1152q0 -228 -81 -364q-127 -212 -399 -212q-155 0 -315 20v160zM747 1749.5q0 66.5 41 108t108 41.5t108 -41.5t41 -108t-41 -108t-108 -41.5t-108 41.5t-41 108z"/>
            <glyph unicode="k"
                   d="M341 0v1877h171v-1074l547 562h214l-484 -505l547 -860h-208l-449 747l-167 -167v-580h-171z"/>
            <glyph unicode="l"
                   d="M683 372v1505h170v-1505q0 -41 1.5 -64t10 -55t26.5 -56q43 -58 130 -58h3q91 0 171 6v-160q-111 -6 -169 -6h-15q-143 0 -231 90q-45 47 -68 109t-26 98.5t-3 95.5z"/>
            <glyph unicode="m"
                   d="M171 0v1365h170v-100h14q82 122 197 122q80 0 143.5 -41t100.5 -107q113 148 268 148q147 0 232 -115q32 -44 48 -97.5t18.5 -91.5t2.5 -110v-973h-170v973q0 57 -1.5 84t-11 60.5t-27.5 54.5q-48 55 -131 55t-131 -55q-19 -21 -28 -54.5t-10.5 -60t-1.5 -84.5v-973h-170 v973q0 57 -1.5 84t-11 60.5t-27.5 54.5q-48 55 -131 55t-131 -55q-19 -21 -28 -54.5t-10.5 -60t-1.5 -84.5v-973h-170z"/>
            <glyph unicode="n"
                   d="M341 0v1365h171v-149h13q49 77 122 124t148 47q96 0 176 -39t132 -104q33 -41 53 -85t27.5 -97.5t9.5 -88t2 -97.5v-876h-171v876q0 73 -2 109t-16 81t-42 78q-72 83 -196 83t-196 -83q-28 -33 -42 -78t-16 -81t-2 -109v-876h-171z"/>
            <glyph unicode="o"
                   d="M299 683q0 172 17 288.5t69 201.5q63 100 161 157t222 57t222 -57t161 -157q52 -85 69 -201.5t17 -288.5t-17 -289t-69 -202q-63 -100 -161 -156.5t-222 -56.5t-222 56.5t-161 156.5q-52 85 -69 202t-17 289zM469 682.5q0 -98.5 3 -157t17.5 -132.5t43.5 -124 q77 -131 233 -131h2q158 0 235 131q29 49 43.5 123.5t17.5 133t3 157t-3 157.5t-17.5 133t-43.5 123q-78 131 -235 131t-235 -131q-29 -49 -43.5 -123t-17.5 -133t-3 -157.5z"/>
            <glyph unicode="p"
                   d="M341 -512v1877h171v-166h13q120 188 291 188q132 0 234.5 -83.5t149.5 -232.5q17 -56 26 -125.5t10 -118t1 -144.5t-1 -145t-10 -118t-26 -125q-47 -149 -149.5 -232.5t-234.5 -83.5q-171 0 -291 188h-13v-679h-171zM512 683q0 -236 35 -342q29 -87 91 -144.5 t151.5 -57.5t151.5 58t91 144q35 105 35 341.5t-35 341.5q-29 87 -91 145t-151.5 58t-151.5 -58t-91 -145q-35 -105 -35 -341z"/>
            <glyph unicode="q"
                   d="M299 683q0 96 1 144.5t10 118t26 125.5q47 149 149.5 232.5t234.5 83.5q171 0 291 -188h13v166h171v-1877h-171v679h-13q-120 -188 -291 -188q-132 0 -234.5 83t-149.5 233q-17 56 -26 125t-10 118t-1 145zM469 683q0 -236 35 -342q29 -87 91 -144.5t151.5 -57.5 t151.5 58t91 144q35 105 35 341.5t-35 341.5q-29 87 -91 145t-151.5 58t-151.5 -58t-91 -145q-35 -105 -35 -341z"/>
            <glyph unicode="r"
                   d="M341 0v1365h171v-212h13q83 112 183.5 173t246.5 61q99 0 240 -18v-160q-141 18 -240 18q-181 0 -287 -98q-55 -51 -89.5 -112t-48 -136.5t-16 -122t-2.5 -125.5v-633h-171z"/>
            <glyph unicode="s"
                   d="M312 1035q0 148 116.5 250t334.5 102q148 0 418 -28v-160q-273 28 -418 28q-148 0 -214 -57t-66 -135q0 -60 33 -103t84 -63t193.5 -34.5t222.5 -55.5q99 -51 160 -147.5t61 -220.5q0 -84 -30.5 -160t-88 -137.5t-151.5 -98t-211 -36.5q-153 0 -415 29v160 q249 -29 415 -29q72 0 128 18t90 46.5t55.5 66t29.5 72t8 69.5q0 79 -37 137.5t-97 88.5q-59 31 -194.5 43.5t-202.5 39.5q-93 36 -158.5 118.5t-65.5 196.5z"/>
            <glyph unicode="t"
                   d="M171 1197v168h341v342h171v-342h512v-168h-512v-704q0 -73 2 -109t15 -82.5t40 -80.5q68 -82 209 -82h3q95 0 243 20v-160q-143 -20 -256 -20q-107 0 -194.5 38.5t-141.5 105.5q-43 51 -64.5 118.5t-24 113t-2.5 125.5v717h-341z"/>
            <glyph unicode="u"
                   d="M341 489v876h171v-876q0 -73 2 -109t16 -80.5t42 -78.5q72 -83 195 -83h1q124 0 196 83q28 33 42 78t16 81t2 109v876h171v-1365h-171v149h-13q-49 -77 -122 -123.5t-148 -46.5q-96 0 -176 38.5t-132 103.5q-33 41 -53 85.5t-27.5 97.5t-9.5 88t-2 97z"/>
            <glyph unicode="v"
                   d="M272 1365h175q133 -697 314 -1141h14q181 443 314 1141h175q-76 -397 -174 -731t-245 -634h-154q-147 300 -245 634t-174 731z"/>
            <glyph unicode="w"
                   d="M145 1365h171q0 -651 137 -1178h14l218 836h166l218 -836h14q137 528 137 1178h171q0 -685 -199 -1365h-205l-212 783h-14l-212 -783h-205q-199 680 -199 1365z"/>
            <glyph unicode="x"
                   d="M212 0l457 721v14l-428 630h223l297 -506h14l297 506h223l-428 -630v-14l457 -721h-224l-325 597h-14l-325 -597h-224z"/>
            <glyph unicode="y"
                   d="M272 1365h175q139 -637 346 -1045h14q127 389 284 1045h174q-7 -25 -31.5 -125.5t-31 -129.5t-29 -119t-32.5 -126.5t-31.5 -118.5t-35.5 -128.5t-36.5 -124t-42 -137.5t-44 -134.5t-50.5 -148.5q-32 -91 -50 -136.5t-51 -104.5t-72 -89q-125 -105 -387 -106v160 q191 0 262 55q31 23 56.5 69.5t41 86.5t58.5 163h-70q-144 261 -240.5 551.5t-176.5 642.5z"/>
            <glyph unicode="z" d="M341 0v123l634 1069v13h-607v160h800v-120l-633 -1072v-13h660v-160h-854z"/>
            <glyph unicode="{"
                   d="M341 857v160q169 0 255.5 62t86.5 214v338q0 223 136.5 329.5t375.5 106.5v-160q-169 0 -255.5 -62t-86.5 -214v-338q0 -148 -48 -226.5t-164 -122.5v-13q116 -44 164 -123t48 -227v-337q0 -152 85.5 -214t256.5 -62v-160q-239 0 -375.5 106.5t-136.5 329.5v337 q0 152 -85.5 214t-256.5 62z"/>
            <glyph unicode="|" d="M683 -341v2389h170v-2389h-170z"/>
            <glyph unicode="}"
                   d="M341 -32q171 0 256.5 62t85.5 214v337q0 148 48 227t164 123v13q-116 44 -164 122.5t-48 226.5v338q0 152 -86 214t-256 62v160q239 0 375.5 -107t136.5 -329v-338q0 -152 86 -214t256 -62v-160q-171 0 -256.5 -62t-85.5 -214v-337q0 -223 -136.5 -329.5t-375.5 -106.5 v160z"/>
            <glyph unicode="~"
                   d="M171 512q0 95 7 167t28 140.5t57 112.5t96 70.5t141 26.5q84 0 152.5 -37t114 -90.5t85.5 -107t86.5 -90.5t97.5 -37q37 0 64 9t44 33t28 49.5t15.5 72t6 86.5t1.5 107h170q0 -95 -7 -167t-28 -140.5t-57 -112.5t-96 -70.5t-141 -26.5q-84 0 -152.5 37t-114 90.5 t-85.5 107t-86.5 90.5t-97.5 37q-37 0 -64 -9t-44 -33t-28 -49.5t-15.5 -72t-6 -86.5t-1.5 -107h-170z"/>
            <glyph unicode="&#xa0;"/>
            <glyph unicode="&#xa1;"
                   d="M576 1365.5q0 85.5 53.5 138.5t138.5 53t138.5 -53t53.5 -138.5t-53.5 -139t-138.5 -53.5t-138.5 53.5t-53.5 139zM669 -341l14 1194h170l14 -1194h-198z"/>
            <glyph unicode="&#xa2;"
                   d="M299 683q0 143 10 238t43 178q43 105 127 179.5t204 96.5v332h170v-320q155 -4 315 -30v-160q-195 29 -379 30q-193 0 -277 -190q-20 -44 -30 -109t-11.5 -112t-1.5 -133q0 -91 1.5 -139.5t13 -116.5t32.5 -114q83 -175 279 -174q177 0 400 34v-161q-188 -28 -342 -33 v-320h-170v332q-117 21 -199.5 92.5t-127.5 173.5q-37 84 -47 180.5t-10 245.5z"/>
            <glyph unicode="&#xa3;"
                   d="M171 0v160h170v704h-170v160h170v171q0 149 9.5 245t44.5 180q51 124 160 201.5t269 77.5q127 0 331 -20v-160q-207 20 -331 20q-193 0 -269 -175q-20 -45 -30 -113t-11.5 -117t-1.5 -139v-171h512v-160h-512v-704h683v-160h-1024z"/>
            <glyph unicode="&#xa4;"
                   d="M208 325l188 187q-76 112 -76 256t76 256l-188 187l117 117l188 -189q112 72 255 72t255 -72l188 189l117 -117l-188 -187q76 -112 76 -256t-76 -256l188 -187l-117 -117l-188 189q-112 -72 -255 -72t-255 72l-188 -189zM491 768q0 -131 76.5 -207t200.5 -76t200.5 76 t76.5 207t-76.5 207t-200.5 76t-200.5 -76t-76.5 -207z"/>
            <glyph unicode="&#xa5;"
                   d="M151 1877h166q140 -568 431 -890h40q291 323 431 890h166q-112 -497 -377 -853h187v-160h-319l-23 -24v-168h342v-160h-342v-512h-170v512h-342v160h342v168l-23 24h-319v160h187q-265 356 -377 853z"/>
            <glyph unicode="&#xa6;" d="M683 -171v683h170v-683h-170zM683 1365v683h170v-683h-170z"/>
            <glyph unicode="&#xa7;"
                   d="M287 761q0 109 57 206t165 157q-93 59 -145.5 147.5t-52.5 196.5q0 83 30.5 158t88 136.5t151.5 97.5t211 36q140 0 349 -37v-164q-207 41 -349 41q-72 0 -128 -18t-90 -46t-55.5 -64.5t-29.5 -70.5t-8 -69q0 -136 112 -220q48 -35 123.5 -43.5t161.5 -17t150 -42.5 q99 -52 160 -150t61 -224q0 -109 -57 -206.5t-165 -156.5q91 -56 144.5 -145.5t53.5 -199.5q0 -83 -30.5 -157.5t-88 -135.5t-151.5 -97t-211 -36q-155 0 -403 52v164q241 -56 403 -56q72 0 128 18t90 45.5t55.5 64t29.5 70t8 68.5q0 81 -37 142.5t-97 91.5 q-56 28 -196.5 38.5t-213.5 49.5q-103 55 -163.5 153.5t-60.5 222.5zM457 761q0 -93 47.5 -156.5t117.5 -88.5t157 -25q85 0 147.5 28t93.5 72.5t45 89t14 90.5q0 136 -89 202.5t-237 66.5q-84 0 -146 -27.5t-92.5 -72t-44 -88.5t-13.5 -91z"/>
            <glyph unicode="&#xa8;"
                   d="M320 1664q0 67 41.5 108t108 41t108 -41t41.5 -108t-41.5 -108t-108 -41t-108 41t-41.5 108zM917 1664q0 67 41.5 108t108 41t108 -41t41.5 -108t-41.5 -108t-108 -41t-108 41t-41.5 108z"/>
            <glyph unicode="&#xa9;"
                   d="M149 938.5q0 242.5 59 402.5q63 173 207.5 279.5t352.5 106.5t352.5 -106t207.5 -280q59 -160 59 -402.5t-59 -402.5q-63 -173 -207.5 -279t-352.5 -106t-352.5 106t-207.5 279q-59 160 -59 402.5zM267 938.5q0 -221.5 53 -367.5q52 -143 164.5 -227t283.5 -84 q169 0 282.5 84.5t165.5 226.5q53 147 53 368t-53 368q-52 143 -164.5 226.5t-283.5 83.5q-169 0 -282.5 -84.5t-165.5 -225.5q-53 -147 -53 -368.5zM469 944q0 193 31 272q64 163 295 163q91 0 202 -26v-160q-109 25 -205 26q-57 0 -87 -12t-45 -46q-20 -45 -20 -217 q0 -123 6 -178t29 -79q12 -13 32 -20t36.5 -7.5t49.5 -0.5q95 0 204 21v-160q-112 -21 -204 -21q-169 0 -246 82q-36 39 -54 103t-21 113.5t-3 146.5z"/>
            <glyph unicode="&#xaa;"
                   d="M325 1349q0 112 59 200t151 123q64 24 164 24h154q0 89 -8 119q-15 51 -54 72.5t-118 21.5q-45 0 -298 -17v161q237 16 298 16q273 0 336 -213q15 -51 15 -136v-696h-171v89h-13q-49 -56 -98.5 -83t-118.5 -27q-125 0 -211.5 102.5t-86.5 243.5zM496 1349 q0 -77 42.5 -131.5t113.5 -54.5q59 0 103 28.5t68 75.5q30 61 30 208v61h-154q-71 0 -102 -12q-45 -17 -73 -64.5t-28 -110.5z"/>
            <glyph unicode="&#xab;"
                   d="M171 723v90l428 572l138 -90l-400 -520v-14l400 -520l-138 -90zM683 723v90l428 572l138 -90l-400 -520v-14l400 -520l-138 -90z"/>
            <glyph unicode="&#xac;" d="M171 859v160h1194v-507h-170v347h-1024z"/>
            <glyph unicode="&#xad;" d="M171 688v160h1194v-160h-1194z"/>
            <glyph unicode="&#xae;"
                   d="M149 938.5q0 242.5 59 402.5q63 173 207.5 279.5t352.5 106.5t352.5 -106t207.5 -280q59 -160 59 -402.5t-59 -402.5q-63 -173 -207.5 -279t-352.5 -106t-352.5 106t-207.5 279q-59 160 -59 402.5zM267 938.5q0 -221.5 53 -367.5q52 -143 164.5 -227t283.5 -84 q169 0 282.5 84.5t165.5 226.5q53 147 53 368t-53 368q-52 143 -164.5 226.5t-283.5 83.5q-169 0 -282.5 -84.5t-165.5 -225.5q-53 -147 -53 -368.5zM512 512v853h281q119 0 185.5 -68t66.5 -188q0 -145 -96 -214l130 -383h-180l-102 341h-114v-341h-171zM683 1013h110 q48 0 65 22t17 74t-17 74t-65 22h-110v-192z"/>
            <glyph unicode="&#xaf;" d="M341 1712v160h854v-160h-854z"/>
            <glyph unicode="&#xb0;"
                   d="M464 1728q0 129 85.5 216.5t218.5 87.5t218.5 -87.5t85.5 -216.5t-85.5 -216.5t-218.5 -87.5t-218.5 87.5t-85.5 216.5zM608 1728q0 -81 44 -126t116 -45t116 45t44 126t-44 126t-116 45t-116 -45t-44 -126z"/>
            <glyph unicode="&#xb1;"
                   d="M171 347v160h1194v-160h-1194zM171 1029v160h512v347h170v-347h512v-160h-512v-346h-170v346h-512z"/>
            <glyph unicode="&#xb2;"
                   d="M333 1024v80q0 265 320 417q48 23 77.5 40.5t66 46t54.5 66t18 82.5q0 24 -6.5 46t-25 48.5t-62.5 42.5t-110 16q-144 0 -324 -36v160q175 36 324 36q180 0 277.5 -90t97.5 -223q0 -71 -25.5 -131.5t-72 -105t-90.5 -74.5t-103 -60q-41 -21 -51 -25.5t-44.5 -23.5 t-47.5 -30t-35 -30t-34 -37.5t-20 -41.5v-13h507v-160h-691z"/>
            <glyph unicode="&#xb3;"
                   d="M341 1023v160q208 -20 323 -20q96 0 150.5 37t54.5 111q0 55 -37 91.5t-93 46.5q-35 7 -123 7h-104v160h104q77 0 117 8q55 12 89.5 47.5t34.5 91.5q0 72 -50.5 109t-145.5 37q-89 0 -306 -22v160q176 23 306 22q167 0 267 -84t100 -222q0 -143 -129 -216v-14 q141 -73 141 -222q0 -143 -106 -225.5t-270 -82.5q-137 0 -323 20z"/>
            <glyph unicode="&#xb4;" d="M652 1365l221 512h184l-221 -512h-184z"/>
            <glyph unicode="&#xb5;"
                   d="M341 -512v1877h171v-876q0 -73 2 -109t16 -80.5t42 -78.5q72 -83 196 -82.5t196 82.5q28 33 42 78t16 81t2 109v876h171v-1365h-171v149h-13q-44 -77 -109.5 -123.5t-133.5 -46.5t-133.5 46.5t-109.5 123.5h-13v-661h-171z"/>
            <glyph unicode="&#xb6;"
                   d="M320 1365q0 191 104 323.5t268 171.5q73 17 245 17h258v-1877h-171v1717h-171v-1717h-170v873q-161 41 -262 172.5t-101 319.5z"/>
            <glyph unicode="&#xb7;" d="M512 704v320h341v-320h-341z"/>
            <glyph unicode="&#xb8;"
                   d="M341 -347q116 -27 171 -26q88 0 133 60q17 23 26 54t10.5 53t1.5 66v140h170v-140q0 -55 -2 -87t-18.5 -84.5t-48.5 -95.5q-93 -127 -272 -126q-64 0 -171 22v164z"/>
            <glyph unicode="&#xb9;" d="M341 1661v179l368 208h144v-1024h-170v813h-14z"/>
            <glyph unicode="&#xba;"
                   d="M315 1536q0 44 0.5 74t8 90.5t20.5 104t40.5 97.5t65 87.5t97.5 56.5t136 23t136 -23t97 -56.5t64.5 -87.5t41 -97.5t20.5 -104t8 -90.5t1 -74t-1 -74t-8 -90.5t-20.5 -104t-41 -97.5t-64.5 -87.5t-97 -56.5t-136 -23t-136 23t-97.5 56.5t-65 87.5t-40.5 97.5t-20.5 104 t-8 90.5t-0.5 74zM485 1536q0 -51 2 -87.5t8 -84t19.5 -80t34 -62t54.5 -44.5t79.5 -15t79.5 15t54.5 44.5t34 62t19.5 80t8 84t2 87.5t-2 87.5t-8 84t-19.5 80t-34 62t-54.5 44.5t-79.5 15t-79.5 -15t-54.5 -44.5t-34 -62t-19.5 -80t-8 -84t-2 -87.5z"/>
            <glyph unicode="&#xbb;"
                   d="M287 241l400 520v14l-400 520l138 90l428 -572v-90l-428 -572zM799 241l400 520v14l-400 520l138 90l428 -572v-90l-428 -572z"/>
            <glyph unicode="&#xbc;"
                   d="M171 1661v179l368 208h144v-1024h-171v813h-13zM683 171v96l104 586h161l-91 -522h338v522h170v-1024h-170v342h-512z"/>
            <glyph unicode="&#xbd;"
                   d="M171 1661v179l368 208h144v-1024h-171v813h-13zM675 -91q0 265 320 418q48 23 77 40t66 45.5t55 66t18 82.5q0 24 -7 46t-25.5 49t-62.5 43t-109 16q-144 0 -324 -36v160q175 36 324 36q180 0 277 -90t97 -224q0 -71 -25 -131.5t-72 -105t-91 -74.5t-102 -59 q-41 -21 -51.5 -26t-45 -23.5t-47 -30t-34.5 -30t-34 -37.5t-20 -41v-14h506v-160h-690v80z"/>
            <glyph unicode="&#xbe;"
                   d="M171 1023v160q208 -20 322 -20q96 0 151 37t55 111q0 55 -37.5 91.5t-93.5 46.5q-35 7 -123 7h-104v160h104q77 0 118 8q55 12 89.5 47.5t34.5 91.5q0 72 -51 109t-145 37q-89 0 -307 -22v160q176 23 307 22q167 0 266.5 -84t99.5 -222q0 -143 -129 -216v-14 q141 -73 141 -222q0 -143 -106 -225.5t-270 -82.5q-137 0 -322 20zM683 171v96l104 586h161l-91 -522h338v522h170v-1024h-170v342h-512z"/>
            <glyph unicode="&#xbf;"
                   d="M325 80q0 81 19.5 152.5t60 137t82 115.5t106.5 116q41 43 62.5 91.5t24.5 78.5t3 82h170q0 -105 -26.5 -191t-105.5 -167q-61 -63 -92.5 -99t-67.5 -89.5t-50.5 -107.5t-14.5 -119q0 -140 78.5 -211.5t249.5 -71.5q124 0 341 50v-160q-211 -49 -341 -50 q-240 0 -369.5 117.5t-129.5 325.5zM576 1365.5q0 85.5 53.5 138.5t138.5 53t138.5 -53t53.5 -138.5t-53.5 -139t-138.5 -53.5t-138.5 53.5t-53.5 139z"/>
            <glyph unicode="&#xc0;"
                   d="M137 0q119 1117 544 1877h174q425 -760 544 -1877h-180q-20 241 -74 517h-754q-7 -41 -20.5 -121.5t-21.5 -132.5t-17 -125.5t-15 -137.5h-180zM419 677h698q-77 327 -155.5 573.5t-186.5 454.5h-14q-108 -208 -186.5 -454.5t-155.5 -573.5zM480 2389h184l221 -341h-184z "/>
            <glyph unicode="&#xc1;"
                   d="M137 0q119 1117 544 1877h174q425 -760 544 -1877h-180q-20 241 -74 517h-754q-7 -41 -20.5 -121.5t-21.5 -132.5t-17 -125.5t-15 -137.5h-180zM419 677h698q-77 327 -155.5 573.5t-186.5 454.5h-14q-108 -208 -186.5 -454.5t-155.5 -573.5zM651 2048l221 341h184 l-221 -341h-184z"/>
            <glyph unicode="&#xc2;"
                   d="M137 0q119 1117 544 1877h174q425 -760 544 -1877h-180q-20 241 -74 517h-754q-7 -41 -20.5 -121.5t-21.5 -132.5t-17 -125.5t-15 -137.5h-180zM267 2048l396 341h210l396 -341h-210l-291 218l-291 -218h-210zM419 677h698q-77 327 -155.5 573.5t-186.5 454.5h-14 q-108 -208 -186.5 -454.5t-155.5 -573.5z"/>
            <glyph unicode="&#xc3;"
                   d="M137 0q119 1117 544 1877h174q425 -760 544 -1877h-180q-20 241 -74 517h-754q-7 -41 -20.5 -121.5t-21.5 -132.5t-17 -125.5t-15 -137.5h-180zM337 2081q4 128 71.5 215.5t188.5 87.5q53 0 99.5 -17.5t76.5 -43t56.5 -50.5t54 -42.5t55.5 -17.5q81 0 89 151l171 -8 q-3 -125 -71 -214t-189 -89q-53 0 -99.5 17.5t-76.5 42.5t-56.5 50.5t-54 43t-55.5 17.5q-81 0 -89 -151zM419 677h698q-77 327 -155.5 573.5t-186.5 454.5h-14q-108 -208 -186.5 -454.5t-155.5 -573.5z"/>
            <glyph unicode="&#xc4;"
                   d="M137 0q119 1117 544 1877h174q425 -760 544 -1877h-180q-20 241 -74 517h-754q-7 -41 -20.5 -121.5t-21.5 -132.5t-17 -125.5t-15 -137.5h-180zM320 2218.5q0 66.5 41.5 108t108 41.5t108 -41.5t41.5 -108t-41.5 -108t-108 -41.5t-108 41.5t-41.5 108zM419 677h698 q-77 327 -155.5 573.5t-186.5 454.5h-14q-108 -208 -186.5 -454.5t-155.5 -573.5zM917 2218.5q0 66.5 41.5 108t108 41.5t108 -41.5t41.5 -108t-41.5 -108t-108 -41.5t-108 41.5t-41.5 108z"/>
            <glyph unicode="&#xc5;"
                   d="M137 0q112 1051 490 1776q-75 37 -119 110t-44 162q0 129 85.5 216.5t218.5 87.5t218.5 -87.5t85.5 -216.5q0 -89 -44 -162t-119 -110q377 -725 490 -1776h-180q-20 241 -74 517h-754q-7 -41 -20.5 -121.5t-21.5 -132.5t-17 -125.5t-15 -137.5h-180zM419 677h698 q-77 327 -155.5 573.5t-186.5 454.5h-14q-108 -208 -186.5 -454.5t-155.5 -573.5zM608 2048q0 -81 44 -126t116 -45t116 45t44 126t-44 126t-116 45t-116 -45t-44 -126z"/>
            <glyph unicode="&#xc6;"
                   d="M137 0q0 1007 339 1877h889v-160h-341v-698h341v-160h-341v-699h341v-160h-512v517h-522q-23 -283 -23 -517h-171zM349 677h504v1040h-278q-157 -468 -226 -1040z"/>
            <glyph unicode="&#xc7;"
                   d="M149.5 938.5q-0.5 290.5 41.5 453.5q63 235 230.5 371t449.5 136q213 0 454 -39v-160q-251 39 -454 39q-413 0 -514 -384q-37 -145 -37 -416t37 -416q103 -384 527 -384q197 0 481 49v-160q-196 -35 -341 -44q-3 -131 -69 -221q-93 -127 -272 -127q-64 0 -171 23v164 q116 -27 171 -27q88 0 133 60q35 45 37 123q-271 8 -436.5 143t-225.5 363q-41 163 -41.5 453.5z"/>
            <glyph unicode="&#xc8;"
                   d="M341 0v1877h1024v-160h-853v-693h683v-160h-683v-704h853v-160h-1024zM480 2389h184l221 -341h-184z"/>
            <glyph unicode="&#xc9;"
                   d="M341 0v1877h1024v-160h-853v-693h683v-160h-683v-704h853v-160h-1024zM651 2048l221 341h184l-221 -341h-184z"/>
            <glyph unicode="&#xca;"
                   d="M267 2048l396 341h210l396 -341h-210l-291 218l-291 -218h-210zM341 0v1877h1024v-160h-853v-693h683v-160h-683v-704h853v-160h-1024z"/>
            <glyph unicode="&#xcb;"
                   d="M320 2218.5q0 66.5 41.5 108t108 41.5t108 -41.5t41.5 -108t-41.5 -108t-108 -41.5t-108 41.5t-41.5 108zM341 0v1877h1024v-160h-853v-693h683v-160h-683v-704h853v-160h-1024zM917 2218.5q0 66.5 41.5 108t108 41.5t108 -41.5t41.5 -108t-41.5 -108t-108 -41.5 t-108 41.5t-41.5 108z"/>
            <glyph unicode="&#xcc;"
                   d="M341 0v160h342v1557h-342v160h854v-160h-342v-1557h342v-160h-854zM480 2389h184l221 -341h-184z"/>
            <glyph unicode="&#xcd;"
                   d="M341 0v160h342v1557h-342v160h854v-160h-342v-1557h342v-160h-854zM651 2048l221 341h184l-221 -341h-184z"/>
            <glyph unicode="&#xce;"
                   d="M267 2048l396 341h210l396 -341h-210l-291 218l-291 -218h-210zM341 0v160h342v1557h-342v160h854v-160h-342v-1557h342v-160h-854z"/>
            <glyph unicode="&#xcf;"
                   d="M320 2218.5q0 66.5 41.5 108t108 41.5t108 -41.5t41.5 -108t-41.5 -108t-108 -41.5t-108 41.5t-41.5 108zM341 0v160h342v1557h-342v160h854v-160h-342v-1557h342v-160h-854zM917 2218.5q0 66.5 41.5 108t108 41.5t108 -41.5t41.5 -108t-41.5 -108t-108 -41.5t-108 41.5 t-41.5 108z"/>
            <glyph unicode="&#xd0;"
                   d="M171 859v160h170v858h291q429 0 625 -316q76 -120 103 -272t27 -350.5t-27 -350.5t-103 -272q-196 -316 -625 -316h-291v859h-170zM512 160h120q316 0 468 216q64 91 90 228t26 334.5t-26 335t-90 227.5q-152 216 -468 216h-120v-698h341v-160h-341v-699z"/>
            <glyph unicode="&#xd1;"
                   d="M171 0v1877h169l841 -1544h14v1544h170v-1877h-170l-840 1544h-14v-1544h-170zM337 2081q4 128 71.5 215.5t188.5 87.5q53 0 99.5 -17.5t76.5 -43t56.5 -50.5t54 -42.5t55.5 -17.5q81 0 89 151l171 -8q-3 -125 -71 -214t-189 -89q-53 0 -99.5 17.5t-76.5 42.5t-56.5 50.5 t-54 43t-55.5 17.5q-81 0 -89 -151z"/>
            <glyph unicode="&#xd2;"
                   d="M149 938.5q0 317.5 38 465.5q53 216 201 355.5t380 139.5t380 -139.5t201 -355.5q37 -148 37.5 -465.5t-37.5 -465.5q-53 -216 -201 -355t-380 -139t-380 139t-201 355q-38 148 -38 465.5zM320 939q0 -284 33 -430q40 -163 143.5 -266.5t271.5 -103.5t271.5 104 t143.5 266q33 145 33 429.5t-33 429.5q-40 163 -143.5 267t-271.5 104t-271.5 -104t-143.5 -267q-33 -145 -33 -429zM480 2389h184l221 -341h-184z"/>
            <glyph unicode="&#xd3;"
                   d="M149 938.5q0 317.5 38 465.5q53 216 201 355.5t380 139.5t380 -139.5t201 -355.5q37 -148 37.5 -465.5t-37.5 -465.5q-53 -216 -201 -355t-380 -139t-380 139t-201 355q-38 148 -38 465.5zM320 939q0 -284 33 -430q40 -163 143.5 -266.5t271.5 -103.5t271.5 104 t143.5 266q33 145 33 429.5t-33 429.5q-40 163 -143.5 267t-271.5 104t-271.5 -104t-143.5 -267q-33 -145 -33 -429zM651 2048l221 341h184l-221 -341h-184z"/>
            <glyph unicode="&#xd4;"
                   d="M149 938.5q0 317.5 38 465.5q53 216 201 355.5t380 139.5t380 -139.5t201 -355.5q37 -148 37.5 -465.5t-37.5 -465.5q-53 -216 -201 -355t-380 -139t-380 139t-201 355q-38 148 -38 465.5zM267 2048l396 341h210l396 -341h-210l-291 218l-291 -218h-210zM320 939 q0 -284 33 -430q40 -163 143.5 -266.5t271.5 -103.5t271.5 104t143.5 266q33 145 33 429.5t-33 429.5q-40 163 -143.5 267t-271.5 104t-271.5 -104t-143.5 -267q-33 -145 -33 -429z"/>
            <glyph unicode="&#xd5;"
                   d="M149 938.5q0 317.5 38 465.5q53 216 201 355.5t380 139.5t380 -139.5t201 -355.5q37 -148 37.5 -465.5t-37.5 -465.5q-53 -216 -201 -355t-380 -139t-380 139t-201 355q-38 148 -38 465.5zM320 939q0 -284 33 -430q40 -163 143.5 -266.5t271.5 -103.5t271.5 104 t143.5 266q33 145 33 429.5t-33 429.5q-40 163 -143.5 267t-271.5 104t-271.5 -104t-143.5 -267q-33 -145 -33 -429zM337 2081q4 128 71.5 215.5t188.5 87.5q53 0 99.5 -17.5t76.5 -43t56.5 -50.5t54 -42.5t55.5 -17.5q81 0 89 151l171 -8q-3 -125 -71 -214t-189 -89 q-53 0 -99.5 17.5t-76.5 42.5t-56.5 50.5t-54 43t-55.5 17.5q-81 0 -89 -151z"/>
            <glyph unicode="&#xd6;"
                   d="M149 938.5q0 317.5 38 465.5q53 216 201 355.5t380 139.5t380 -139.5t201 -355.5q37 -148 37.5 -465.5t-37.5 -465.5q-53 -216 -201 -355t-380 -139t-380 139t-201 355q-38 148 -38 465.5zM320 939q0 -284 33 -430q40 -163 143.5 -266.5t271.5 -103.5t271.5 104 t143.5 266q33 145 33 429.5t-33 429.5q-40 163 -143.5 267t-271.5 104t-271.5 -104t-143.5 -267q-33 -145 -33 -429zM320 2218.5q0 66.5 41.5 108t108 41.5t108 -41.5t41.5 -108t-41.5 -108t-108 -41.5t-108 41.5t-41.5 108zM917 2218.5q0 66.5 41.5 108t108 41.5t108 -41.5 t41.5 -108t-41.5 -108t-108 -41.5t-108 41.5t-41.5 108z"/>
            <glyph unicode="&#xd7;"
                   d="M203 320l366 363l114 78v14l-114 78l-366 363l125 109l355 -358l78 -114h14l78 114l355 358l125 -109l-366 -363l-114 -78v-14l114 -78l366 -363l-125 -109l-355 358l-78 114h-14l-78 -114l-355 -358z"/>
            <glyph unicode="&#xd8;"
                   d="M149.5 938.5q-0.5 308.5 37.5 465.5q51 216 202.5 355.5t378.5 139.5q237 0 399 -159l101 172l115 -69l-127 -214q65 -104 93 -225q37 -157 37.5 -465t-37.5 -466q-51 -216 -202.5 -355t-378.5 -139q-237 0 -399 158l-101 -172l-115 70l127 213q-65 104 -93 225 q-37 157 -37.5 465.5zM320 939q0 -175 11.5 -299.5t49.5 -220.5l696 1172q-118 148 -309 148q-163 0 -269.5 -104t-145.5 -267q-33 -143 -33 -429zM459 287q119 -148 309 -148q163 0 269.5 104t145.5 266q33 143 33 430q0 175 -11.5 299.5t-49.5 220.5z"/>
            <glyph unicode="&#xd9;"
                   d="M171 683v1194h170v-1194q0 -179 16 -243q33 -136 143.5 -218.5t267.5 -82.5t267 82.5t144 218.5q16 64 16 243v1194h170v-1194q0 -188 -21 -279q-45 -188 -202 -306.5t-374 -118.5t-374.5 118.5t-201.5 306.5q-21 91 -21 279zM480 2389h184l221 -341h-184z"/>
            <glyph unicode="&#xda;"
                   d="M171 683v1194h170v-1194q0 -179 16 -243q33 -136 143.5 -218.5t267.5 -82.5t267 82.5t144 218.5q16 64 16 243v1194h170v-1194q0 -188 -21 -279q-45 -188 -202 -306.5t-374 -118.5t-374.5 118.5t-201.5 306.5q-21 91 -21 279zM651 2048l221 341h184l-221 -341h-184z"/>
            <glyph unicode="&#xdb;"
                   d="M171 683v1194h170v-1194q0 -179 16 -243q33 -136 143.5 -218.5t267.5 -82.5t267 82.5t144 218.5q16 64 16 243v1194h170v-1194q0 -188 -21 -279q-45 -188 -202 -306.5t-374 -118.5t-374.5 118.5t-201.5 306.5q-21 91 -21 279zM267 2048l396 341h210l396 -341h-210 l-291 218l-291 -218h-210z"/>
            <glyph unicode="&#xdc;"
                   d="M171 683v1194h170v-1194q0 -179 16 -243q33 -136 143.5 -218.5t267.5 -82.5t267 82.5t144 218.5q16 64 16 243v1194h170v-1194q0 -188 -21 -279q-45 -188 -202 -306.5t-374 -118.5t-374.5 118.5t-201.5 306.5q-21 91 -21 279zM320 2218.5q0 66.5 41.5 108t108 41.5 t108 -41.5t41.5 -108t-41.5 -108t-108 -41.5t-108 41.5t-41.5 108zM917 2218.5q0 66.5 41.5 108t108 41.5t108 -41.5t41.5 -108t-41.5 -108t-108 -41.5t-108 41.5t-41.5 108z"/>
            <glyph unicode="&#xdd;"
                   d="M133 1877h182q204 -541 440 -889h26q235 345 440 889h182q-121 -316 -251.5 -574.5t-298.5 -481.5v-821h-170v821q-168 223 -298 481.5t-252 574.5zM651 2048l221 341h184l-221 -341h-184z"/>
            <glyph unicode="&#xde;"
                   d="M341 0v1877h171v-341h257q172 0 246 -17q164 -39 268 -171.5t104 -323.5t-104 -323.5t-268 -171.5q-73 -17 -246 -17h-257v-512h-171zM512 672h257q143 0 203 13q109 24 176.5 115.5t67.5 223.5t-67.5 223.5t-176.5 115.5q-60 13 -203 13h-257v-704z"/>
            <glyph unicode="&#xdf;"
                   d="M341 0v1437q0 209 103.5 335.5t304.5 126.5q175 0 281 -123.5t106 -311.5q0 -123 -34.5 -208t-128.5 -132v-13q103 -35 162.5 -109t80.5 -172t21 -246q0 -181 -40.5 -312.5t-136.5 -212t-244 -80.5q-59 0 -144 14l21 158q63 -12 96 -12q69 0 120.5 24.5t81 64t47.5 100 t23.5 120t5.5 136.5q0 103 -15 179.5t-50 138.5t-98.5 94.5t-154.5 32.5v160q216 0 216 275q0 129 -56 202t-160 73q-135 0 -186 -75.5t-51 -226.5v-1437h-171z"/>
            <glyph unicode="&#xe0;"
                   d="M299 401q0 192 117 310q43 41 91 67.5t100.5 36.5t82.5 12t75 2h259v163q0 116 -24 157q-23 39 -65 58.5t-124 19.5q-160 0 -384 -28v162q220 26 384 26q115 0 201.5 -35.5t142.5 -134.5q40 -71 40 -218v-999h-171v164h-13q-135 -185 -334 -185q-160 0 -269 120t-109 302 zM469 404q0 -113 65 -189t175 -76q64 0 114 18.5t83 46.5t56 73.5t34.5 84.5t18 94t8 89.5t1.5 82.5v55h-261q-49 0 -76.5 -3t-69 -19.5t-73.5 -49.5q-75 -79 -75 -207zM480 1877h184l221 -341h-184z"/>
            <glyph unicode="&#xe1;"
                   d="M299 401q0 192 117 310q43 41 91 67.5t100.5 36.5t82.5 12t75 2h259v163q0 116 -24 157q-23 39 -65 58.5t-124 19.5q-160 0 -384 -28v162q220 26 384 26q115 0 201.5 -35.5t142.5 -134.5q40 -71 40 -218v-999h-171v164h-13q-135 -185 -334 -185q-160 0 -269 120t-109 302 zM469 404q0 -113 65 -189t175 -76q64 0 114 18.5t83 46.5t56 73.5t34.5 84.5t18 94t8 89.5t1.5 82.5v55h-261q-49 0 -76.5 -3t-69 -19.5t-73.5 -49.5q-75 -79 -75 -207zM651 1536l221 341h184l-221 -341h-184z"/>
            <glyph unicode="&#xe2;"
                   d="M267 1536l396 341h210l396 -341h-210l-291 218l-291 -218h-210zM299 401q0 192 117 310q43 41 91 67.5t100.5 36.5t82.5 12t75 2h259v163q0 116 -24 157q-23 39 -65 58.5t-124 19.5q-160 0 -384 -28v162q220 26 384 26q115 0 201.5 -35.5t142.5 -134.5q40 -71 40 -218 v-999h-171v164h-13q-135 -185 -334 -185q-160 0 -269 120t-109 302zM469 404q0 -113 65 -189t175 -76q64 0 114 18.5t83 46.5t56 73.5t34.5 84.5t18 94t8 89.5t1.5 82.5v55h-261q-49 0 -76.5 -3t-69 -19.5t-73.5 -49.5q-75 -79 -75 -207z"/>
            <glyph unicode="&#xe3;"
                   d="M299 401q0 192 117 310q43 41 91 67.5t100.5 36.5t82.5 12t75 2h259v163q0 116 -24 157q-23 39 -65 58.5t-124 19.5q-160 0 -384 -28v162q220 26 384 26q115 0 201.5 -35.5t142.5 -134.5q40 -71 40 -218v-999h-171v164h-13q-135 -185 -334 -185q-160 0 -269 120t-109 302 zM337 1569q4 128 71.5 215.5t188.5 87.5q53 0 99.5 -17.5t76.5 -43t56.5 -50.5t54 -42.5t55.5 -17.5q81 0 89 151l171 -8q-3 -125 -71 -214t-189 -89q-53 0 -99.5 17.5t-76.5 42.5t-56.5 50.5t-54 43t-55.5 17.5q-81 0 -89 -151zM469 404q0 -113 65 -189t175 -76 q64 0 114 18.5t83 46.5t56 73.5t34.5 84.5t18 94t8 89.5t1.5 82.5v55h-261q-49 0 -76.5 -3t-69 -19.5t-73.5 -49.5q-75 -79 -75 -207z"/>
            <glyph unicode="&#xe4;"
                   d="M299 401q0 192 117 310q43 41 91 67.5t100.5 36.5t82.5 12t75 2h259v163q0 116 -24 157q-23 39 -65 58.5t-124 19.5q-160 0 -384 -28v162q220 26 384 26q115 0 201.5 -35.5t142.5 -134.5q40 -71 40 -218v-999h-171v164h-13q-135 -185 -334 -185q-160 0 -269 120t-109 302 zM320 1706.5q0 66.5 41.5 108t108 41.5t108 -41.5t41.5 -108t-41.5 -108t-108 -41.5t-108 41.5t-41.5 108zM469 404q0 -113 65 -189t175 -76q64 0 114 18.5t83 46.5t56 73.5t34.5 84.5t18 94t8 89.5t1.5 82.5v55h-261q-49 0 -76.5 -3t-69 -19.5t-73.5 -49.5 q-75 -79 -75 -207zM917 1706.5q0 66.5 41.5 108t108 41.5t108 -41.5t41.5 -108t-41.5 -108t-108 -41.5t-108 41.5t-41.5 108z"/>
            <glyph unicode="&#xe5;"
                   d="M299 401q0 192 117 310q43 41 91 67.5t100.5 36.5t82.5 12t75 2h259v163q0 116 -24 157q-23 39 -65 58.5t-124 19.5q-160 0 -384 -28v162q13 1 45.5 4.5t51.5 5.5q-60 72 -60 165q0 129 85.5 216.5t218.5 87.5t218.5 -87.5t85.5 -216.5q0 -105 -73 -183q100 -40 156 -136 q40 -71 40 -218v-999h-171v164h-13q-135 -185 -334 -185q-160 0 -269 120t-109 302zM469 404q0 -113 65 -189t175 -76q64 0 114 18.5t83 46.5t56 73.5t34.5 84.5t18 94t8 89.5t1.5 82.5v55h-261q-49 0 -76.5 -3t-69 -19.5t-73.5 -49.5q-75 -79 -75 -207zM608 1536 q0 -71 44 -110t116 -39t116 39t44 110q0 81 -44 126t-116 45t-116 -45t-44 -126z"/>
            <glyph unicode="&#xe6;"
                   d="M128 412q0 137 54.5 247t154.5 156q61 28 156 28h190v154q0 63 -7.5 102.5t-29.5 71.5t-65.5 46.5t-111.5 14.5q-96 0 -298 -27v163q200 24 298 24q53 0 90.5 -5.5t83 -22t83 -56t65.5 -99.5h13q88 177 249 178q128 0 211.5 -93.5t115.5 -224.5q25 -103 25 -300v-86h-552 v-58q0 -69 3 -119.5t11 -112t26 -103t44.5 -78t70.5 -55t101 -18.5q49 0 256 33v-163q-193 -31 -260 -30q-227 0 -326 218h-14q-48 -103 -125 -160.5t-176 -57.5q-109 0 -187 63t-113.5 159t-35.5 211zM299 412q0 -107 42 -190t123 -83q65 0 119 51t76 117q24 75 24 254v122 h-180q-63 0 -91.5 -12t-55.5 -50q-57 -82 -57 -209zM855 843h381q-4 224 -69 321q-49 63 -114 63q-67 0 -110.5 -57.5t-65.5 -138.5q-20 -75 -22 -188z"/>
            <glyph unicode="&#xe7;"
                   d="M299 682.5q0 149.5 10 245.5t47 180q121 279 452 279q133 0 360 -23v-160q-229 23 -360 23q-115 0 -182 -43.5t-110 -131.5q-21 -45 -32.5 -113t-13 -117t-1.5 -139.5t1.5 -139t13 -116.5t32.5 -114q43 -88 110 -131t182 -43q156 0 387 34v-160q-100 -16 -171 -22 q-3 -139 -69 -228q-93 -127 -272 -127q-64 0 -171 23v164q116 -27 171 -27q88 0 133 60q35 45 37 123h-45q-331 0 -452 278q-37 84 -47 180t-10 245.5z"/>
            <glyph unicode="&#xe8;"
                   d="M299 683q0 105 2 164.5t13 136.5t34 135q44 119 154 193.5t266 74.5t266 -75t154 -193q23 -57 34 -134.5t13 -137t2 -164.5h-768q0 -91 1.5 -139.5t11.5 -116.5t30 -114q77 -175 283 -174q155 0 400 28v-160q-243 -28 -400 -28q-165 0 -278.5 77t-164.5 201 q-35 84 -44 180t-9 246zM472 843h592q-8 159 -36 222q-29 76 -96.5 119t-163.5 43t-163.5 -43t-96.5 -119q-28 -64 -36 -222zM480 1877h184l221 -341h-184z"/>
            <glyph unicode="&#xe9;"
                   d="M299 683q0 105 2 164.5t13 136.5t34 135q44 119 154 193.5t266 74.5t266 -75t154 -193q23 -57 34 -134.5t13 -137t2 -164.5h-768q0 -91 1.5 -139.5t11.5 -116.5t30 -114q77 -175 283 -174q155 0 400 28v-160q-243 -28 -400 -28q-165 0 -278.5 77t-164.5 201 q-35 84 -44 180t-9 246zM472 843h592q-8 159 -36 222q-29 76 -96.5 119t-163.5 43t-163.5 -43t-96.5 -119q-28 -64 -36 -222zM651 1536l221 341h184l-221 -341h-184z"/>
            <glyph unicode="&#xea;"
                   d="M267 1536l396 341h210l396 -341h-210l-291 218l-291 -218h-210zM299 683q0 105 2 164.5t13 136.5t34 135q44 119 154 193.5t266 74.5t266 -75t154 -193q23 -57 34 -134.5t13 -137t2 -164.5h-768q0 -91 1.5 -139.5t11.5 -116.5t30 -114q77 -175 283 -174q155 0 400 28 v-160q-243 -28 -400 -28q-165 0 -278.5 77t-164.5 201q-35 84 -44 180t-9 246zM472 843h592q-8 159 -36 222q-29 76 -96.5 119t-163.5 43t-163.5 -43t-96.5 -119q-28 -64 -36 -222z"/>
            <glyph unicode="&#xeb;"
                   d="M299 683q0 105 2 164.5t13 136.5t34 135q44 119 154 193.5t266 74.5t266 -75t154 -193q23 -57 34 -134.5t13 -137t2 -164.5h-768q0 -91 1.5 -139.5t11.5 -116.5t30 -114q77 -175 283 -174q155 0 400 28v-160q-243 -28 -400 -28q-165 0 -278.5 77t-164.5 201 q-35 84 -44 180t-9 246zM320 1706.5q0 66.5 41.5 108t108 41.5t108 -41.5t41.5 -108t-41.5 -108t-108 -41.5t-108 41.5t-41.5 108zM472 843h592q-8 159 -36 222q-29 76 -96.5 119t-163.5 43t-163.5 -43t-96.5 -119q-28 -64 -36 -222zM917 1706.5q0 66.5 41.5 108t108 41.5 t108 -41.5t41.5 -108t-41.5 -108t-108 -41.5t-108 41.5t-41.5 108z"/>
            <glyph unicode="&#xec;" d="M341 1205v160h512v-1365h-170v1205h-342zM480 1877h184l221 -341h-184z"/>
            <glyph unicode="&#xed;" d="M341 1205v160h512v-1365h-170v1205h-342zM651 1536l221 341h184l-221 -341h-184z"/>
            <glyph unicode="&#xee;"
                   d="M267 1536l396 341h210l396 -341h-210l-291 218l-291 -218h-210zM341 1205v160h512v-1365h-170v1205h-342z"/>
            <glyph unicode="&#xef;"
                   d="M320 1706.5q0 66.5 41.5 108t108 41.5t108 -41.5t41.5 -108t-41.5 -108t-108 -41.5t-108 41.5t-41.5 108zM341 1205v160h512v-1365h-170v1205h-342zM917 1706.5q0 66.5 41.5 108t108 41.5t108 -41.5t41.5 -108t-41.5 -108t-108 -41.5t-108 41.5t-41.5 108z"/>
            <glyph unicode="&#xf0;"
                   d="M299 597q0 220 40 338q41 123 146.5 202t255.5 79q83 0 143 -34t121 -102h14q-52 265 -227 469l-251 -169l-58 88l237 161q-101 104 -225 171l56 104q168 -76 292 -192l261 177l59 -88l-246 -166q171 -176 245.5 -433.5t74.5 -604.5q0 -113 -8.5 -189t-36.5 -148 q-48 -121 -155.5 -201t-241.5 -80q-337 0 -451 281q-29 72 -37 146.5t-8 190.5zM469 597q0 -197 35 -284q33 -81 102 -127.5t162 -46.5t162 46.5t102 127.5q35 87 35 284q0 208 -30 284q-31 81 -100.5 128t-168.5 47t-167 -46.5t-97 -128.5q-35 -100 -35 -284z"/>
            <glyph unicode="&#xf1;"
                   d="M337 1569q4 128 71.5 215.5t188.5 87.5q53 0 99.5 -17.5t76.5 -43t56.5 -50.5t54 -42.5t55.5 -17.5q81 0 89 151l171 -8q-3 -125 -71 -214t-189 -89q-53 0 -99.5 17.5t-76.5 42.5t-56.5 50.5t-54 43t-55.5 17.5q-81 0 -89 -151zM341 0v1365h171v-149h13q49 77 122 124 t148 47q96 0 176 -39t132 -104q33 -41 53 -85t27.5 -97.5t9.5 -88t2 -97.5v-876h-171v876q0 73 -2 109t-16 81t-42 78q-72 83 -196 83t-196 -83q-28 -33 -42 -78t-16 -81t-2 -109v-876h-171z"/>
            <glyph unicode="&#xf2;"
                   d="M299 683q0 172 17 288.5t69 201.5q63 100 161 157t222 57t222 -57t161 -157q52 -85 69 -201.5t17 -288.5t-17 -289t-69 -202q-63 -100 -161 -156.5t-222 -56.5t-222 56.5t-161 156.5q-52 85 -69 202t-17 289zM469 682.5q0 -98.5 3 -157t17.5 -132.5t43.5 -124 q77 -131 234.5 -130.5t235.5 130.5q29 49 43.5 123.5t17.5 133t3 157t-3 157.5t-17.5 133t-43.5 123q-78 131 -235 131t-235 -131q-29 -49 -43.5 -123t-17.5 -133t-3 -157.5zM480 1877h184l221 -341h-184z"/>
            <glyph unicode="&#xf3;"
                   d="M299 683q0 172 17 288.5t69 201.5q63 100 161 157t222 57t222 -57t161 -157q52 -85 69 -201.5t17 -288.5t-17 -289t-69 -202q-63 -100 -161 -156.5t-222 -56.5t-222 56.5t-161 156.5q-52 85 -69 202t-17 289zM469 682.5q0 -98.5 3 -157t17.5 -132.5t43.5 -124 q77 -131 234.5 -130.5t235.5 130.5q29 49 43.5 123.5t17.5 133t3 157t-3 157.5t-17.5 133t-43.5 123q-78 131 -235 131t-235 -131q-29 -49 -43.5 -123t-17.5 -133t-3 -157.5zM651 1536l221 341h184l-221 -341h-184z"/>
            <glyph unicode="&#xf4;"
                   d="M267 1536l396 341h210l396 -341h-210l-291 218l-291 -218h-210zM299 683q0 172 17 288.5t69 201.5q63 100 161 157t222 57t222 -57t161 -157q52 -85 69 -201.5t17 -288.5t-17 -289t-69 -202q-63 -100 -161 -156.5t-222 -56.5t-222 56.5t-161 156.5q-52 85 -69 202 t-17 289zM469 682.5q0 -98.5 3 -157t17.5 -132.5t43.5 -124q77 -131 234.5 -130.5t235.5 130.5q29 49 43.5 123.5t17.5 133t3 157t-3 157.5t-17.5 133t-43.5 123q-78 131 -235 131t-235 -131q-29 -49 -43.5 -123t-17.5 -133t-3 -157.5z"/>
            <glyph unicode="&#xf5;"
                   d="M299 683q0 172 17 288.5t69 201.5q63 100 161 157t222 57t222 -57t161 -157q52 -85 69 -201.5t17 -288.5t-17 -289t-69 -202q-63 -100 -161 -156.5t-222 -56.5t-222 56.5t-161 156.5q-52 85 -69 202t-17 289zM337 1569q4 128 71.5 215.5t188.5 87.5q53 0 99.5 -17.5 t76.5 -43t56.5 -50.5t54 -42.5t55.5 -17.5q81 0 89 151l171 -8q-3 -125 -71 -214t-189 -89q-53 0 -99.5 17.5t-76.5 42.5t-56.5 50.5t-54 43t-55.5 17.5q-81 0 -89 -151zM469 682.5q0 -98.5 3 -157t17.5 -132.5t43.5 -124q77 -131 234.5 -130.5t235.5 130.5 q29 49 43.5 123.5t17.5 133t3 157t-3 157.5t-17.5 133t-43.5 123q-78 131 -235 131t-235 -131q-29 -49 -43.5 -123t-17.5 -133t-3 -157.5z"/>
            <glyph unicode="&#xf6;"
                   d="M299 683q0 172 17 288.5t69 201.5q63 100 161 157t222 57t222 -57t161 -157q52 -85 69 -201.5t17 -288.5t-17 -289t-69 -202q-63 -100 -161 -156.5t-222 -56.5t-222 56.5t-161 156.5q-52 85 -69 202t-17 289zM320 1706.5q0 66.5 41.5 108t108 41.5t108 -41.5t41.5 -108 t-41.5 -108t-108 -41.5t-108 41.5t-41.5 108zM469 682.5q0 -98.5 3 -157t17.5 -132.5t43.5 -124q77 -131 234.5 -130.5t235.5 130.5q29 49 43.5 123.5t17.5 133t3 157t-3 157.5t-17.5 133t-43.5 123q-78 131 -235 131t-235 -131q-29 -49 -43.5 -123t-17.5 -133t-3 -157.5z M917 1706.5q0 66.5 41.5 108t108 41.5t108 -41.5t41.5 -108t-41.5 -108t-108 -41.5t-108 41.5t-41.5 108z"/>
            <glyph unicode="&#xf7;"
                   d="M171 688v160h1194v-160h-1194zM619 298.5q0 66.5 41 108t108 41.5t108 -41.5t41 -108t-41 -108t-108 -41.5t-108 41.5t-41 108zM619 1237.5q0 66.5 41 108t108 41.5t108 -41.5t41 -108t-41 -108t-108 -41.5t-108 41.5t-41 108z"/>
            <glyph unicode="&#xf8;"
                   d="M249 37l122 180q-45 87 -58.5 195t-13.5 271q0 148 9 242.5t44 179.5q49 124 156.5 203t259.5 79q189 0 313 -124l96 140l110 -75l-122 -180q45 -87 58.5 -195t13.5 -270q0 -148 -9 -243t-44 -180q-49 -124 -156.5 -202.5t-259.5 -78.5q-189 0 -313 124l-96 -140z M469 683q0 -199 20 -292l496 730q-77 106 -217 106q-185 0 -256 -175q-43 -107 -43 -369zM551 244q77 -105 217 -105q185 0 256 174q43 107 43 370q0 199 -20 292z"/>
            <glyph unicode="&#xf9;"
                   d="M341 489v876h171v-876q0 -73 2 -109t16 -80.5t42 -78.5q72 -83 196 -82.5t196 82.5q28 33 42 78t16 81t2 109v876h171v-1365h-171v149h-13q-49 -77 -122 -123.5t-148 -46.5q-96 0 -176 38.5t-132 103.5q-33 41 -53 85.5t-27.5 97.5t-9.5 88t-2 97zM480 1877h184l221 -341 h-184z"/>
            <glyph unicode="&#xfa;"
                   d="M341 489v876h171v-876q0 -73 2 -109t16 -80.5t42 -78.5q72 -83 196 -82.5t196 82.5q28 33 42 78t16 81t2 109v876h171v-1365h-171v149h-13q-49 -77 -122 -123.5t-148 -46.5q-96 0 -176 38.5t-132 103.5q-33 41 -53 85.5t-27.5 97.5t-9.5 88t-2 97zM651 1536l221 341h184 l-221 -341h-184z"/>
            <glyph unicode="&#xfb;"
                   d="M267 1536l396 341h210l396 -341h-210l-291 218l-291 -218h-210zM341 489v876h171v-876q0 -73 2 -109t16 -80.5t42 -78.5q72 -83 196 -82.5t196 82.5q28 33 42 78t16 81t2 109v876h171v-1365h-171v149h-13q-49 -77 -122 -123.5t-148 -46.5q-96 0 -176 38.5t-132 103.5 q-33 41 -53 85.5t-27.5 97.5t-9.5 88t-2 97z"/>
            <glyph unicode="&#xfc;"
                   d="M320 1706.5q0 66.5 41.5 108t108 41.5t108 -41.5t41.5 -108t-41.5 -108t-108 -41.5t-108 41.5t-41.5 108zM341 489v876h171v-876q0 -73 2 -109t16 -80.5t42 -78.5q72 -83 196 -82.5t196 82.5q28 33 42 78t16 81t2 109v876h171v-1365h-171v149h-13q-49 -77 -122 -123.5 t-148 -46.5q-96 0 -176 38.5t-132 103.5q-33 41 -53 85.5t-27.5 97.5t-9.5 88t-2 97zM917 1706.5q0 66.5 41.5 108t108 41.5t108 -41.5t41.5 -108t-41.5 -108t-108 -41.5t-108 41.5t-41.5 108z"/>
            <glyph unicode="&#xfd;"
                   d="M272 1365h175q139 -637 346 -1045h14q127 389 284 1045h174q-7 -25 -31.5 -125.5t-31 -129.5t-29 -119t-32.5 -126.5t-31.5 -118.5t-35.5 -128.5t-36.5 -124t-42 -137.5t-44 -134.5t-50.5 -148.5q-32 -91 -50 -136.5t-51 -104.5t-72 -89q-125 -105 -387 -106v160 q191 0 262 55q31 23 56.5 69.5t41 86.5t58.5 163h-70q-144 261 -240.5 551.5t-176.5 642.5zM651 1536l221 341h184l-221 -341h-184z"/>
            <glyph unicode="&#xfe;"
                   d="M341 -512v2389h171v-678h13q120 188 291 188q132 0 234.5 -83.5t149.5 -232.5q17 -56 26 -125.5t10 -118t1 -144.5t-1 -145t-10 -118t-26 -125q-47 -149 -149.5 -232.5t-234.5 -83.5q-171 0 -291 188h-13v-679h-171zM512 683q0 -236 35 -342q29 -87 91 -144.5 t151.5 -57.5t151.5 58t91 144q35 105 35 341.5t-35 341.5q-29 87 -91 145t-151.5 58t-151.5 -58t-91 -145q-35 -105 -35 -341z"/>
            <glyph unicode="&#xff;"
                   d="M272 1365h175q139 -637 346 -1045h14q127 389 284 1045h174q-7 -25 -31.5 -125.5t-31 -129.5t-29 -119t-32.5 -126.5t-31.5 -118.5t-35.5 -128.5t-36.5 -124t-42 -137.5t-44 -134.5t-50.5 -148.5q-32 -91 -50 -136.5t-51 -104.5t-72 -89q-125 -105 -387 -106v160 q191 0 262 55q31 23 56.5 69.5t41 86.5t58.5 163h-70q-144 261 -240.5 551.5t-176.5 642.5zM320 1706.5q0 66.5 41.5 108t108 41.5t108 -41.5t41.5 -108t-41.5 -108t-108 -41.5t-108 41.5t-41.5 108zM917 1706.5q0 66.5 41.5 108t108 41.5t108 -41.5t41.5 -108t-41.5 -108 t-108 -41.5t-108 41.5t-41.5 108z"/>
            <glyph unicode="&#x152;"
                   d="M149 938.5q0 257.5 30 455.5t121 315q129 168 383 168h682v-160h-341v-698h341v-160h-341v-699h341v-160h-682q-253 0 -383 168q-91 117 -121 315t-30 455.5zM320 938.5q0 -342.5 51 -529.5q32 -121 105 -185t207 -64h170v1557h-170q-133 0 -206.5 -64t-105.5 -185 q-51 -187 -51 -529.5z"/>
            <glyph unicode="&#x153;"
                   d="M128 682.5q0 94.5 3.5 161.5t15.5 148t33 139t60.5 114t95.5 94q71 48 155 48q197 0 272 -236h13q96 236 277 236q128 0 211.5 -93.5t115.5 -224.5q25 -103 25 -300v-86h-552v-58q0 -69 3 -119.5t11 -112t26 -103t44.5 -78t70.5 -55t101 -18.5q41 0 256 17v-160 q-181 -17 -260 -17q-227 0 -326 218h-14q-32 -97 -100 -157.5t-174 -60.5q-84 0 -155 48q-56 37 -95.5 93t-60.5 114t-33 139.5t-15.5 148t-3.5 161zM299 683q0 -172 16.5 -291t72.5 -191q48 -62 102.5 -62t102.5 62q55 72 72.5 192t17.5 290q0 172 -17 290.5t-73 190.5 q-48 63 -102.5 63t-102.5 -63q-55 -72 -72 -192t-17 -289zM855 843h381q-5 239 -69 321q-49 63 -114 63q-67 0 -110 -57t-66 -139q-20 -75 -22 -188z"/>
            <glyph unicode="&#x178;"
                   d="M133 1877h182q204 -541 440 -889h26q235 345 440 889h182q-121 -316 -251.5 -574.5t-298.5 -481.5v-821h-170v821q-168 223 -298 481.5t-252 574.5zM320 2218.5q0 66.5 41.5 108t108 41.5t108 -41.5t41.5 -108t-41.5 -108t-108 -41.5t-108 41.5t-41.5 108zM917 2218.5 q0 66.5 41.5 108t108 41.5t108 -41.5t41.5 -108t-41.5 -108t-108 -41.5t-108 41.5t-41.5 108z"/>
            <glyph unicode="&#x2000;" horiz-adv-x="1194"/>
            <glyph unicode="&#x2001;" horiz-adv-x="2389"/>
            <glyph unicode="&#x2002;" horiz-adv-x="1194"/>
            <glyph unicode="&#x2003;" horiz-adv-x="2389"/>
            <glyph unicode="&#x2004;" horiz-adv-x="796"/>
            <glyph unicode="&#x2005;" horiz-adv-x="597"/>
            <glyph unicode="&#x2006;" horiz-adv-x="398"/>
            <glyph unicode="&#x2007;" horiz-adv-x="398"/>
            <glyph unicode="&#x2008;" horiz-adv-x="298"/>
            <glyph unicode="&#x2009;" horiz-adv-x="477"/>
            <glyph unicode="&#x200a;" horiz-adv-x="132"/>
            <glyph unicode="&#x2010;" d="M171 688v160h1194v-160h-1194z"/>
            <glyph unicode="&#x2011;" d="M171 688v160h1194v-160h-1194z"/>
            <glyph unicode="&#x2012;" d="M171 688v160h1194v-160h-1194z"/>
            <glyph unicode="&#x2013;" d="M341 687v160l854 1v-160z"/>
            <glyph unicode="&#x2014;" d="M171 687v160l1194 1v-160z"/>
            <glyph unicode="&#x2018;"
                   d="M683 1046v460q0 55 2 86.5t18.5 84.5t48.5 95q93 127 272 127v-160q-88 0 -133 -60q-17 -23 -26 -54t-10.5 -53t-1.5 -66v-140h171v-320h-341z"/>
            <glyph unicode="&#x2019;"
                   d="M512 1024v160q88 0 133 60q17 23 26 54t10.5 53t1.5 66v140h-171v320h341v-460q0 -55 -2 -86.5t-18.5 -84.5t-48.5 -95q-93 -127 -272 -127z"/>
            <glyph unicode="&#x201a;"
                   d="M512 -181q88 0 133 60q17 23 26 54t10.5 53t1.5 66v140h-171v320h341v-460q0 -55 -2 -86.5t-18.5 -84.5t-48.5 -95q-93 -127 -272 -127v160z"/>
            <glyph unicode="&#x201c;"
                   d="M342 1046v460q0 55 2 86.5t18.5 84.5t48.5 95q93 127 272 127v-160q-88 0 -133 -60q-17 -23 -26 -54t-10.5 -53t-1.5 -66v-140h171v-320h-341zM854 1046v460q0 55 2 86.5t18.5 84.5t48.5 95q93 127 272 127v-160q-88 0 -133 -60q-17 -23 -26 -54t-10.5 -53t-1.5 -66v-140 h171v-320h-341z"/>
            <glyph unicode="&#x201d;"
                   d="M341 1024v160q88 0 133 60q17 23 26 54t10.5 53t1.5 66v140h-171v320h341v-460q0 -55 -2 -86.5t-18.5 -84.5t-48.5 -95q-93 -127 -272 -127zM853 1024v160q88 0 133 60q17 23 26 54t10.5 53t1.5 66v140h-171v320h341v-460q0 -55 -2 -86.5t-18.5 -84.5t-48.5 -95 q-93 -127 -272 -127z"/>
            <glyph unicode="&#x201e;"
                   d="M341 170v320h341v-460q0 -55 -2 -86.5t-18.5 -84.5t-48.5 -95q-93 -127 -272 -127v160q88 0 133 60q17 23 26 54t10.5 53t1.5 66v140h-171zM853 170v320h341v-460q0 -55 -2 -86.5t-18.5 -84.5t-48.5 -95q-93 -127 -272 -127v160q88 0 133 60q17 23 26 54t10.5 53t1.5 66 v140h-171z"/>
            <glyph unicode="&#x2022;"
                   d="M491 938.5q0 122.5 77 200t200 77.5t200 -77.5t77 -200t-77 -200t-200 -77.5t-200 77.5t-77 200z"/>
            <glyph unicode="&#x2026;"
                   d="M189 128q0 67 41.5 108t108 41t108 -41t41.5 -108t-41.5 -108t-108 -41t-108 41t-41.5 108zM616 128q0 67 41.5 108t108 41t108 -41t41.5 -108t-41.5 -108t-108 -41t-108 41t-41.5 108zM1043 128q0 67 41 108t108 41t108 -41t41 -108t-41 -108t-108 -41t-108 41t-41 108z "/>
            <glyph unicode="&#x202f;" horiz-adv-x="477"/>
            <glyph unicode="&#x2039;" d="M512 723v90l428 572l139 -90l-400 -520v-14l400 -520l-139 -90z"/>
            <glyph unicode="&#x203a;" d="M457 241l400 520v14l-400 520l139 90l428 -572v-90l-428 -572z"/>
            <glyph unicode="&#x205f;" horiz-adv-x="597"/>
            <glyph unicode="&#x20ac;"
                   d="M169 683v160h155v192h-155v160h156q3 119 24.5 222.5t65.5 192.5t106.5 153t152 100t197.5 36q100 0 284 -8v-160q-192 8 -284 8q-125 0 -211.5 -77.5t-123.5 -196t-40 -270.5h528v-160h-536v-192h536v-160h-527q1 -251 93.5 -397.5t280.5 -146.5q121 0 324 17v-160 q-193 -17 -324 -17q-180 0 -303.5 90.5t-181 246t-59.5 367.5h-158z"/>
            <glyph unicode="&#x25fc;" horiz-adv-x="1366" d="M0 0v1367h1367v-1367h-1367z"/>
        </font>
</defs>
</svg>
