<?xml version="1.0" standalone="no"?>
<!DOCTYPE svg PUBLIC "-//W3C//DTD SVG 1.1//EN" "http://www.w3.org/Graphics/SVG/1.1/DTD/svg11.dtd" >
<svg xmlns="http://www.w3.org/2000/svg" xmlns:xlink="http://www.w3.org/1999/xlink" version="1.1">
    <metadata></metadata>
    <defs>
        <font id="monoiditalic" horiz-adv-x="1365">
            <font-face units-per-em="2048" ascent="1637" descent="-411"/>
            <missing-glyph horiz-adv-x="500"/>
            <glyph horiz-adv-x="0"/>
            <glyph unicode="&#xd;" horiz-adv-x="682"/>
            <glyph unicode=" "/>
            <glyph unicode="!"
                   d="M419 128q0 100 69 167.5t164 67.5q73 0 116.5 -41t43.5 -109q0 -100 -69.5 -167t-165.5 -67q-73 0 -115.5 40.5t-42.5 108.5zM629 683l219 1194h197l-245 -1194h-171z"/>
            <glyph unicode="&#x22;" d="M524 1024l167 853h170l-166 -853h-171zM1036 1024l167 853h170l-166 -853h-171z"/>
            <glyph unicode="#"
                   d="M255 512l30 160h171l104 533h-171l31 160h171l100 512h170l-100 -512h342l100 512h170l-100 -512h171l-31 -160h-170l-104 -533h170l-30 -160h-171l-100 -512h-171l100 512h-341l-100 -512h-171l100 512h-170zM627 672h341l104 533h-341z"/>
            <glyph unicode="$"
                   d="M151 21l32 164q184 -31 341 -41l149 765q-137 36 -217.5 133t-80.5 242q0 75 20.5 155t70.5 163t122.5 148.5t189.5 107t258 41.5l29 149h171l-31 -156q145 -9 291 -27l-32 -161q-188 21 -291 28l-140 -721q133 -37 214.5 -136.5t81.5 -249.5q0 -187 -96 -335.5 t-246.5 -226.5t-323.5 -84l-30 -150h-170l29 154q-159 9 -341 38zM548 1313q0 -73 30 -126.5t80.5 -82t102 -43t108.5 -18.5l135 696q-104 0 -186 -30t-131.5 -75.5t-82 -105t-44.5 -112t-12 -103.5zM693 139q124 7 227.5 60.5t169.5 158.5t66 241t-90 204.5t-227 79.5z"/>
            <glyph unicode="%"
                   d="M3 400l1426 1195l95 -118l-1427 -1194zM253 1460q0 167 127.5 303t314.5 136q137 0 218.5 -80t81.5 -207q0 -107 -55 -207t-158 -166t-229 -66q-137 0 -218.5 80t-81.5 207zM427 1483q0 -72 42 -111t115 -39q103 0 170 73t67 183q0 72 -42.5 111t-115.5 39 q-109 0 -172.5 -77.5t-63.5 -178.5zM533 265q0 167 127.5 303t314.5 136q137 0 218.5 -80t81.5 -207q0 -107 -55 -206.5t-158 -165.5t-229 -66q-137 0 -218.5 80t-81.5 206zM707 288q0 -72 42 -110.5t115 -38.5q103 0 170 72.5t67 183.5q0 72 -42.5 110.5t-115.5 38.5 q-109 0 -172.5 -77.5t-63.5 -178.5z"/>
            <glyph unicode="&#x26;"
                   d="M33 425q0 213 143 380.5t341 237.5q-41 77 -59 114.5t-34.5 96t-16.5 113.5q0 101 40.5 197.5t111 172t174 121.5t219.5 46q171 0 271.5 -97.5t100.5 -253.5q0 -208 -153.5 -372.5t-398.5 -225.5l297 -556q29 59 51 176l53 278h171l-53 -278q-43 -220 -136 -336l128 -239 h-207l-57 109q-185 -131 -442 -130q-259 0 -401.5 126.5t-142.5 319.5zM207 453q0 -139 104.5 -226.5t296.5 -87.5q204 0 339 104l-358 665q-159 -51 -270.5 -169t-111.5 -286zM580 1393q0 -15 1.5 -28t5.5 -29t6.5 -26.5t11 -30.5t12.5 -29.5t17 -35t18 -35.5t22.5 -42.5 t24.5 -44.5q219 51 335.5 164t116.5 271q0 99 -61.5 158t-169.5 59q-151 0 -245.5 -106.5t-94.5 -244.5z"/>
            <glyph unicode="'" d="M695 1024l166 853h170l-166 -853h-170z"/>
            <glyph unicode="("
                   d="M443 620q0 224 54 431.5t142.5 366t204.5 290.5t238 218t246 135l45 -140q-104 -41 -207 -116.5t-203 -192t-177 -257t-123.5 -325.5t-46.5 -382q0 -488 375 -695l-100 -140q-216 116 -332 319t-116 488z"/>
            <glyph unicode=")"
                   d="M160 -40q152 61 288 183t238.5 285t163.5 370.5t61 426.5q0 248 -97 423.5t-274 266.5l97 146q213 -108 330 -312.5t117 -495.5q0 -251 -71.5 -487.5t-192.5 -420.5t-281 -322t-339 -210z"/>
            <glyph unicode="*"
                   d="M115 849l85 151l459 -160l102 525h171l-103 -525l523 160l27 -151l-531 -162l228 -427l-159 -89l-222 414l-382 -414l-124 89l392 427z"/>
            <glyph unicode="+"
                   d="M153 688l32 160h512l100 517h171l-100 -517h512l-32 -160h-512l-100 -517h-171l100 517h-512z"/>
            <glyph unicode=","
                   d="M255 -363l30 160q89 0 146 60q21 23 35.5 54.5t20 52.5t14.5 67l28 140h-170l62 320h342l-91 -460q-12 -59 -19.5 -87.5t-33.5 -82.5t-67 -97q-117 -127 -297 -127z"/>
            <glyph unicode="-" d="M155 688l32 160h1194l-32 -160h-1194z"/>
            <glyph unicode="." d="M309 0l63 320h341l-62 -320h-342z"/>
            <glyph unicode="/" d="M-47 -136l1484 2220l138 -71l-1484 -2220z"/>
            <glyph unicode="0"
                   d="M247 355q0 139 86 584q36 189 57 284.5t55 209.5t71 179q167 289 435 289q89 0 155 -32.5t102.5 -88t54 -120t17.5 -137.5q0 -145 -85 -584q-36 -189 -57 -284.5t-55 -209.5t-71 -180q-167 -289 -435 -289q-115 0 -191.5 54.5t-107.5 136.5t-31 188zM425 321 q35 -180 184 -180q161 0 270 211q27 52 54.5 153.5t45.5 186t50 247.5q56 289 70 390zM429 548l674 1008q-35 180 -184 180q-163 0 -271 -211q-27 -52 -55.5 -156t-44.5 -182t-49 -248q-56 -289 -70 -391z"/>
            <glyph unicode="1" d="M444 1485l615 392h144l-366 -1877h-170l322 1661h-13l-472 -298z"/>
            <glyph unicode="2"
                   d="M155 0l22 119l827 1080q39 51 54 72.5t40.5 67.5t35.5 91.5t10 100.5q0 208 -268 208q-160 0 -392 -42l32 160q219 41 392 42q211 0 310 -95.5t99 -246.5q0 -92 -29 -178.5t-60.5 -134.5t-86.5 -120l-740 -964h710l-31 -160h-925z"/>
            <glyph unicode="3"
                   d="M164 47l32 166q229 -75 404 -74q144 0 222.5 64t121.5 184q29 84 54.5 214t25.5 207q0 116 -64 168.5t-157 52.5q-55 0 -107 -14l-59 101l496 601h-618l32 160h826l-29 -146l-500 -574l7 -9q45 13 89 13q124 0 191.5 -90.5t67.5 -226.5q0 -95 -29.5 -245t-65.5 -250 q-63 -172 -196 -271t-339 -99q-165 0 -405 68z"/>
            <glyph unicode="4"
                   d="M169 512l26 133l898 1270l131 -75l-816 -1155l-3 -13h563l68 352h171l-68 -352h170l-30 -160h-171l-100 -512h-171l100 512h-768z"/>
            <glyph unicode="5"
                   d="M159 20l32 163q223 -44 396 -44q88 0 159 33t116.5 91t77.5 125.5t48.5 146t23.5 142t7 123.5q0 256 -211 256q-176 0 -307 -145l-161 45l180 921h853l-32 -160h-682l-122 -629h14q79 63 151.5 95.5t162.5 32.5q328 0 328 -377q0 -105 -16 -212.5t-61 -227t-113 -210 t-184 -150.5t-263 -60q-164 0 -397 41z"/>
            <glyph unicode="6"
                   d="M237 339q0 88 34 257q36 183 99 349.5t135 294.5t174 258t191 222.5t207 204.5l106 -109q-185 -176 -316.5 -328.5t-230.5 -335.5l12 -5q101 69 217 69q163 0 251 -93.5t88 -251.5q0 -81 -37 -274q-15 -77 -24.5 -118.5t-32.5 -110.5t-54 -123q-68 -121 -184 -193.5 t-260 -72.5q-188 0 -281.5 94t-93.5 266zM413 369q0 -111 49 -170.5t167 -59.5q61 0 110.5 16t85.5 48t63 70.5t47.5 94.5t34 108t26.5 121q28 145 28 228q0 111 -48.5 171t-167.5 60q-61 0 -110.5 -16t-85.5 -48t-62.5 -70.5t-47.5 -94.5t-34.5 -108.5t-26.5 -121.5 q-28 -145 -28 -228z"/>
            <glyph unicode="7" d="M297 0l902 1704l2 13h-753l32 160h933l-24 -120l-920 -1757h-172z"/>
            <glyph unicode="8"
                   d="M196 367q0 191 90 345.5t253 228.5l2 14q-148 96 -148 296q0 85 21.5 173t67 174t109.5 152.5t157 107.5t203 41q177 0 266.5 -103t89.5 -272q0 -187 -81 -339t-234 -230l-3 -14q172 -99 172 -314q0 -113 -39 -226.5t-110.5 -208.5t-185.5 -154t-249 -59q-185 0 -283 106 t-98 282zM368 391q0 -116 59.5 -184t180.5 -68q97 0 174 46t120 118.5t65 152t22 156.5q0 116 -59.5 184t-180.5 68q-97 0 -173.5 -46t-120 -118.5t-65.5 -152t-22 -156.5zM565 1260q0 -109 52 -172.5t163 -63.5q99 0 172 51.5t110.5 130t55 154t17.5 143.5q0 109 -52 172.5 t-164 63.5q-77 0 -139.5 -33.5t-101.5 -85t-65 -116.5t-37 -126.5t-11 -117.5z"/>
            <glyph unicode="9"
                   d="M324 1007q0 81 37 273q15 77 24.5 118.5t32.5 111t54 122.5q69 123 187 195t270 72q179 0 270.5 -95.5t91.5 -264.5q0 -88 -34 -258q-36 -183 -99 -349.5t-135 -294.5t-174 -258t-191 -222.5t-207 -204.5l-106 109q185 176 316.5 329t230.5 335l-12 6q-101 -69 -219 -70 q-163 0 -250 93t-87 253zM503 1052q0 -111 49 -171t168 -60q61 0 110.5 16t85.5 48t62.5 71t47.5 95t34.5 108t26.5 121q28 144 28 228q0 111 -49.5 171t-168.5 60q-72 0 -128.5 -25t-93 -63.5t-65.5 -102.5t-45.5 -123.5t-32.5 -144.5q-29 -152 -29 -228z"/>
            <glyph unicode=":" d="M325 0l63 320h341l-62 -320h-342zM528 1045l63 320h341l-63 -320h-341z"/>
            <glyph unicode=";"
                   d="M255 -363l30 160q89 0 146 60q21 23 35.5 54.5t20 52.5t14.5 67l28 140h-170l62 320h342l-91 -460q-12 -59 -19.5 -87.5t-33.5 -82.5t-67 -97q-117 -127 -297 -127zM528 1045l63 320h341l-63 -320h-341z"/>
            <glyph unicode="&#x3c;" d="M292 708l24 120l880 701l91 -120l-804 -634l-3 -14l557 -634l-137 -120z"/>
            <glyph unicode="=" d="M223 347l30 160h854l-31 -160h-853zM355 1029l30 160h854l-31 -160h-853z"/>
            <glyph unicode="&#x3e;" d="M173 127l806 634l2 14l-558 634l138 120l608 -701l-24 -120l-880 -701z"/>
            <glyph unicode="?"
                   d="M419 128q0 91 64.5 163t168.5 72q73 0 116.5 -41t43.5 -109q0 -91 -65.5 -162.5t-169.5 -71.5q-73 0 -115.5 40.5t-42.5 108.5zM512 1689l32 160q223 49 351 50q207 0 314.5 -88t107.5 -248q0 -81 -22 -158t-54 -136.5t-86 -122.5t-101 -108t-117 -103 q-49 -43 -79.5 -91.5t-39.5 -78.5t-18 -82h-171q20 105 63.5 191t138.5 167q63 53 98.5 86.5t82.5 85.5t71.5 95.5t42.5 103t18 121.5q0 205 -281 206q-124 0 -351 -50z"/>
            <glyph unicode="@"
                   d="M84 437q0 75 28 223l108 557q28 153 71 251q65 152 186.5 251.5t273.5 135.5q95 23 264 22q132 0 201 -18q117 -31 182.5 -117.5t65.5 -214.5q0 -59 -23 -172l-162 -843h-171l32 164h-13q-153 -185 -324 -185q-132 0 -220 88.5t-88 244.5q0 109 49 218t136 181 q51 41 104 67.5t108 36.5t85.5 12t75.5 2h216q21 115 22 160q0 161 -150 203q-48 13 -158 13q-147 0 -218 -17q-220 -55 -314 -267q-33 -75 -60 -216l-108 -557q-25 -132 -26 -191q0 -235 212 -292q65 -17 211 -17q184 0 432 28l-31 -160q-244 -28 -432 -28q-168 0 -254 23 q-145 37 -228 143t-83 271zM669 856q0 -91 52 -148t142 -57q272 -1 353 422l24 122h-219q-49 0 -77 -3t-72.5 -19.5t-82.5 -49.5q-52 -47 -86 -119.5t-34 -147.5z"/>
            <glyph unicode="A"
                   d="M-49 0q160 535 378.5 999.5t530.5 877.5h173q205 -565 206 -1300q0 -277 -27 -577h-180q27 241 27 517h-755q-13 -39 -43 -121.5t-48 -133.5t-41.5 -124.5t-40.5 -137.5h-180zM364 677h699q-13 325 -44.5 572.5t-98.5 455.5h-13q-148 -208 -275 -454.5t-268 -573.5z"/>
            <glyph unicode="B"
                   d="M69 0l366 1877h369q172 0 241 -17q132 -32 210 -132t78 -247q0 -173 -86.5 -303.5t-221.5 -196.5l-2 -13q121 -35 190.5 -129.5t69.5 -226.5q0 -215 -139 -381.5t-319 -209.5q-89 -21 -288 -21h-468zM271 160h297q183 0 245 16q123 31 210.5 147.5t87.5 275.5 q0 97 -44 163t-123 86q-63 16 -239 16h-297zM439 1024h198q149 0 206 13q131 31 224 144.5t93 270.5q0 99 -50 165.5t-138 86.5q-57 13 -200 13h-199z"/>
            <glyph unicode="C"
                   d="M96 547q0 145 49 392q55 287 130 453q227 507 693 507q212 0 447 -39l-31 -160q-241 39 -448 39q-180 0 -300 -99.5t-203 -284.5q-64 -143 -117 -416q-45 -238 -45 -363q0 -209 84.5 -323t283.5 -114q197 0 490 49l-30 -160q-284 -49 -491 -49q-263 0 -387.5 152 t-124.5 416z"/>
            <glyph unicode="D"
                   d="M63 0l365 1877h349q284 0 423.5 -156.5t139.5 -419.5q0 -149 -43 -362q-40 -201 -94 -352t-147 -271q-244 -316 -643 -316h-350zM253 160h191q295 0 477 216q77 91 128 227.5t90 335.5q41 213 41 344q0 199 -102.5 316.5t-330.5 117.5h-191z"/>
            <glyph unicode="E"
                   d="M69 0l366 1877h1024l-32 -160h-854l-134 -693h682l-30 -160h-683l-137 -704h853l-31 -160h-1024z"/>
            <glyph unicode="F" d="M69 0l366 1877h1024l-32 -160h-854l-136 -704h683l-32 -160h-683l-165 -853h-171z"/>
            <glyph unicode="G"
                   d="M96 547q0 145 49 392q55 287 130 453q104 233 288 370t432 137q193 0 396 -30l-32 -160q-212 29 -396 30q-355 0 -530 -384q-64 -143 -117 -416q-45 -237 -45 -363q0 -437 341 -437q156 0 344 32l135 693h-342l31 160h512l-189 -979q-291 -66 -522 -66q-245 0 -365 153 t-120 415z"/>
            <glyph unicode="H"
                   d="M69 0l366 1877h170l-168 -864h683l168 864h171l-366 -1877h-170l165 853h-683l-165 -853h-171z"/>
            <glyph unicode="I"
                   d="M155 0l30 160h342l302 1557h-341l32 160h853l-32 -160h-341l-303 -1557h342l-31 -160h-853z"/>
            <glyph unicode="J"
                   d="M49 191l123 128q71 -75 173.5 -125t219.5 -50q193 0 327 136q49 51 82.5 118t45 112.5t25.5 121.5l211 1085h-683l32 160h854l-243 -1245q-12 -64 -22 -104t-32.5 -105.5t-60.5 -124.5t-90 -113q-89 -91 -213.5 -146t-264.5 -55q-148 0 -271 58t-213 149z"/>
            <glyph unicode="K"
                   d="M-16 0l365 1877h171l-179 -918l944 918h186l-806 -793l564 -1084h-209l-492 961l-229 -217l-144 -744h-171z"/>
            <glyph unicode="L" d="M155 0l365 1877h171l-335 -1717h853l-30 -160h-1024z"/>
            <glyph unicode="M"
                   d="M-16 0l365 1877h171l257 -837h15l581 837h171l-365 -1877h-171l299 1533h-14l-473 -680h-147l-206 680h-14l-298 -1533h-171z"/>
            <glyph unicode="N"
                   d="M69 0l366 1877h169l377 -1504h14l293 1504h171l-366 -1877h-170l-378 1504h-13l-292 -1504h-171z"/>
            <glyph unicode="O"
                   d="M91 523q0 137 54 416q63 320 128 465q95 216 270.5 355.5t407.5 139.5q165 0 277 -75.5t160.5 -195t48.5 -273.5q0 -137 -54 -416q-63 -320 -128 -466q-95 -216 -270.5 -355t-407.5 -139q-165 0 -277 75t-160.5 194.5t-48.5 274.5zM265 540q0 -84 19 -154t58 -126.5 t107 -88.5t159 -32q168 0 291.5 104t195.5 266q60 141 117 430q51 258 51 398q0 84 -19.5 154t-59 127t-107.5 89t-158 32q-168 0 -291.5 -104t-195.5 -267q-57 -135 -116 -429q-51 -259 -51 -399z"/>
            <glyph unicode="P"
                   d="M69 0l366 1877h369q65 0 106.5 -2.5t110 -14t127.5 -42.5t105 -81q123 -132 123 -328q0 -179 -85.5 -329.5t-213.5 -246.5q-65 -49 -135.5 -80.5t-144 -42.5t-116 -14t-108.5 -3h-198l-135 -693h-171zM405 853h199q76 0 122.5 3.5t123.5 26t137 68.5q92 68 154 182.5 t62 249.5q0 151 -87 237q-43 45 -110 68t-112.5 26t-121.5 3h-199z"/>
            <glyph unicode="Q"
                   d="M91 523q0 137 54 416q61 313 128 465q95 216 270.5 355.5t407.5 139.5q124 0 219 -43t152.5 -118t86 -172t28.5 -211q0 -137 -54 -416q-61 -313 -128 -466q-83 -185 -225.5 -317t-329.5 -167q35 -192 235 -192q77 0 206 12l-30 -160q-135 -12 -216 -12q-171 0 -264.5 96 t-107.5 248q-216 19 -324 167.5t-108 374.5zM265 547q0 -156 65 -265t199 -137q8 64 67 367h171q-56 -281 -66 -364q132 27 231.5 125t162.5 236q27 60 50 139t35 134t32 157q51 265 51 392q0 85 -19 156.5t-58 128.5t-107 90t-160 33q-169 0 -293.5 -104t-193.5 -267 q-57 -135 -116 -429q-51 -267 -51 -392z"/>
            <glyph unicode="R"
                   d="M69 0l366 1877h369q65 0 106.5 -2.5t110 -14t127.5 -42.5t105 -81q123 -132 123 -328q0 -212 -121.5 -389t-294.5 -257l188 -763h-181l-179 708q-83 -15 -215 -15h-198l-135 -693h-171zM405 853h199q75 0 122 3.5t124 27t137 67.5q92 68 154 182.5t62 249.5 q0 151 -87 237q-43 45 -110 68t-112.5 26t-121.5 3h-199z"/>
            <glyph unicode="S"
                   d="M151 21l32 164q282 -46 476 -46h8q219 0 354 134t135 318q0 91 -42 156.5t-113 95.5q-57 25 -211 45.5t-242 72.5q-81 48 -127 133.5t-46 194.5q0 108 44 215.5t122 195.5t201 143.5t267 55.5q179 0 487 -34l-32 -161q-317 35 -487 35q-100 0 -184 -37.5t-136 -98 t-80.5 -134.5t-28.5 -150q0 -151 115 -219q63 -36 213.5 -59.5t216.5 -51.5q107 -45 171.5 -141t64.5 -228q0 -123 -51 -239t-140.5 -205t-221 -143t-280.5 -54q-217 0 -485 42z"/>
            <glyph unicode="T" d="M317 1717l32 160h1195l-32 -160h-512l-333 -1717h-171l333 1717h-512z"/>
            <glyph unicode="U"
                   d="M161 373q0 92 34 270l240 1234h170l-240 -1234q-32 -173 -32 -236q0 -124 70 -196t205 -72q133 0 230.5 70t145.5 191q31 79 64 243l240 1234h171l-240 -1234q-35 -173 -76 -279q-69 -172 -221 -278.5t-345 -106.5q-196 0 -306 108.5t-110 285.5z"/>
            <glyph unicode="V"
                   d="M316 1617q0 87 3 260h173q-4 -152 -4 -302q0 -805 128 -1366h13q225 365 409.5 773.5t362.5 894.5h174q-200 -543 -419 -1003.5t-497 -873.5h-155q-188 652 -188 1617z"/>
            <glyph unicode="W"
                   d="M157 0q0 949 180 1877h171q-187 -959 -200 -1597h13l410 915h165l55 -915h13q233 628 421 1597h171q-183 -941 -551 -1877h-165l-61 981h-14l-442 -981h-166z"/>
            <glyph unicode="X"
                   d="M-68 0l721 948l3 13l-316 916h196l252 -778h13l556 778h196l-673 -916l-3 -13l354 -948h-198l-288 811h-13l-603 -811h-197z"/>
            <glyph unicode="Y"
                   d="M312 1877h181q124 -543 267 -889h27q328 348 613 889h181q-168 -317 -346 -575t-408 -481l-160 -821h-171l160 821q-185 391 -344 1056z"/>
            <glyph unicode="Z"
                   d="M-16 0l24 123l1255 1581l2 13h-921l32 160h1141l-24 -120l-1256 -1584l-2 -13h974l-30 -160h-1195z"/>
            <glyph unicode="[" d="M292 -171l432 2219h683l-32 -160h-512l-370 -1899h512l-30 -160h-683z"/>
            <glyph unicode="\" d="M372 2013l164 71l621 -2220l-165 -71z"/>
            <glyph unicode="]" d="M121 -171l31 160h512l369 1899h-512l32 160h683l-432 -2219h-683z"/>
            <glyph unicode="^"
                   d="M313 1195q191 409 527 682h213q228 -273 260 -682h-180q-33 327 -181 537h-67q-233 -213 -392 -537h-180z"/>
            <glyph unicode="_" d="M-15 -160l31 160h1195l-31 -160h-1195z"/>
            <glyph unicode="`" d="M657 1877h184l122 -512h-184z"/>
            <glyph unicode="a"
                   d="M180 304q0 109 50 220.5t138 186.5q51 41 104 67.5t107 36.5t85 12t76 2h259l32 163q14 78 14 105q0 67 -42 98.5t-140 31.5q-160 0 -390 -28l31 162q225 26 389 26q168 0 246 -71q80 -75 80 -185q0 -40 -16 -132l-195 -999h-171l32 164h-13q-171 -185 -369 -185 q-136 0 -221.5 90t-85.5 235zM355 339q0 -89 50.5 -144.5t143.5 -55.5q64 0 118 18.5t92 47t70 73.5t51.5 84t37 94t25.5 89.5t17 82.5l11 55h-262q-49 0 -77 -3t-73.5 -19.5t-82.5 -49.5q-53 -48 -87 -121.5t-34 -150.5z"/>
            <glyph unicode="b"
                   d="M155 0l365 1877h171l-132 -678h13q158 188 327 188q149 0 237.5 -105t88.5 -286q0 -97 -41 -313q-19 -93 -30 -144t-33 -119.5t-50 -124.5q-76 -149 -195 -232.5t-251 -83.5q-171 0 -254 188h-14l-32 -167h-170zM423 409q0 -117 51 -193.5t155 -76.5q89 0 163.5 58 t119.5 144q55 104 101 342q35 179 35 273q0 117 -51 194t-156 77q-89 0 -163 -58t-119 -145q-53 -100 -100 -341q-36 -185 -36 -274z"/>
            <glyph unicode="c"
                   d="M205 383q0 95 40 300q20 101 34 158.5t41.5 132.5t64.5 134q175 279 506 279q135 0 356 -23l-31 -160q-224 23 -356 23q-115 0 -191.5 -43.5t-135.5 -131.5q-31 -45 -54.5 -114.5t-33.5 -115t-29 -139.5q-37 -189 -37 -272q0 -272 269 -272q155 0 393 34l-30 -160 q-229 -34 -385 -34h-9q-204 0 -308 108.5t-104 295.5z"/>
            <glyph unicode="d"
                   d="M203 369q0 89 42 314q20 99 30 145.5t32 116.5t50 126q76 149 195 232.5t251 83.5q89 0 157.5 -46t96.5 -142h14l132 678h170l-365 -1877h-171l32 167h-13q-65 -96 -151 -142t-176 -46q-149 0 -237.5 105t-88.5 285zM380 409q0 -119 50 -194.5t157 -75.5q89 0 163 58 t119 144q55 104 102 342q34 174 34 268v5q0 119 -49.5 195t-156.5 76q-89 0 -163.5 -58t-119.5 -145q-53 -100 -100 -341q-36 -185 -36 -274z"/>
            <glyph unicode="e"
                   d="M204 373q0 89 41 310q20 105 33.5 164.5t40 136.5t60.5 135q68 119 192 193.5t280 74.5q176 0 276.5 -97.5t100.5 -274.5q0 -107 -44 -332h-768q-39 -205 -39 -282q0 -262 256 -262h2q156 0 405 28l-31 -160q-247 -28 -405 -28q-195 0 -297.5 106t-102.5 288zM449 843 h592q15 97 15 150q0 113 -59.5 173.5t-176.5 60.5q-96 0 -172 -43t-120 -119q-40 -63 -79 -222z"/>
            <glyph unicode="f"
                   d="M185 1035l31 160h341l60 310q9 51 18 82.5t36.5 86.5t67.5 98q56 60 140.5 93.5t183.5 33.5q125 0 310 -22l-32 -160q-185 21 -310 22q-113 0 -171 -60q-47 -49 -72 -174l-60 -310h512l-31 -160h-512l-201 -1035h-171l202 1035h-342z"/>
            <glyph unicode="g"
                   d="M148 -343l31 160q177 -20 312 -20q169 0 276 131q35 43 61.5 107.5t32.5 91t19 86.5l23 124h-14q-158 -188 -326 -188q-160 0 -244 105t-84 277q0 149 40.5 311t99.5 266q67 119 177.5 199t250.5 80q168 0 254 -188h14l32 166h170l-222 -1152q-13 -64 -23.5 -104 t-45 -118.5t-83.5 -141.5q-168 -212 -440 -212q-156 0 -311 20zM409 569q0 -119 52 -189.5t159 -70.5q109 0 186.5 71.5t121.5 179.5q32 79 56.5 198.5t24.5 208.5q0 119 -52 189.5t-158 70.5q-183 0 -286 -200q-43 -84 -73.5 -214t-30.5 -244z"/>
            <glyph unicode="h"
                   d="M155 0l365 1877h171l-130 -661h14q65 77 146.5 124t155.5 47q148 0 237 -87.5t89 -231.5q0 -64 -24 -192l-171 -876h-171l171 876q21 110 21 159q0 91 -56.5 141.5t-152.5 50.5q-125 0 -212 -83q-35 -33 -57.5 -78.5t-31 -81t-23.5 -108.5l-171 -876h-170z"/>
            <glyph unicode="i"
                   d="M475 1205l30 160h512l-265 -1365h-171l235 1205h-341zM811 1716q0 80 54.5 131.5t127.5 51.5q56 0 90 -32t34 -84q0 -80 -54.5 -131.5t-127.5 -51.5q-56 0 -90 32t-34 84z"/>
            <glyph unicode="j"
                   d="M-24 -343l31 160q177 -20 310 -20q171 0 278 131q76 93 113 285l193 992h-341l31 160h512l-224 -1152q-13 -64 -23.5 -104t-45 -118.5t-83.5 -141.5q-168 -212 -440 -212q-156 0 -311 20zM896 1716q0 80 54.5 131.5t128.5 51.5q56 0 90 -32t34 -84q0 -80 -55 -131.5 t-128 -51.5q-56 0 -90 32t-34 84z"/>
            <glyph unicode="k"
                   d="M155 0l365 1877h171l-210 -1074l656 562h215l-583 -505l380 -860h-208l-304 747l-198 -167l-114 -580h-170z"/>
            <glyph unicode="l"
                   d="M552 241q0 41 16 131l293 1505h171l-293 -1505q-14 -69 -14 -101q0 -132 139 -132q89 0 172 6l-31 -160q-111 -6 -169 -6h-16q-129 0 -198.5 73t-69.5 189z"/>
            <glyph unicode="m"
                   d="M-16 0l265 1365h171l-20 -100h13q105 121 222 122q80 0 136 -41t80 -107q141 148 296 148q111 0 176.5 -70t65.5 -181q0 -59 -21 -163l-189 -973h-171l189 973q17 92 18 127q0 60 -37.5 93.5t-101.5 33.5q-83 0 -141 -55q-23 -21 -39 -54.5t-22.5 -60t-17.5 -84.5 l-189 -973h-171l189 973q18 92 18 127q0 60 -37.5 93.5t-101.5 33.5q-83 0 -141 -55q-23 -21 -39 -54.5t-22.5 -60t-17.5 -84.5l-189 -973h-171z"/>
            <glyph unicode="n"
                   d="M155 0l265 1365h171l-30 -149h14q65 77 146.5 124t155.5 47q148 0 237 -87.5t89 -231.5q0 -64 -24 -192l-171 -876h-171l171 876q21 110 21 159q0 91 -56.5 141.5t-152.5 50.5q-125 0 -212 -83q-35 -33 -57.5 -78.5t-31 -81t-23.5 -108.5l-171 -876h-170z"/>
            <glyph unicode="o"
                   d="M205 371q0 107 40 312q33 172 73.5 288.5t108.5 201.5q175 213 424 214q172 0 271 -105.5t99 -286.5q0 -121 -37 -312q-33 -171 -74 -288.5t-109 -202.5q-175 -213 -424 -213q-173 0 -272.5 104.5t-99.5 287.5zM377 400q0 -124 57 -192.5t174 -68.5q159 0 260 130 q55 69 85.5 167.5t59.5 246.5q36 190 36 282q0 124 -56 193t-173 69q-159 0 -260 -131q-39 -49 -67.5 -123t-42.5 -132t-34 -158q-39 -204 -39 -283z"/>
            <glyph unicode="p"
                   d="M55 -512l365 1877h171l-32 -166h13q158 188 327 188q149 0 237.5 -105.5t88.5 -285.5q0 -97 -41 -313q-19 -93 -30 -144t-33 -119.5t-50 -124.5q-76 -149 -195 -232.5t-251 -83.5q-171 0 -254 188h-14l-132 -679h-170zM423 409q0 -119 50 -194.5t156 -75.5q89 0 163.5 58 t119.5 144q55 104 101 342q35 179 35 273q0 119 -50 195t-157 76q-89 0 -163 -58t-119 -145q-53 -100 -100 -341q-36 -186 -36 -274z"/>
            <glyph unicode="q"
                   d="M203 369q0 89 42 314q20 99 30 145.5t32 116.5t50 126q76 149 195 232.5t251 83.5q171 0 254 -188h14l32 166h170l-365 -1877h-171l132 679h-13q-158 -188 -327 -188q-149 0 -237.5 105t-88.5 285zM380 409q0 -119 50 -194.5t157 -75.5q89 0 163 58t119 144 q55 104 102 342q34 174 34 268v5q0 119 -50 195t-156 76q-89 0 -163.5 -58t-119.5 -145q-53 -100 -100 -341q-36 -186 -36 -274z"/>
            <glyph unicode="r"
                   d="M155 0l265 1365h171l-42 -212h14q105 113 217 173.5t257 60.5q99 0 238 -18l-32 -160q-139 18 -236 18q-181 0 -306 -98q-65 -51 -111.5 -112.5t-74 -135.5t-40 -122t-27.5 -126l-123 -633h-170z"/>
            <glyph unicode="s"
                   d="M156 8l31 160q247 -29 409 -29q104 0 179.5 26.5t113.5 70t54.5 86.5t16.5 89q0 153 -103 213q-55 32 -179.5 48t-188.5 48q-76 32 -119 114t-43 201q0 148 134 250t384 102q145 0 414 -28l-31 -160q-271 28 -413 28q-168 0 -243 -57t-75 -135q0 -129 86 -166 q51 -25 180.5 -43t204.5 -61q163 -95 163 -354q0 -83 -36 -159.5t-103.5 -138t-178.5 -98t-248 -36.5q-151 0 -409 29z"/>
            <glyph unicode="t"
                   d="M217 1197l32 168h342l66 342h171l-67 -342h512l-32 -168h-512l-137 -704q-23 -118 -23 -165q0 -95 59 -142t164 -47q95 0 247 20l-31 -160q-148 -20 -260 -20q-161 0 -257 83t-96 231q0 67 24 187l140 717h-342z"/>
            <glyph unicode="u"
                   d="M225 297q0 64 24 192l171 876h171l-171 -876q-21 -109 -21 -158q0 -91 56.5 -141.5t152.5 -50.5q125 0 212 82q35 33 57.5 78.5t31 81t23.5 108.5l171 876h170l-265 -1365h-171l30 149h-14q-65 -77 -146.5 -123.5t-155.5 -46.5q-148 0 -237 87t-89 231z"/>
            <glyph unicode="v"
                   d="M351 1365h174q0 -704 94 -1141h13q267 443 536 1141h175q-324 -839 -684 -1365h-155q-88 300 -120.5 631.5t-32.5 733.5z"/>
            <glyph unicode="w"
                   d="M135 453q0 457 89 912h171q-100 -519 -100 -949q0 -117 8 -229h13l381 836h166l56 -836h13q239 527 367 1178h170q-133 -687 -464 -1365h-205l-60 783h-13l-364 -783h-206q-22 223 -22 435v18z"/>
            <glyph unicode="x"
                   d="M25 0l598 721l2 14l-305 630h223l198 -506h14l396 506h222l-550 -630l-3 -14l317 -721h-224l-209 597h-13l-442 -597h-224z"/>
            <glyph unicode="y"
                   d="M84 -363l31 160q168 0 272 55q33 17 57.5 38.5t53.5 65t47 75.5t59 112q9 19 15 28h-70q-117 447 -198 1194h174q64 -644 158 -1045h13q265 528 473 1045h175q-245 -599 -608 -1292q-117 -227 -245 -330q-133 -105 -407 -106z"/>
            <glyph unicode="z"
                   d="M155 0l24 123l841 1069l3 13h-607l31 160h800l-23 -120l-843 -1072l-2 -13h660l-31 -160h-853z"/>
            <glyph unicode="{"
                   d="M321 857l31 160q107 0 205.5 37t145.5 106q27 37 49 160l56 284q16 81 30.5 128.5t46.5 96.5q75 113 219.5 175.5t304.5 62.5l-30 -160q-107 0 -205.5 -37t-145.5 -106q-27 -37 -49 -160l-56 -284q-11 -57 -17.5 -85t-21.5 -67t-37 -73q-63 -96 -208 -151l-3 -13 q77 -35 118 -87.5t41 -139.5q0 -41 -20 -149l-56 -284q-17 -87 -18 -122q0 -63 49 -105.5t113.5 -59t137.5 -16.5l-30 -160q-116 0 -213.5 31.5t-163.5 104t-66 177.5q0 41 20 150l56 284q17 86 17 121q0 61 -47 104t-112.5 60t-140.5 17z"/>
            <glyph unicode="|" d="M463 -171l432 2219h169l-431 -2219h-170z"/>
            <glyph unicode="}"
                   d="M117 -192l31 160q107 0 205.5 36.5t145.5 106.5q27 37 49 160l56 284q16 81 30.5 128.5t46.5 96.5q63 96 208 151l3 13q-77 35 -118.5 87.5t-41.5 139.5q0 41 20 149l56 284q17 87 17 121q0 89 -90 135.5t-210 46.5l31 160q117 0 215 -33t163 -105.5t65 -175.5 q0 -41 -20 -149l-56 -284q-18 -86 -18 -121q0 -89 90 -135.5t210 -46.5l-30 -160q-107 0 -205.5 -36.5t-145.5 -105.5q-27 -37 -49 -160l-56 -284q-11 -57 -17.5 -85.5t-21.5 -67t-37 -73.5q-75 -113 -220.5 -175t-305.5 -62z"/>
            <glyph unicode="~"
                   d="M121 683q24 121 53 205.5t77.5 160t123 113.5t176.5 38q71 0 126 -26.5t87 -67.5t62 -87.5t52.5 -87t58 -67.5t79.5 -27t77.5 17t55.5 42t40 75t28.5 97t26.5 127h171q-24 -121 -53 -206t-77.5 -160.5t-123 -113.5t-176.5 -38q-71 0 -126 27t-87 67.5t-62 87t-52.5 87.5 t-58 67.5t-79.5 26.5t-77.5 -16.5t-55.5 -42t-40 -75.5t-28.5 -96.5t-26.5 -126.5h-171z"/>
            <glyph unicode="&#xa0;"/>
            <glyph unicode="&#xa1;"
                   d="M416 -341l245 1194h171l-219 -1194h-197zM651 1323q0 91 64.5 162.5t168.5 71.5q73 0 116.5 -40.5t43.5 -108.5q0 -91 -65.5 -163t-169.5 -72q-73 0 -115.5 41t-42.5 109z"/>
            <glyph unicode="&#xa2;"
                   d="M205 383q0 95 40 300q28 145 56 239t78 177q63 105 161.5 179.5t222.5 96.5l65 332h171l-63 -320q132 -3 311 -24l-31 -160q-188 24 -375 24q-196 0 -314 -186q-28 -45 -51 -111.5t-33 -110.5t-27 -136q-37 -189 -37 -272q0 -131 64.5 -201.5t191.5 -70.5q179 0 406 34 l-30 -161q-193 -28 -348 -33l-63 -320h-171l66 332q-143 29 -216.5 131t-73.5 261z"/>
            <glyph unicode="&#xa3;"
                   d="M-16 0l31 160h170l138 704h-171l31 160h170l34 171q20 101 33 158.5t40.5 132.5t62.5 134q75 124 199.5 201.5t284.5 77.5q127 0 326 -20l-30 -160q-203 20 -328 20q-193 0 -303 -175q-28 -45 -51.5 -113t-34.5 -117t-29 -139l-33 -171h512l-31 -160h-512l-137 -704h683 l-31 -160h-1024z"/>
            <glyph unicode="&#xa4;"
                   d="M79 320l230 192q-36 72 -36 161q0 197 135 351l-156 192l147 109l149 -186q127 72 268 72q144 0 241 -72l222 186l104 -109l-231 -192q36 -72 36 -161q0 -197 -135 -351l156 -192l-146 -109l-150 186q-127 -72 -269.5 -72t-239.5 72l-221 -186zM447 699q0 -100 61 -157 t168 -57q157 0 248 108t91 244q0 100 -61.5 157t-168 57t-186 -55t-116 -133.5t-36.5 -163.5z"/>
            <glyph unicode="&#xa5;"
                   d="M255 512l30 160h342l32 168l-18 24h-318l30 160h187q-195 352 -211 853h167q15 -279 75 -498t182 -392h40q189 173 335.5 393t268.5 497h167q-207 -495 -544 -853h187l-31 -160h-319l-28 -24l-32 -168h342l-31 -160h-341l-100 -512h-171l100 512h-341z"/>
            <glyph unicode="&#xa6;" d="M463 -171l133 683h171l-134 -683h-170zM761 1365l134 683h169l-132 -683h-171z"/>
            <glyph unicode="&#xa7;"
                   d="M95 -311l32 164q229 -56 390 -56q96 0 171 31t116 80t62 104t21 109q0 121 -95 176q-44 24 -116 31.5t-148 16.5t-129 40q-76 44 -118 119.5t-42 170.5q0 139 81 258.5t221 190.5q-140 100 -140 268q0 84 37.5 171.5t106 162.5t180.5 122.5t248 47.5q141 0 343 -37 l-32 -164q-197 41 -341 41q-96 0 -170 -31.5t-116 -81.5t-63 -104t-21 -108q0 -96 76 -163q41 -35 115.5 -43.5t158.5 -17t141 -42.5q72 -43 114.5 -117.5t42.5 -170.5q0 -141 -81 -260.5t-221 -188.5q140 -100 140 -268q0 -129 -71.5 -244t-204 -187t-296.5 -72 q-152 0 -392 52zM412 700q0 -107 78 -158t198 -51q72 0 132.5 20.5t102 55t70 80t42 93t13.5 95.5q0 104 -74.5 154.5t-204.5 50.5q-87 0 -157.5 -31.5t-112.5 -81.5t-64.5 -108.5t-22.5 -118.5z"/>
            <glyph unicode="&#xa8;"
                   d="M453 1631q0 68 49.5 125t132.5 57q56 0 90 -32t34 -84q0 -68 -49.5 -125t-132.5 -57q-56 0 -90 32t-34 84zM1051 1631q0 68 49 125t132 57q56 0 90 -32t34 -84q0 -68 -49.5 -125t-131.5 -57q-56 0 -90 32t-34 84z"/>
            <glyph unicode="&#xa9;"
                   d="M115 668q0 147 45 342t123 331q97 173 261.5 279.5t372.5 106.5q244 0 370 -141.5t126 -376.5q0 -147 -45 -342t-123 -331q-97 -173 -261.5 -279t-372.5 -106q-243 0 -369.5 140t-126.5 377zM235 689q0 -200 98 -314.5t299 -114.5q169 0 298.5 84.5t209.5 226.5 q68 123 110.5 300t42.5 317q0 199 -98 314t-299 115q-169 0 -300 -84.5t-209 -225.5q-68 -121 -110 -299.5t-42 -318.5zM436 720q0 68 31 224q40 197 82 272q93 163 300 163q108 0 222 -39l-34 -173q-108 51 -221 52q-45 0 -71 -13t-46 -45q-25 -40 -62 -217 q-29 -149 -29 -198.5t23.5 -68t76.5 -18.5q108 0 239 42l-32 -168q-139 -35 -238 -34q-241 0 -241 221z"/>
            <glyph unicode="&#xaa;"
                   d="M347 1272q0 141 82 250.5t198 149.5q68 24 168 24h154q16 77 16 108q0 56 -36.5 80.5t-117.5 24.5q-45 0 -302 -17l31 161q240 16 303 16q147 0 221.5 -62.5t74.5 -179.5q0 -43 -14 -107l-136 -696h-170l17 89h-13q-60 -56 -115 -83t-124 -27q-107 0 -172 76.5t-65 192.5 zM520 1303q0 -61 33.5 -100.5t91.5 -39.5q63 0 109.5 25t76 73t46.5 97.5t30 116.5l12 61h-155q-72 0 -104 -12q-59 -20 -99.5 -81.5t-40.5 -139.5z"/>
            <glyph unicode="&#xab;"
                   d="M124 723l19 90l538 572l122 -90l-502 -520l-2 -14l298 -520l-156 -90zM636 723l19 90l538 572l122 -90l-502 -520l-2 -14l298 -520l-156 -90z"/>
            <glyph unicode="&#xac;" d="M151 859l32 160h1194l-98 -507h-171l67 347h-1024z"/>
            <glyph unicode="&#xad;" d="M155 688l32 160h1194l-32 -160h-1194z"/>
            <glyph unicode="&#xae;"
                   d="M115 668q0 147 45 342t123 331q97 173 261.5 279.5t372.5 106.5q244 0 370 -141.5t126 -376.5q0 -147 -45 -342t-123 -331q-97 -173 -261.5 -279t-372.5 -106q-243 0 -369.5 140t-126.5 377zM235 689q0 -200 98 -314.5t299 -114.5q169 0 298.5 84.5t209.5 226.5 q68 123 110.5 300t42.5 317q0 199 -98 314t-299 115q-169 0 -300 -84.5t-209 -225.5q-68 -121 -110 -299.5t-42 -318.5zM425 512l166 853h281q101 0 155 -50t54 -139q0 -93 -40.5 -167t-104.5 -114l56 -383h-180l-36 341h-115l-65 -341h-171zM693 1013h111q105 0 105 139 q0 28 -15 40.5t-53 12.5h-110z"/>
            <glyph unicode="&#xaf;" d="M488 1712l31 160h853l-31 -160h-853z"/>
            <glyph unicode="&#xb0;"
                   d="M627 1664q0 155 110.5 261.5t258.5 106.5q116 0 183.5 -66.5t67.5 -173.5q0 -155 -110 -261.5t-258 -106.5q-116 0 -184 66.5t-68 173.5zM772 1683q0 -60 35.5 -93t96.5 -33q81 0 139 59t58 157q0 60 -34.5 93t-95.5 33q-81 0 -140 -59.5t-59 -156.5z"/>
            <glyph unicode="&#xb1;"
                   d="M27 347l30 160h1195l-31 -160h-1194zM159 1029l30 160h512l68 347h171l-68 -347h512l-31 -160h-512l-66 -346h-171l67 346h-512z"/>
            <glyph unicode="&#xb2;"
                   d="M345 1024l16 80q52 265 402 417q53 23 89.5 43t82 53.5t69.5 76.5t24 95q0 49 -39.5 84.5t-139.5 35.5q-143 0 -330 -36l30 160q183 36 332 36q159 0 239.5 -70.5t80.5 -181.5q0 -263 -369 -432q-63 -29 -85.5 -39.5t-68 -36.5t-70.5 -52t-44 -60l-3 -13h507l-32 -160 h-691z"/>
            <glyph unicode="&#xb3;"
                   d="M353 1023l31 160q205 -20 320 -20q121 0 178.5 51t57.5 123q0 44 -30 73.5t-77 38.5q-33 7 -121 7h-104l32 160h104q77 0 119 8q65 13 109 57t44 114q0 115 -171 114q-91 0 -310 -22l30 160q181 23 312 22q147 0 229.5 -65t82.5 -179q0 -185 -177 -278l-1 -14 q103 -60 102 -173q0 -147 -126 -252t-315 -105q-139 0 -319 20z"/>
            <glyph unicode="&#xb4;" d="M771 1365l321 512h184l-321 -512h-184z"/>
            <glyph unicode="&#xb5;"
                   d="M55 -512l365 1877h171l-171 -876q-21 -109 -21 -158q0 -91 56.5 -141.5t152.5 -50.5q125 0 212 82q35 33 57.5 78.5t31 81t23.5 108.5l171 876h170l-265 -1365h-171l30 149h-14q-60 -77 -134 -123.5t-142 -46.5t-124 46.5t-85 123.5h-13l-130 -661h-170z"/>
            <glyph unicode="&#xb6;"
                   d="M388 1252q0 228 142.5 395.5t336.5 212.5q77 17 249 17h257l-365 -1877h-171l334 1717h-171l-333 -1717h-171l169 873q-128 35 -202.5 134.5t-74.5 244.5z"/>
            <glyph unicode="&#xb7;"
                   d="M483 896q0 92 65 163.5t168 71.5q73 0 116.5 -41t43.5 -109q0 -91 -65.5 -162.5t-169.5 -71.5q-73 0 -115.5 40.5t-42.5 108.5z"/>
            <glyph unicode="&#xb8;"
                   d="M92 -511l31 164q112 -27 166 -26q88 0 144 60q21 23 36.5 54t21.5 53.5t14 65.5l27 140h171l-27 -140q-11 -56 -19.5 -86.5t-34.5 -84t-67 -96.5q-117 -127 -298 -126q-63 0 -165 22z"/>
            <glyph unicode="&#xb9;" d="M477 1661l35 179l409 208h143l-199 -1024h-170l158 813h-13z"/>
            <glyph unicode="&#xba;"
                   d="M373 1321q0 81 26 215q8 44 15 74.5t26 90.5t40 104t59 97t82 87t109 57t141 23q289 0 289 -318q0 -81 -25 -215q-8 -44 -15.5 -74.5t-26 -90.5t-40 -104t-59.5 -97t-82 -87t-108.5 -57t-140.5 -23q-289 0 -290 318zM545 1344q0 -181 148 -181q53 0 96 24t69.5 57 t48.5 88.5t33.5 99t23.5 104.5q24 125 24 192q0 181 -149 181q-53 0 -96 -24t-69.5 -57t-48.5 -88.5t-33 -98t-23 -105.5q-24 -125 -24 -192z"/>
            <glyph unicode="&#xbb;"
                   d="M147 241l501 520l3 14l-299 520l156 90l317 -572l-18 -90l-539 -572zM659 241l501 520l3 14l-299 520l156 90l317 -572l-18 -90l-539 -572z"/>
            <glyph unicode="&#xbc;"
                   d="M307 1661l34 179l410 208h144l-200 -1024h-171l159 813h-14zM529 171l19 96l217 586h162l-192 -522h337l101 522h171l-199 -1024h-170l66 342h-512z"/>
            <glyph unicode="&#xbd;"
                   d="M307 1661l34 179l410 208h144l-200 -1024h-171l159 813h-14zM456 -171l16 80q52 265 401 418q53 23 90 42.5t81.5 53t68.5 77t24 95.5q0 120 -177 120q-143 0 -331 -36l31 160q183 36 331 36q159 0 239.5 -71t80.5 -181q0 -263 -368 -432q-144 -67 -194 -103 q-51 -39 -76 -85l-2 -14h506l-30 -160h-691z"/>
            <glyph unicode="&#xbe;"
                   d="M180 1023l31 160q205 -20 320 -20q121 0 178.5 51t57.5 123q0 44 -30 73.5t-77 38.5q-33 7 -121 7h-104l32 160h104q77 0 118 8q65 13 109.5 57t44.5 114q0 115 -171 114q-91 0 -311 -22l31 160q181 23 312 22q147 0 229.5 -65t82.5 -179q0 -185 -177 -278l-2 -14 q103 -60 103 -173q0 -147 -126 -252t-315 -105q-139 0 -319 20zM529 171l19 96l217 586h162l-192 -522h337l101 522h171l-199 -1024h-170l66 342h-512z"/>
            <glyph unicode="&#xbf;"
                   d="M143 -27q0 103 29 192.5t90 169.5t116 134.5t146 131.5q49 43 80 91.5t39.5 78.5t17.5 82h171q-20 -105 -63.5 -191t-137.5 -167q-67 -57 -99.5 -86.5t-82 -83.5t-73 -96t-42 -102t-18.5 -124q0 -205 281 -206q125 0 352 50l-32 -160q-221 -49 -350 -50q-208 0 -316 88 t-108 248zM651 1323q0 91 64.5 162.5t168.5 71.5q73 0 116.5 -40.5t43.5 -108.5q0 -92 -64 -163.5t-171 -71.5q-73 0 -115.5 41t-42.5 109z"/>
            <glyph unicode="&#xc0;"
                   d="M-49 0q160 535 378.5 999.5t530.5 877.5h173q205 -565 206 -1300q0 -277 -27 -577h-180q27 241 27 517h-755q-13 -39 -43 -121.5t-48 -133.5t-41.5 -124.5t-40.5 -137.5h-180zM364 677h699q-13 325 -44.5 572.5t-98.5 455.5h-13q-148 -208 -275 -454.5t-268 -573.5z M744 2389h184l155 -341h-184z"/>
            <glyph unicode="&#xc1;"
                   d="M-49 0q160 535 378.5 999.5t530.5 877.5h173q205 -565 206 -1300q0 -277 -27 -577h-180q27 241 27 517h-755q-13 -39 -43 -121.5t-48 -133.5t-41.5 -124.5t-40.5 -137.5h-180zM364 677h699q-13 325 -44.5 572.5t-98.5 455.5h-13q-148 -208 -275 -454.5t-268 -573.5z M848 2048l288 341h184l-288 -341h-184z"/>
            <glyph unicode="&#xc2;"
                   d="M-49 0q160 535 378.5 999.5t530.5 877.5h173q205 -565 206 -1300q0 -277 -27 -577h-180q27 241 27 517h-755q-13 -39 -43 -121.5t-48 -133.5t-41.5 -124.5t-40.5 -137.5h-180zM364 677h699q-13 325 -44.5 572.5t-98.5 455.5h-13q-148 -208 -275 -454.5t-268 -573.5z M464 2048l463 341h210l330 -341h-211l-248 218l-333 -218h-211z"/>
            <glyph unicode="&#xc3;"
                   d="M-49 0q160 535 378.5 999.5t530.5 877.5h173q205 -565 206 -1300q0 -277 -27 -577h-180q27 241 27 517h-755q-13 -39 -43 -121.5t-48 -133.5t-41.5 -124.5t-40.5 -137.5h-180zM364 677h699q-13 325 -44.5 572.5t-98.5 455.5h-13q-148 -208 -275 -454.5t-268 -573.5z M541 2081q29 128 113.5 215.5t205.5 87.5q53 0 96 -17.5t68 -43t46.5 -50.5t45.5 -42.5t52 -17.5q83 0 119 151l169 -8q-28 -127 -112.5 -215t-206.5 -88q-65 0 -115 26.5t-74 58.5t-55.5 59t-64.5 27q-81 0 -117 -151z"/>
            <glyph unicode="&#xc4;"
                   d="M-49 0q160 535 378.5 999.5t530.5 877.5h173q205 -565 206 -1300q0 -277 -27 -577h-180q27 241 27 517h-755q-13 -39 -43 -121.5t-48 -133.5t-41.5 -124.5t-40.5 -137.5h-180zM364 677h699q-13 325 -44.5 572.5t-98.5 455.5h-13q-148 -208 -275 -454.5t-268 -573.5z M555 2228q0 80 54.5 131t127.5 51q56 0 89.5 -32t33.5 -84q0 -80 -54 -131t-127 -51q-56 0 -90 32t-34 84zM1152 2228q0 80 54.5 131t128.5 51q56 0 89 -32t33 -84q0 -80 -54 -131t-127 -51q-56 0 -90 32t-34 84z"/>
            <glyph unicode="&#xc5;"
                   d="M-49 0q313 1043 833 1772q-123 64 -123 212q0 155 111 261.5t259 106.5q116 0 183 -66.5t67 -173.5q0 -112 -59 -200.5t-154 -132.5q171 -525 171 -1202q0 -277 -27 -577h-180q27 241 27 517h-755q-13 -39 -43 -121.5t-48 -133.5t-41.5 -124.5t-40.5 -137.5h-180z M364 677h699q-13 325 -44.5 572.5t-98.5 455.5h-13q-148 -208 -275 -454.5t-268 -573.5zM807 2003q0 -60 35.5 -93t96.5 -33q81 0 139 59t58 157q0 60 -34.5 93t-96.5 33q-81 0 -139.5 -59.5t-58.5 -156.5z"/>
            <glyph unicode="&#xc6;"
                   d="M-49 0q211 1005 757 1877h836l-32 -160h-341l-135 -698h341l-32 -160h-341l-136 -699h341l-30 -160h-512l100 517h-519q-76 -261 -117 -517h-180zM296 677h503l201 1040h-227q-255 -428 -477 -1040z"/>
            <glyph unicode="&#xc7;"
                   d="M96 547q0 145 49 392q55 287 130 453q107 235 298 371t467 136q219 0 460 -39l-31 -160q-251 39 -461 39q-403 0 -575 -384q-64 -143 -117 -416q-45 -238 -45 -363q0 -211 99 -324t327 -113q209 0 518 49l-31 -160q-191 -32 -349 -43l-26 -129q-11 -56 -19.5 -86.5 t-34.5 -84t-67 -96.5q-117 -127 -296 -126q-64 0 -167 22l32 164q112 -27 166 -26q89 0 145 60q21 23 36 54t20 52.5t15 66.5l24 123q-288 1 -427.5 151.5t-139.5 416.5z"/>
            <glyph unicode="&#xc8;"
                   d="M69 0l366 1877h1024l-32 -160h-854l-134 -693h682l-30 -160h-683l-137 -704h853l-31 -160h-1024zM744 2389h184l155 -341h-184z"/>
            <glyph unicode="&#xc9;"
                   d="M69 0l366 1877h1024l-32 -160h-854l-134 -693h682l-30 -160h-683l-137 -704h853l-31 -160h-1024zM848 2048l288 341h184l-288 -341h-184z"/>
            <glyph unicode="&#xca;"
                   d="M69 0l366 1877h1024l-32 -160h-854l-134 -693h682l-30 -160h-683l-137 -704h853l-31 -160h-1024zM464 2048l463 341h210l330 -341h-211l-248 218l-333 -218h-211z"/>
            <glyph unicode="&#xcb;"
                   d="M69 0l366 1877h1024l-32 -160h-854l-134 -693h682l-30 -160h-683l-137 -704h853l-31 -160h-1024zM555 2228q0 80 54.5 131t127.5 51q56 0 89.5 -32t33.5 -84q0 -80 -54 -131t-127 -51q-56 0 -90 32t-34 84zM1152 2228q0 80 54.5 131t128.5 51q56 0 89 -32t33 -84 q0 -80 -54 -131t-127 -51q-56 0 -90 32t-34 84z"/>
            <glyph unicode="&#xcc;"
                   d="M155 0l30 160h342l302 1557h-341l32 160h853l-32 -160h-341l-303 -1557h342l-31 -160h-853zM744 2389h184l155 -341h-184z"/>
            <glyph unicode="&#xcd;"
                   d="M155 0l30 160h342l302 1557h-341l32 160h853l-32 -160h-341l-303 -1557h342l-31 -160h-853zM848 2048l288 341h184l-288 -341h-184z"/>
            <glyph unicode="&#xce;"
                   d="M155 0l30 160h342l302 1557h-341l32 160h853l-32 -160h-341l-303 -1557h342l-31 -160h-853zM464 2048l463 341h210l330 -341h-211l-248 218l-333 -218h-211z"/>
            <glyph unicode="&#xcf;"
                   d="M155 0l30 160h342l302 1557h-341l32 160h853l-32 -160h-341l-303 -1557h342l-31 -160h-853zM555 2228q0 80 54.5 131t127.5 51q56 0 89.5 -32t33.5 -84q0 -80 -54 -131t-127 -51q-56 0 -90 32t-34 84zM1152 2228q0 80 54.5 131t128.5 51q56 0 89 -32t33 -84 q0 -80 -54 -131t-127 -51q-56 0 -90 32t-34 84z"/>
            <glyph unicode="&#xd0;"
                   d="M151 859l32 160h170l167 858h331q223 0 380 -121q195 -152 194 -475q0 -119 -42 -342q-48 -251 -118 -406q-49 -108 -123 -202t-170.5 -169t-222.5 -118.5t-264 -43.5h-330l166 859h-170zM356 160h160q280 0 475 211q85 99 133 232t88 336q39 200 39 324 q0 209 -105 331.5t-327 122.5h-160l-135 -698h341l-32 -160h-341z"/>
            <glyph unicode="&#xd1;"
                   d="M69 0l366 1877h169l377 -1504h14l293 1504h171l-366 -1877h-170l-378 1504h-13l-292 -1504h-171zM541 2081q29 128 113.5 215.5t205.5 87.5q53 0 96 -17.5t68 -43t46.5 -50.5t45.5 -42.5t52 -17.5q83 0 119 151l169 -8q-28 -127 -112.5 -215t-206.5 -88q-65 0 -115 26.5 t-74 58.5t-55.5 59t-64.5 27q-81 0 -117 -151z"/>
            <glyph unicode="&#xd2;"
                   d="M91 523q0 137 54 416q63 320 128 465q95 216 270.5 355.5t407.5 139.5q165 0 277 -75.5t160.5 -195t48.5 -273.5q0 -137 -54 -416q-63 -320 -128 -466q-95 -216 -270.5 -355t-407.5 -139q-165 0 -277 75t-160.5 194.5t-48.5 274.5zM265 540q0 -84 19 -154t58 -126.5 t107 -88.5t159 -32q168 0 291.5 104t195.5 266q60 141 117 430q51 258 51 398q0 84 -19.5 154t-59 127t-107.5 89t-158 32q-168 0 -291.5 -104t-195.5 -267q-57 -135 -116 -429q-51 -259 -51 -399zM744 2389h184l155 -341h-184z"/>
            <glyph unicode="&#xd3;"
                   d="M91 523q0 137 54 416q63 320 128 465q95 216 270.5 355.5t407.5 139.5q165 0 277 -75.5t160.5 -195t48.5 -273.5q0 -137 -54 -416q-63 -320 -128 -466q-95 -216 -270.5 -355t-407.5 -139q-165 0 -277 75t-160.5 194.5t-48.5 274.5zM265 540q0 -84 19 -154t58 -126.5 t107 -88.5t159 -32q168 0 291.5 104t195.5 266q60 141 117 430q51 258 51 398q0 84 -19.5 154t-59 127t-107.5 89t-158 32q-168 0 -291.5 -104t-195.5 -267q-57 -135 -116 -429q-51 -259 -51 -399zM848 2048l288 341h184l-288 -341h-184z"/>
            <glyph unicode="&#xd4;"
                   d="M91 523q0 137 54 416q63 320 128 465q95 216 270.5 355.5t407.5 139.5q165 0 277 -75.5t160.5 -195t48.5 -273.5q0 -137 -54 -416q-63 -320 -128 -466q-95 -216 -270.5 -355t-407.5 -139q-165 0 -277 75t-160.5 194.5t-48.5 274.5zM265 540q0 -84 19 -154t58 -126.5 t107 -88.5t159 -32q168 0 291.5 104t195.5 266q60 141 117 430q51 258 51 398q0 84 -19.5 154t-59 127t-107.5 89t-158 32q-168 0 -291.5 -104t-195.5 -267q-57 -135 -116 -429q-51 -259 -51 -399zM464 2048l463 341h210l330 -341h-211l-248 218l-333 -218h-211z"/>
            <glyph unicode="&#xd5;"
                   d="M91 523q0 137 54 416q63 320 128 465q95 216 270.5 355.5t407.5 139.5q165 0 277 -75.5t160.5 -195t48.5 -273.5q0 -137 -54 -416q-63 -320 -128 -466q-95 -216 -270.5 -355t-407.5 -139q-165 0 -277 75t-160.5 194.5t-48.5 274.5zM265 540q0 -84 19 -154t58 -126.5 t107 -88.5t159 -32q168 0 291.5 104t195.5 266q60 141 117 430q51 258 51 398q0 84 -19.5 154t-59 127t-107.5 89t-158 32q-168 0 -291.5 -104t-195.5 -267q-57 -135 -116 -429q-51 -259 -51 -399zM541 2081q29 128 113.5 215.5t205.5 87.5q53 0 96 -17.5t68 -43t46.5 -50.5 t45.5 -42.5t52 -17.5q83 0 119 151l169 -8q-28 -127 -112.5 -215t-206.5 -88q-65 0 -115 26.5t-74 58.5t-55.5 59t-64.5 27q-81 0 -117 -151z"/>
            <glyph unicode="&#xd6;"
                   d="M91 523q0 137 54 416q63 320 128 465q95 216 270.5 355.5t407.5 139.5q165 0 277 -75.5t160.5 -195t48.5 -273.5q0 -137 -54 -416q-63 -320 -128 -466q-95 -216 -270.5 -355t-407.5 -139q-165 0 -277 75t-160.5 194.5t-48.5 274.5zM265 540q0 -84 19 -154t58 -126.5 t107 -88.5t159 -32q168 0 291.5 104t195.5 266q60 141 117 430q51 258 51 398q0 84 -19.5 154t-59 127t-107.5 89t-158 32q-168 0 -291.5 -104t-195.5 -267q-57 -135 -116 -429q-51 -259 -51 -399zM555 2228q0 80 54.5 131t127.5 51q56 0 89.5 -32t33.5 -84q0 -80 -54 -131 t-127 -51q-56 0 -90 32t-34 84zM1152 2228q0 80 54.5 131t128.5 51q56 0 89 -32t33 -84q0 -80 -54 -131t-127 -51q-56 0 -90 32t-34 84z"/>
            <glyph unicode="&#xd7;"
                   d="M112 491l436 362l129 79l3 13l-99 79l-296 363l147 109l285 -359l56 -113h14l101 113l424 359l104 -109l-437 -363l-128 -79l-3 -13l97 -79l298 -362l-147 -110l-285 359l-58 113h-13l-100 -113l-424 -359z"/>
            <glyph unicode="&#xd8;"
                   d="M-27 35l168 213q-51 119 -50 269q0 145 54 422q20 103 32 157.5t38 144.5t58 163q92 216 271.5 355.5t406.5 139.5q237 0 368 -159l134 172l102 -69l-168 -214q49 -116 49 -269q0 -152 -53 -421q-20 -103 -32 -157.5t-38 -144.5t-58 -164q-92 -216 -271.5 -355 t-406.5 -139q-237 0 -368 158l-134 -172zM264 544q0 -68 12 -125l924 1172q-90 148 -281 148q-163 0 -289.5 -104t-197.5 -267q-59 -137 -116 -429q-52 -273 -52 -395zM328 287q91 -148 280 -148q163 0 289.5 104t197.5 266q61 143 117 430q51 267 51 394q0 73 -11 126z"/>
            <glyph unicode="&#xd9;"
                   d="M161 373q0 92 34 270l240 1234h170l-240 -1234q-32 -173 -32 -236q0 -124 70 -196t205 -72q133 0 230.5 70t145.5 191q31 79 64 243l240 1234h171l-240 -1234q-35 -173 -76 -279q-69 -172 -221 -278.5t-345 -106.5q-196 0 -306 108.5t-110 285.5zM744 2389h184l155 -341 h-184z"/>
            <glyph unicode="&#xda;"
                   d="M161 373q0 92 34 270l240 1234h170l-240 -1234q-32 -173 -32 -236q0 -124 70 -196t205 -72q133 0 230.5 70t145.5 191q31 79 64 243l240 1234h171l-240 -1234q-35 -173 -76 -279q-69 -172 -221 -278.5t-345 -106.5q-196 0 -306 108.5t-110 285.5zM848 2048l288 341h184 l-288 -341h-184z"/>
            <glyph unicode="&#xdb;"
                   d="M161 373q0 92 34 270l240 1234h170l-240 -1234q-32 -173 -32 -236q0 -124 70 -196t205 -72q133 0 230.5 70t145.5 191q31 79 64 243l240 1234h171l-240 -1234q-35 -173 -76 -279q-69 -172 -221 -278.5t-345 -106.5q-196 0 -306 108.5t-110 285.5zM464 2048l463 341h210 l330 -341h-211l-248 218l-333 -218h-211z"/>
            <glyph unicode="&#xdc;"
                   d="M161 373q0 92 34 270l240 1234h170l-240 -1234q-32 -173 -32 -236q0 -124 70 -196t205 -72q133 0 230.5 70t145.5 191q31 79 64 243l240 1234h171l-240 -1234q-35 -173 -76 -279q-69 -172 -221 -278.5t-345 -106.5q-196 0 -306 108.5t-110 285.5zM555 2228q0 80 54.5 131 t127.5 51q56 0 89.5 -32t33.5 -84q0 -80 -54 -131t-127 -51q-56 0 -90 32t-34 84zM1152 2228q0 80 54.5 131t128.5 51q56 0 89 -32t33 -84q0 -80 -54 -131t-127 -51q-56 0 -90 32t-34 84z"/>
            <glyph unicode="&#xdd;"
                   d="M312 1877h181q124 -543 267 -889h27q328 348 613 889h181q-168 -317 -346 -575t-408 -481l-160 -821h-171l160 821q-185 391 -344 1056zM848 2048l288 341h184l-288 -341h-184z"/>
            <glyph unicode="&#xde;"
                   d="M155 0l365 1877h171l-67 -341h257q172 0 242 -17q132 -32 210 -133t78 -249q0 -227 -143.5 -395.5t-336.5 -212.5q-77 -17 -248 -17h-258l-100 -512h-170zM456 672h257q143 0 206 13q129 28 223.5 147t94.5 276q0 100 -50 167.5t-136 87.5q-56 13 -200 13h-258z"/>
            <glyph unicode="&#xdf;"
                   d="M155 0l280 1437q41 209 168.5 335.5t328.5 126.5q148 0 230 -89.5t82 -237.5q0 -85 -23.5 -172t-79.5 -165.5t-136 -110.5l-2 -13q100 -37 143 -110.5t43 -191.5q0 -92 -25 -225q-55 -279 -188 -442t-351 -163q-59 0 -141 14l52 158q60 -12 93 -12q87 0 151 35 t105.5 102.5t65.5 139t42 168.5q20 99 20 180q0 265 -250 265l30 160q75 0 131.5 35.5t87.5 92t45.5 116.5t14.5 119q0 89 -44 138t-128 49q-135 0 -200 -75t-95 -227l-280 -1437h-170z"/>
            <glyph unicode="&#xe0;"
                   d="M180 304q0 109 50 220.5t138 186.5q51 41 104 67.5t107 36.5t85 12t76 2h259l32 163q15 83 14 108q0 64 -42 95.5t-140 31.5q-160 0 -390 -28l31 162q225 26 389 26q168 0 246 -71q80 -75 80 -185q0 -40 -16 -132l-195 -999h-171l32 164h-13q-171 -185 -369 -185 q-136 0 -221.5 90t-85.5 235zM355 339q0 -89 50.5 -144.5t143.5 -55.5q64 0 118 18.5t92 47t70 73.5t51.5 84t37 94t25.5 89.5t17 82.5l11 55h-262q-49 0 -77 -3t-73.5 -19.5t-82.5 -49.5q-53 -48 -87 -121.5t-34 -150.5zM659 1877h184l154 -341h-184z"/>
            <glyph unicode="&#xe1;"
                   d="M180 304q0 109 50 220.5t138 186.5q51 41 104 67.5t107 36.5t85 12t76 2h259l32 163q15 83 14 108q0 64 -42 95.5t-140 31.5q-160 0 -390 -28l31 162q225 26 389 26q168 0 246 -71q80 -75 80 -185q0 -40 -16 -132l-195 -999h-171l32 164h-13q-171 -185 -369 -185 q-136 0 -221.5 90t-85.5 235zM180 304zM355 339q0 -89 50.5 -144.5t143.5 -55.5q64 0 118 18.5t92 47t70 73.5t51.5 84t37 94t25.5 89.5t17 82.5l11 55h-262q-49 0 -77 -3t-73.5 -19.5t-82.5 -49.5q-53 -48 -87 -121.5t-34 -150.5zM763 1536l288 341h184l-288 -341h-184z "/>
            <glyph unicode="&#xe2;"
                   d="M180 304q0 109 50 220.5t138 186.5q51 41 104 67.5t107 36.5t85 12t76 2h259l32 163q15 83 14 108q0 64 -42 95.5t-140 31.5q-160 0 -390 -28l31 162q225 26 389 26q168 0 246 -71q80 -75 80 -185q0 -40 -16 -132l-195 -999h-171l32 164h-13q-171 -185 -369 -185 q-136 0 -221.5 90t-85.5 235zM355 339q0 -89 50.5 -144.5t143.5 -55.5q64 0 118 18.5t92 47t70 73.5t51.5 84t37 94t25.5 89.5t17 82.5l11 55h-262q-49 0 -77 -3t-73.5 -19.5t-82.5 -49.5q-53 -48 -87 -121.5t-34 -150.5zM379 1536l462 341h211l329 -341h-210l-248 219 l-334 -219h-210z"/>
            <glyph unicode="&#xe3;"
                   d="M180 304q0 109 50 220.5t138 186.5q51 41 104 67.5t107 36.5t85 12t76 2h259l32 163q15 83 14 108q0 64 -42 95.5t-140 31.5q-160 0 -390 -28l31 162q225 26 389 26q168 0 246 -71q80 -75 80 -185q0 -40 -16 -132l-195 -999h-171l32 164h-13q-171 -185 -369 -185 q-136 0 -221.5 90t-85.5 235zM355 339q0 -89 50.5 -144.5t143.5 -55.5q64 0 118 18.5t92 47t70 73.5t51.5 84t37 94t25.5 89.5t17 82.5l11 55h-262q-49 0 -77 -3t-73.5 -19.5t-82.5 -49.5q-53 -48 -87 -121.5t-34 -150.5zM456 1569q29 128 113 215.5t206 87.5 q53 0 95.5 -17.5t68 -42.5t47 -50.5t45.5 -43t52 -17.5q83 0 118 151l170 -8q-28 -127 -113 -215t-206 -88q-53 0 -96 17.5t-68 43t-46.5 50.5t-45.5 42.5t-52 17.5q-83 0 -119 -151z"/>
            <glyph unicode="&#xe4;"
                   d="M180 304q0 109 50 220.5t138 186.5q51 41 104 67.5t107 36.5t85 12t76 2h259l32 163q15 83 14 108q0 64 -42 95.5t-140 31.5q-160 0 -390 -28l31 162q225 26 389 26q168 0 246 -71q80 -75 80 -185q0 -40 -16 -132l-195 -999h-171l32 164h-13q-171 -185 -369 -185 q-136 0 -221.5 90t-85.5 235zM355 339q0 -89 50.5 -144.5t143.5 -55.5q64 0 118 18.5t92 47t70 73.5t51.5 84t37 94t25.5 89.5t17 82.5l11 55h-262q-49 0 -77 -3t-73.5 -19.5t-82.5 -49.5q-53 -48 -87 -121.5t-34 -150.5zM471 1716q0 80 54 131.5t127 51.5q56 0 90 -32 t34 -84q0 -80 -54.5 -131.5t-128.5 -51.5q-56 0 -89 32t-33 84zM1068 1716q0 80 54 131.5t127 51.5q56 0 90 -32t34 -84q0 -80 -54.5 -131.5t-127.5 -51.5q-56 0 -89.5 32t-33.5 84z"/>
            <glyph unicode="&#xe5;"
                   d="M180 304q0 111 50 221.5t138 185.5q51 41 104 67.5t107 36.5t85 12t76 2h259l32 163q15 83 14 108q0 68 -44.5 97.5t-137.5 29.5q-160 0 -390 -28l31 162q57 8 99 11q-29 55 -30 121q0 155 111 261.5t259 106.5q116 0 183 -66.5t67 -173.5q0 -156 -116 -265 q61 -27 101.5 -85t40.5 -140q0 -40 -16 -132l-195 -999h-171l32 164h-13q-171 -185 -369 -185q-136 0 -221.5 90t-85.5 235zM355 339q0 -89 50.5 -144.5t143.5 -55.5q64 0 118 18.5t92 47t70 73.5t51.5 84t37 94t25.5 89.5t17 82.5l11 55h-262q-49 0 -77 -3t-73.5 -19.5 t-82.5 -49.5q-55 -48 -88 -119.5t-33 -152.5zM720 1512q0 -60 35 -92.5t96 -32.5q81 0 139 58.5t58 157.5q0 60 -34.5 92.5t-96.5 32.5q-81 0 -139 -58.5t-58 -157.5z"/>
            <glyph unicode="&#xe6;"
                   d="M9 291q0 172 85.5 320.5t214.5 203.5q68 28 162 28h189l29 154q13 64 14 103q0 67 -40 99.5t-140 32.5q-96 0 -304 -27l30 163q205 24 304 24q53 0 89.5 -5.5t78.5 -22t71 -56t47 -99.5h13q121 178 284 178q93 0 155 -53.5t86 -129.5t24 -169q0 -88 -33 -266l-16 -86 h-552l-12 -58q-32 -163 -32 -256q0 -231 193 -230q49 0 263 33l-32 -163q-199 -31 -265 -30q-227 0 -284 218h-14q-68 -103 -156.5 -160.5t-187.5 -57.5q-132 0 -198 87t-66 225zM183 319q0 -79 29 -129.5t92 -50.5q57 0 104.5 28t78 68t55.5 101t38 111t25 114l24 122h-180 q-63 0 -94 -12.5t-64 -49.5q-108 -124 -108 -302zM832 843h381q18 103 18 178q0 205 -126 206q-67 0 -122.5 -57.5t-91.5 -138.5q-32 -67 -59 -188z"/>
            <glyph unicode="&#xe7;"
                   d="M205 383q0 95 40 300q20 101 34 158.5t41.5 132.5t64.5 134q175 279 506 279q135 0 356 -23l-31 -160q-224 23 -356 23q-115 0 -191.5 -43.5t-135.5 -131.5q-31 -45 -54.5 -114.5t-33.5 -115t-29 -139.5q-37 -189 -37 -272q0 -272 269 -272q155 0 393 34l-30 -160 q-103 -16 -175 -22l-25 -131q-11 -56 -19.5 -86.5t-34.5 -84t-68 -96.5q-117 -127 -297 -126q-63 0 -165 22l30 164q112 -27 167 -26q88 0 144 60q21 23 36.5 54t21.5 53.5t14 65.5l23 119h-46q-205 0 -308.5 108t-103.5 296z"/>
            <glyph unicode="&#xe8;"
                   d="M204 373q0 89 41 310q20 105 33.5 164.5t40 136.5t60.5 135q68 119 192 193.5t280 74.5q176 0 276.5 -97.5t100.5 -274.5q0 -107 -44 -332h-768q-39 -205 -39 -282q0 -263 258 -262q156 0 405 28l-31 -160q-247 -28 -405 -28q-195 0 -297.5 106t-102.5 288zM449 843h592 q15 97 15 150q0 113 -59.5 173.5t-176.5 60.5q-96 0 -172 -43t-120 -119q-40 -63 -79 -222zM659 1877h184l154 -341h-184z"/>
            <glyph unicode="&#xe9;"
                   d="M204 373q0 89 41 310q20 105 33.5 164.5t40 136.5t60.5 135q68 119 192 193.5t280 74.5q176 0 276.5 -97.5t100.5 -274.5q0 -107 -44 -332h-768q-39 -205 -39 -282q0 -263 258 -262q156 0 405 28l-31 -160q-247 -28 -405 -28q-195 0 -297.5 106t-102.5 288zM449 843h592 q15 97 15 150q0 113 -59.5 173.5t-176.5 60.5q-96 0 -172 -43t-120 -119q-40 -63 -79 -222zM763 1536l288 341h184l-288 -341h-184z"/>
            <glyph unicode="&#xea;"
                   d="M204 373q0 89 41 310q20 105 33.5 164.5t40 136.5t60.5 135q68 119 192 193.5t280 74.5q176 0 276.5 -97.5t100.5 -274.5q0 -107 -44 -332h-768q-39 -205 -39 -282q0 -263 258 -262q156 0 405 28l-31 -160q-247 -28 -405 -28q-195 0 -297.5 106t-102.5 288zM379 1536 l462 341h211l329 -341h-210l-248 219l-334 -219h-210zM449 843h592q15 97 15 150q0 113 -59.5 173.5t-176.5 60.5q-96 0 -172 -43t-120 -119q-40 -63 -79 -222z"/>
            <glyph unicode="&#xeb;"
                   d="M204 373q0 89 41 310q20 105 33.5 164.5t40 136.5t60.5 135q68 119 192 193.5t280 74.5q176 0 276.5 -97.5t100.5 -274.5q0 -107 -44 -332h-768q-39 -205 -39 -282q0 -263 258 -262q156 0 405 28l-31 -160q-247 -28 -405 -28q-195 0 -297.5 106t-102.5 288zM449 843h592 q15 97 15 150q0 113 -59.5 173.5t-176.5 60.5q-96 0 -172 -43t-120 -119q-40 -63 -79 -222zM471 1716q0 80 54 131.5t127 51.5q56 0 90 -32t34 -84q0 -80 -54.5 -131.5t-128.5 -51.5q-56 0 -89 32t-33 84zM1068 1716q0 80 54 131.5t127 51.5q56 0 90 -32t34 -84 q0 -80 -54.5 -131.5t-127.5 -51.5q-56 0 -89.5 32t-33.5 84z"/>
            <glyph unicode="&#xec;"
                   d="M155 0l30 160h342l204 1045h-342l31 160h512l-235 -1205h342l-31 -160h-853zM659 1877h184l154 -341h-184z"/>
            <glyph unicode="&#xed;"
                   d="M155 0l30 160h342l204 1045h-342l31 160h512l-235 -1205h342l-31 -160h-853zM763 1536l288 341h184l-288 -341h-184z"/>
            <glyph unicode="&#xee;"
                   d="M155 0l30 160h342l204 1045h-342l31 160h512l-235 -1205h342l-31 -160h-853zM379 1536l462 341h211l329 -341h-210l-248 219l-334 -219h-210z"/>
            <glyph unicode="&#xef;"
                   d="M155 0l30 160h342l204 1045h-342l31 160h512l-235 -1205h342l-31 -160h-853zM471 1716q0 80 54 131.5t127 51.5q56 0 90 -32t34 -84q0 -80 -54.5 -131.5t-128.5 -51.5q-56 0 -89 32t-33 84zM1068 1716q0 80 54 131.5t127 51.5q56 0 90 -32t34 -84q0 -80 -54.5 -131.5 t-127.5 -51.5q-56 0 -89.5 32t-33.5 84z"/>
            <glyph unicode="&#xf0;"
                   d="M197 363q0 79 31 234q44 223 105 338q65 123 186 202t272 79q83 0 136.5 -34t100.5 -102h13q0 267 -134 469l-284 -169l-42 88l270 161q-81 104 -194 171l78 104q153 -76 254 -192l295 177l43 -88l-279 -166q169 -217 169 -580q0 -196 -50 -458q-23 -113 -45.5 -189 t-65.5 -148q-72 -120 -194.5 -200.5t-257.5 -80.5q-208 0 -307.5 101t-99.5 283zM372 385q0 -116 61.5 -181t174.5 -65q93 0 171 46.5t128 127.5q52 89 89 284q31 151 31 226q0 111 -63 172t-177 61q-99 0 -176.5 -46.5t-122.5 -128.5q-55 -101 -89 -284q-27 -136 -27 -212z "/>
            <glyph unicode="&#xf1;"
                   d="M155 0l265 1365h171l-30 -149h14q65 77 146.5 124t155.5 47q148 0 237 -87.5t89 -231.5q0 -64 -24 -192l-171 -876h-171l171 876q21 110 21 159q0 91 -56.5 141.5t-152.5 50.5q-125 0 -212 -83q-35 -33 -57.5 -78.5t-31 -81t-23.5 -108.5l-171 -876h-170zM456 1569 q29 128 113 215.5t206 87.5q53 0 95.5 -17.5t68 -42.5t47 -50.5t45.5 -43t52 -17.5q83 0 118 151l170 -8q-28 -127 -113 -215t-206 -88q-53 0 -96 17.5t-68 43t-46.5 50.5t-45.5 42.5t-52 17.5q-83 0 -119 -151z"/>
            <glyph unicode="&#xf2;"
                   d="M205 371q0 107 40 312q33 172 73.5 288.5t108.5 201.5q175 213 424 214q172 0 271 -105.5t99 -286.5q0 -121 -37 -312q-33 -171 -74 -288.5t-109 -202.5q-175 -213 -424 -213q-173 0 -272.5 104.5t-99.5 287.5zM377 400q0 -124 57 -192.5t174 -68.5q159 0 260 130 q55 69 85.5 167.5t59.5 246.5q36 190 36 282q0 124 -56 193t-173 69q-159 0 -260 -131q-39 -49 -67.5 -123t-42.5 -132t-34 -158q-39 -204 -39 -283zM659 1877h184l154 -341h-184z"/>
            <glyph unicode="&#xf3;"
                   d="M205 371q0 107 40 312q33 172 73.5 288.5t108.5 201.5q175 213 424 214q172 0 271 -105.5t99 -286.5q0 -121 -37 -312q-33 -171 -74 -288.5t-109 -202.5q-175 -213 -424 -213q-173 0 -272.5 104.5t-99.5 287.5zM377 400q0 -124 57 -192.5t174 -68.5q159 0 260 130 q55 69 85.5 167.5t59.5 246.5q36 190 36 282q0 124 -56 193t-173 69q-159 0 -260 -131q-39 -49 -67.5 -123t-42.5 -132t-34 -158q-39 -204 -39 -283zM763 1536l288 341h184l-288 -341h-184z"/>
            <glyph unicode="&#xf4;"
                   d="M205 371q0 107 40 312q33 172 73.5 288.5t108.5 201.5q175 213 424 214q172 0 271 -105.5t99 -286.5q0 -121 -37 -312q-33 -171 -74 -288.5t-109 -202.5q-175 -213 -424 -213q-173 0 -272.5 104.5t-99.5 287.5zM377 400q0 -124 57 -192.5t174 -68.5q159 0 260 130 q55 69 85.5 167.5t59.5 246.5q36 190 36 282q0 124 -56 193t-173 69q-159 0 -260 -131q-39 -49 -67.5 -123t-42.5 -132t-34 -158q-39 -204 -39 -283zM379 1536l462 341h211l329 -341h-210l-248 219l-334 -219h-210z"/>
            <glyph unicode="&#xf5;"
                   d="M205 371q0 107 40 312q33 172 73.5 288.5t108.5 201.5q175 213 424 214q172 0 271 -105.5t99 -286.5q0 -121 -37 -312q-33 -171 -74 -288.5t-109 -202.5q-175 -213 -424 -213q-173 0 -272.5 104.5t-99.5 287.5zM377 400q0 -124 57 -192.5t174 -68.5q159 0 260 130 q55 69 85.5 167.5t59.5 246.5q36 190 36 282q0 124 -56 193t-173 69q-159 0 -260 -131q-39 -49 -67.5 -123t-42.5 -132t-34 -158q-39 -204 -39 -283zM456 1569q29 128 113 215.5t206 87.5q53 0 95.5 -17.5t68 -42.5t47 -50.5t45.5 -43t52 -17.5q83 0 118 151l170 -8 q-28 -127 -113 -215t-206 -88q-53 0 -96 17.5t-68 43t-46.5 50.5t-45.5 42.5t-52 17.5q-83 0 -119 -151z"/>
            <glyph unicode="&#xf6;"
                   d="M205 371q0 107 40 312q33 172 73.5 288.5t108.5 201.5q175 213 424 214q172 0 271 -105.5t99 -286.5q0 -121 -37 -312q-33 -171 -74 -288.5t-109 -202.5q-175 -213 -424 -213q-173 0 -272.5 104.5t-99.5 287.5zM377 400q0 -124 57 -192.5t174 -68.5q159 0 260 130 q55 69 85.5 167.5t59.5 246.5q36 190 36 282q0 124 -56 193t-173 69q-159 0 -260 -131q-39 -49 -67.5 -123t-42.5 -132t-34 -158q-39 -204 -39 -283zM471 1716q0 80 54 131.5t127 51.5q56 0 90 -32t34 -84q0 -80 -54.5 -131.5t-128.5 -51.5q-56 0 -89 32t-33 84zM1068 1716 q0 80 54 131.5t127 51.5q56 0 90 -32t34 -84q0 -80 -54.5 -131.5t-127.5 -51.5q-56 0 -89.5 32t-33.5 84z"/>
            <glyph unicode="&#xf7;"
                   d="M155 859l32 160h1194l-32 -160h-1194zM507 351q0 80 54.5 131t127.5 51q56 0 89.5 -32t33.5 -84q0 -80 -54 -131t-127 -51q-56 0 -90 32t-34 84zM723 1460q0 80 54 131.5t127 51.5q56 0 90 -32t34 -84q0 -80 -54 -131.5t-127 -51.5q-56 0 -90 32t-34 84z"/>
            <glyph unicode="&#xf8;"
                   d="M69 37l158 180q-23 67 -23 154q0 92 41 312q20 101 33.5 157t40 130.5t61.5 134.5q73 124 196 203t275 79q189 0 289 -124l123 140l96 -75l-158 -180q23 -67 23 -153q0 -100 -40 -312q-29 -148 -57 -243t-79 -180q-73 -124 -196 -202.5t-275 -78.5q-189 0 -289 124 l-123 -140zM377 388l639 733q-56 106 -196 106q-59 0 -109 -17.5t-86 -45.5t-66.5 -72.5t-51 -87.5t-39.5 -103.5t-29.5 -107t-22.5 -110.5q-37 -181 -39 -295zM412 244q56 -105 196 -105q68 0 124 21t96 64.5t69.5 90t52 115.5t36 123t27.5 130q37 195 38 293z"/>
            <glyph unicode="&#xf9;"
                   d="M225 297q0 64 24 192l171 876h171l-171 -876q-21 -109 -21 -158q0 -91 56.5 -141.5t152.5 -50.5q125 0 212 82q35 33 57.5 78.5t31 81t23.5 108.5l171 876h170l-265 -1365h-171l30 149h-14q-65 -77 -146.5 -123.5t-155.5 -46.5q-148 0 -237 87t-89 231zM659 1877h184 l154 -341h-184z"/>
            <glyph unicode="&#xfa;"
                   d="M225 297q0 64 24 192l171 876h171l-171 -876q-21 -109 -21 -158q0 -91 56.5 -141.5t152.5 -50.5q125 0 212 82q35 33 57.5 78.5t31 81t23.5 108.5l171 876h170l-265 -1365h-171l30 149h-14q-65 -77 -146.5 -123.5t-155.5 -46.5q-148 0 -237 87t-89 231zM763 1536l288 341 h184l-288 -341h-184z"/>
            <glyph unicode="&#xfb;"
                   d="M225 297q0 64 24 192l171 876h171l-171 -876q-21 -109 -21 -158q0 -91 56.5 -141.5t152.5 -50.5q125 0 212 82q35 33 57.5 78.5t31 81t23.5 108.5l171 876h170l-265 -1365h-171l30 149h-14q-65 -77 -146.5 -123.5t-155.5 -46.5q-148 0 -237 87t-89 231zM379 1536l462 341 h211l329 -341h-210l-248 219l-334 -219h-210z"/>
            <glyph unicode="&#xfc;"
                   d="M225 297q0 64 24 192l171 876h171l-171 -876q-21 -109 -21 -158q0 -91 56.5 -141.5t152.5 -50.5q125 0 212 82q35 33 57.5 78.5t31 81t23.5 108.5l171 876h170l-265 -1365h-171l30 149h-14q-65 -77 -146.5 -123.5t-155.5 -46.5q-148 0 -237 87t-89 231zM471 1716 q0 80 54 131.5t127 51.5q56 0 90 -32t34 -84q0 -80 -54.5 -131.5t-128.5 -51.5q-56 0 -89 32t-33 84zM1068 1716q0 80 54 131.5t127 51.5q56 0 90 -32t34 -84q0 -80 -54.5 -131.5t-127.5 -51.5q-56 0 -89.5 32t-33.5 84z"/>
            <glyph unicode="&#xfd;"
                   d="M84 -363l31 160q168 0 272 55q33 17 57.5 38.5t53.5 65t47 75.5t59 112q9 19 15 28h-70q-117 447 -198 1194h174q64 -644 158 -1045h13q265 528 473 1045h175q-245 -599 -608 -1292q-117 -227 -245 -330q-133 -105 -407 -106zM756 1536l288 341h184l-288 -341h-184z"/>
            <glyph unicode="&#xfe;"
                   d="M55 -512l465 2389h171l-132 -678h13q158 188 327 188q149 0 237.5 -105.5t88.5 -285.5q0 -97 -41 -313q-19 -93 -30 -144t-33 -119.5t-50 -124.5q-76 -149 -195 -232.5t-251 -83.5q-171 0 -254 188h-14l-132 -679h-170zM423 409q0 -119 50 -194.5t156 -75.5 q89 0 163.5 58t119.5 144q55 104 101 342q35 179 35 273q0 119 -50 195t-157 76q-89 0 -163 -58t-119 -145q-53 -100 -100 -341q-36 -186 -36 -274z"/>
            <glyph unicode="&#xff;"
                   d="M51 -533l32 160q192 0 273 54q35 23 69.5 69.5t57 87.5t88.5 162h-68q-87 300 -119 632t-33 733h174q0 -752 115 -1212h13q229 469 515 1212h175q-160 -417 -302 -743t-344 -719q-63 -123 -117.5 -204.5t-119.5 -126.5q-147 -105 -409 -105zM460 1665q0 80 54 131.5 t127 51.5q56 0 90 -32t34 -84q0 -80 -54 -131.5t-127 -51.5q-56 0 -90 32t-34 84zM1057 1665q0 80 54 131.5t128 51.5q56 0 90 -32t34 -84q0 -80 -54 -131.5t-128 -51.5q-56 0 -90 32t-34 84z"/>
            <glyph unicode="&#x152;"
                   d="M87 459q0 173 58 480q16 84 29.5 144t35.5 144t44 144t55.5 132.5t70 122.5t87 100.5t107.5 81.5t130 50t157 19h683l-32 -160h-341l-135 -698h341l-32 -160h-341l-136 -699h341l-30 -160h-683q-215 0 -312 116t-97 343zM260 492q0 -167 56 -249.5t211 -82.5h170 l303 1557h-171q-133 0 -218.5 -64t-141.5 -185q-85 -184 -153 -529q-56 -294 -56 -447z"/>
            <glyph unicode="&#x153;"
                   d="M31 340q0 123 44 343q60 309 141 453q57 100 152.5 175.5t204.5 75.5q199 0 227 -236h13q142 236 323 236q93 0 155 -53.5t86 -129.5t24 -169q0 -88 -33 -266l-16 -86h-552l-12 -58q-32 -163 -32 -256q0 -231 193 -230q49 0 263 33l-32 -163q-199 -31 -265 -30 q-227 0 -284 218h-14q-116 -219 -317 -218q-93 0 -156.5 55t-88 133t-24.5 173zM205 372q0 -56 11.5 -106t41 -88.5t73.5 -38.5q56 0 108 56t84 122q61 128 106 366q39 204 39 310q0 112 -35.5 173t-89.5 61q-56 0 -107 -54t-83 -120q-59 -120 -108 -370q-40 -211 -40 -311z M832 843h381q20 110 20 189q0 84 -31 139.5t-97 55.5q-67 0 -122 -57.5t-92 -138.5q-32 -67 -59 -188z"/>
            <glyph unicode="&#x178;"
                   d="M312 1877h181q124 -543 267 -889h27q328 348 613 889h181q-168 -317 -346 -575t-408 -481l-160 -821h-171l160 821q-185 391 -344 1056zM555 2228q0 80 54.5 131t127.5 51q56 0 89.5 -32t33.5 -84q0 -80 -54 -131t-127 -51q-56 0 -90 32t-34 84zM1152 2228q0 80 54.5 131 t128.5 51q56 0 89 -32t33 -84q0 -80 -54 -131t-127 -51q-56 0 -90 32t-34 84z"/>
            <glyph unicode="&#x2000;" horiz-adv-x="1205"/>
            <glyph unicode="&#x2001;" horiz-adv-x="2410"/>
            <glyph unicode="&#x2002;" horiz-adv-x="1205"/>
            <glyph unicode="&#x2003;" horiz-adv-x="2410"/>
            <glyph unicode="&#x2004;" horiz-adv-x="803"/>
            <glyph unicode="&#x2005;" horiz-adv-x="602"/>
            <glyph unicode="&#x2006;" horiz-adv-x="401"/>
            <glyph unicode="&#x2007;" horiz-adv-x="401"/>
            <glyph unicode="&#x2008;" horiz-adv-x="301"/>
            <glyph unicode="&#x2009;" horiz-adv-x="482"/>
            <glyph unicode="&#x200a;" horiz-adv-x="133"/>
            <glyph unicode="&#x2010;" d="M155 688l32 160h1194l-32 -160h-1194z"/>
            <glyph unicode="&#x2011;" d="M155 688l32 160h1194l-32 -160h-1194z"/>
            <glyph unicode="&#x2012;" d="M155 688l32 160h1194l-32 -160h-1194z"/>
            <glyph unicode="&#x2013;" d="M185 857l31 160l1196 2l-32 -160z"/>
            <glyph unicode="&#x2014;" d="M185 857l31 160l1196 2l-32 -160z"/>
            <glyph unicode="&#x2018;"
                   d="M728 1195l60 310q11 56 19.5 87t34.5 84t67 96q117 127 298 127l-32 -160q-88 0 -144 -60q-21 -23 -36.5 -54.5t-21.5 -54t-14 -65.5l-60 -310h-171z"/>
            <glyph unicode="&#x2019;"
                   d="M553 1173l31 160q89 0 145 60q21 23 36 54.5t20.5 52.5t14.5 67l61 310h171l-61 -310q-12 -59 -19.5 -87.5t-33.5 -82.5t-67 -97q-117 -127 -298 -127z"/>
            <glyph unicode="&#x201a;"
                   d="M221 -533l32 160q88 0 144 60q21 23 36.5 54t21.5 53.5t14 65.5l60 311h171l-60 -311q-11 -56 -19.5 -86.5t-34.5 -84t-67 -96.5q-117 -127 -298 -126z"/>
            <glyph unicode="&#x201c;"
                   d="M387 1195l60 310q11 56 19.5 87t34.5 84t67 96q117 127 297 127l-32 -160q-88 0 -144 -60q-21 -23 -36.5 -54.5t-21.5 -54t-14 -65.5l-60 -310h-170zM899 1195l60 310q11 56 19.5 87t34.5 84t67 96q117 127 297 127l-32 -160q-88 0 -144 -60q-21 -23 -36.5 -54.5 t-21.5 -54t-14 -65.5l-60 -310h-170z"/>
            <glyph unicode="&#x201d;"
                   d="M383 1173l30 160q89 0 146 60q21 23 35.5 54.5t20 52.5t14.5 67l62 310h170l-61 -310q-12 -59 -19.5 -87.5t-33.5 -82.5t-67 -97q-117 -127 -297 -127zM895 1173l30 160q89 0 146 60q21 23 35.5 54.5t20 52.5t14.5 67l62 310h170l-61 -310q-12 -59 -19.5 -87.5 t-33.5 -82.5t-67 -97q-117 -127 -297 -127z"/>
            <glyph unicode="&#x201e;"
                   d="M51 -533l32 160q88 0 144 60q21 23 36.5 54t21.5 53.5t14 65.5l60 311h170l-60 -311q-11 -56 -19.5 -86.5t-34.5 -84t-67 -96.5q-117 -127 -297 -126zM563 -533l32 160q88 0 144 60q21 23 36.5 54t21.5 53.5t14 65.5l60 311h170l-60 -311q-11 -56 -19.5 -86.5t-34.5 -84 t-67 -96.5q-117 -127 -297 -126z"/>
            <glyph unicode="&#x2022;"
                   d="M480 876q0 149 100 244.5t237 95.5q107 0 168.5 -58.5t61.5 -156.5q0 -149 -100 -244.5t-238 -95.5q-107 0 -168 59t-61 156z"/>
            <glyph unicode="&#x2026;"
                   d="M24 95q0 80 54 131t127 51q56 0 90 -32t34 -84q0 -80 -54 -131t-127 -51q-56 0 -90 32t-34 84zM451 95q0 80 54 131t127 51q56 0 90 -32t34 -84q0 -80 -54 -131t-127 -51q-56 0 -90 32t-34 84zM877 95q0 80 54 131t128 51q56 0 90 -32t34 -84q0 -80 -54 -131t-128 -51 q-56 0 -90 32t-34 84z"/>
            <glyph unicode="&#x202f;" horiz-adv-x="482"/>
            <glyph unicode="&#x2039;" d="M465 723l19 90l539 572l120 -90l-500 -520l-3 -14l299 -520l-156 -90z"/>
            <glyph unicode="&#x203a;" d="M317 241l502 520l2 14l-298 520l156 90l317 -572l-19 -90l-538 -572z"/>
            <glyph unicode="&#x205f;" horiz-adv-x="602"/>
            <glyph unicode="&#x20ac;"
                   d="M116 683l31 160h154q7 32 19 95t19 97h-155l31 160h156q43 200 129.5 355t226.5 252t313 97q131 0 291 -35l-32 -165q-169 40 -290.5 40t-219.5 -77.5t-157 -196t-91 -270.5h528l-30 -160h-536q-5 -32 -18 -96t-20 -96h536l-30 -160h-527q-23 -125 -23 -204 q0 -161 68 -250.5t208 -89.5q127 0 347 49l-32 -165q-197 -44 -345 -44q-209 0 -313.5 124.5t-104.5 348.5q0 96 24 231h-157z"/>
            <glyph unicode="&#x25fc;" horiz-adv-x="1366" d="M0 0v1367h1367v-1367h-1367z"/>
        </font>
</defs>
</svg>
